<svg width="1002" height="414" viewBox="0 0 1002 414" fill="none" xmlns="http://www.w3.org/2000/svg">
<path d="M1001 406H34" stroke="#526937" stroke-linecap="round" stroke-linejoin="round"/>
<path d="M805.6 313.379C805.6 313.379 773.713 270.863 733.922 241.385C694.132 211.907 660.039 199.825 650.666 202.657C641.292 205.489 633.095 214.5 633.095 214.5L521.94 326.141C521.94 326.141 485.31 355.122 481.249 357.642C477.187 360.161 458.293 371.985 446.696 375.608C435.099 379.231 416.114 378.679 416.003 382.21C415.893 385.74 418.466 388.48 424.145 390.853C434.656 395.012 445.774 397.435 457.062 398.024C465.674 398.19 474.238 399.337 482.59 401.445C486.542 402.456 497.882 407.642 500.657 403.284C503.432 398.926 507.273 373.861 508.247 371.25C509.221 368.638 544.435 343.132 569.1 331.051C593.764 318.969 623.961 299.09 632.636 289.62C641.311 280.149 654.121 265.493 654.121 265.493C654.121 265.493 693.654 302.934 707.273 320.661C720.892 338.388 742.781 360.179 782.443 378.605C822.104 397.031 836.697 381.989 839.417 367.039C842.137 352.088 805.6 313.379 805.6 313.379Z" fill="white" stroke="#1A2E35" stroke-linecap="round" stroke-linejoin="round"/>
<path d="M733.941 241.385C694.169 211.962 660.057 199.825 650.684 202.657C641.311 205.489 633.114 214.5 633.114 214.5L523.281 324.835C525.652 331.492 531.092 340.117 543.498 345.744C551.817 340.401 560.405 335.491 569.229 331.032C593.893 318.951 624.09 299.072 632.765 289.601C641.439 280.131 654.25 265.475 654.25 265.475C654.25 265.475 693.783 302.915 707.401 320.642C721.02 338.37 757.925 387.69 800.215 398.834C878.068 419.319 875.403 379.617 878.068 364.666C880.733 349.716 805.729 313.397 805.729 313.397C805.729 313.397 773.713 270.863 733.941 241.385Z" fill="#1A2E35" stroke="#1A2E35" stroke-linecap="round" stroke-linejoin="round"/>
<path d="M416.003 382.228C415.893 385.777 418.466 388.499 424.145 390.871C434.656 395.031 445.774 397.453 457.062 398.043C465.674 398.208 474.238 399.356 482.59 401.463C486.542 402.475 497.882 407.66 500.657 403.302C503.046 399.624 506.17 380.536 507.677 373.585C495.566 373.99 481.8 368.712 481.8 368.712C481.8 368.712 482.774 365.641 481.249 357.678C477.205 360.198 458.293 372.022 446.696 375.645C435.099 379.267 416.114 378.697 416.003 382.228Z" fill="#D6F9DE" stroke="#1A2E35" stroke-linecap="round" stroke-linejoin="round"/>
<path d="M942.284 149.953C931.753 140.556 908.081 117.993 891.54 89.7835C874.999 61.5743 879.52 52.5636 867.114 30.3861C854.709 8.20865 836.752 -2.78812 812.253 2.17698C799.086 4.54414 787.283 11.7612 779.171 22.4052C778.473 23.3798 777.756 24.3361 776.984 25.2371C773.4 29.4299 762.116 44.8953 753.68 81.1589C743.534 124.778 743.902 146.22 759.322 156.371C774.742 166.522 785.622 162.017 790.125 166.89C794.628 171.763 796.153 177.795 792.386 177.795C791.342 177.828 790.302 177.646 789.331 177.26C788.36 176.874 787.48 176.292 786.743 175.551C786.743 175.551 795.4 188.699 803.67 184.948C811.941 181.197 821.332 167.644 815.304 149.604C809.276 131.564 793.084 113.064 790.456 109.717C787.828 106.371 782.553 67.2382 782.553 67.2382C782.553 67.2382 782.939 54.0715 797.587 58.5769C812.235 63.0822 832.176 71.3574 838.554 84.5242C844.931 97.6909 868.622 127.39 889.298 136.419C909.974 145.448 918.226 153.723 925.743 175.9C933.26 198.078 933.26 205.231 933.26 205.231C933.26 205.231 948.68 198.096 951.639 181.914C954.598 165.731 952.797 159.35 942.284 149.953ZM760.756 150.707C753.625 142.818 758.127 128.53 758.127 128.53C755.885 148.758 779.171 160.104 779.171 160.104C779.171 160.104 767.905 158.596 760.756 150.707Z" fill="#1A2E35" stroke="#1A2E35" stroke-linecap="round" stroke-linejoin="round"/>
<path d="M807.346 316.836C807.346 316.836 757.429 308.009 745.06 312.422C732.691 316.836 700.362 369.87 694.628 376.031C688.894 382.191 682.7 384.858 677.389 384.858C672.077 384.858 653.092 381.327 642.064 383.534C631.037 385.74 617.326 392.728 618.649 399.459C619.973 406.189 626.148 409.168 646.475 412.331C666.802 415.494 688.434 407.918 694.169 404.828C699.903 401.739 706.538 397.307 708.32 396.425C710.103 395.542 725.982 392.011 734.804 386.274C741.369 381.744 747.575 376.715 753.367 371.231C753.367 371.231 790.915 388.48 805.049 395.983C819.182 403.486 841.255 408.359 853.624 408.359C865.993 408.359 892.937 404.828 899.571 401.739C906.206 398.65 918.557 386.715 918.557 373.015C918.557 359.315 920.027 340.172 915.543 339.363C911.058 338.554 907.07 340.3 902.678 339.859C898.285 339.418 873.97 325.718 867.758 323.07C861.545 320.422 807.346 316.836 807.346 316.836Z" fill="#1A2E35" stroke="#1A2E35" stroke-linecap="round" stroke-linejoin="round"/>
<path d="M729.952 328.219C734.654 322.684 739.667 317.423 744.968 312.459C750.482 308.046 791.448 312.772 791.448 312.772" stroke="white" stroke-linecap="round" stroke-linejoin="round"/>
<path d="M722.141 337.174C722.141 337.174 723.979 334.949 726.754 331.823" stroke="white" stroke-linecap="round" stroke-linejoin="round"/>
<path d="M693.286 377.392C687.92 382.614 682.259 384.895 677.389 384.895C672.095 384.895 653.092 381.364 642.064 383.57C631.037 385.777 617.326 392.765 618.649 399.496C619.973 406.226 626.148 409.205 646.475 412.368C666.802 415.531 688.434 407.955 694.169 404.865C699.903 401.776 706.188 397.51 708.155 396.553C704.412 394.662 701.136 391.961 698.565 388.647C695.993 385.333 694.19 381.489 693.286 377.392Z" fill="white" stroke="#1A2E35" stroke-linecap="round" stroke-linejoin="round"/>
<path d="M678.693 394.181C676.561 390.705 678.951 386.917 681.174 384.472C679.926 384.753 678.65 384.895 677.37 384.895C672.077 384.895 653.073 381.364 642.046 383.57C631.018 385.777 617.308 392.765 618.631 399.496C619.954 406.226 626.129 409.205 646.457 412.368C666.784 415.531 688.416 407.955 694.15 404.865C695.032 404.387 695.988 403.891 696.833 403.357C691.264 402.53 681.799 399.201 678.693 394.181Z" fill="#D6F9DE" stroke="#1A2E35" stroke-linecap="round" stroke-linejoin="round"/>
<path d="M814.881 134.157C814.881 134.157 780.311 134.543 776.543 147.691C772.775 160.84 776.175 225.533 775.789 246.993C775.404 268.454 775.422 282.338 778.05 287.597C780.678 292.856 796.098 302.639 797.219 303.025C798.34 303.412 796.833 315.052 796.833 315.052C796.833 315.052 823.52 318.436 838.554 318.73C853.588 319.024 867.114 324.762 881.027 335.666C894.94 346.571 903.946 353.706 903.946 353.706L912.584 344.309C912.584 344.309 915.984 376.27 919.733 390.926C923.483 405.582 936.274 406.355 939.95 406.355C943.626 406.355 956.105 405.969 956.105 405.969C956.105 405.969 944.085 383.791 938.829 368.749C933.573 353.706 930.191 340.926 930.191 340.926C930.191 340.926 932.819 336.788 932.819 327.759C932.819 318.73 930.981 313.471 931.312 304.441C931.643 295.412 947.853 255.949 941.09 211.943C934.326 167.938 936.568 155.544 920.027 146.901C903.486 138.258 867.427 132.98 857.282 132.189C847.137 131.398 814.881 134.157 814.881 134.157Z" fill="#D6F9DE" stroke="#1A2E35" stroke-linecap="round" stroke-linejoin="round"/>
<path d="M790.456 109.717C789.454 107.623 788.767 105.392 788.416 103.097C780.531 89.9122 773.4 76.2857 771.526 69.8311C768.695 60.0112 770.882 41.3829 772.353 31.5814C767.262 39.6727 759.708 55.0094 753.624 81.1405C743.479 124.76 743.847 146.202 759.267 156.353C774.687 166.504 785.567 161.998 790.07 166.871C794.573 171.744 796.098 177.776 792.33 177.776C791.286 177.81 790.247 177.628 789.276 177.242C788.305 176.856 787.424 176.274 786.688 175.533C786.688 175.533 795.345 188.681 803.615 184.93C811.886 181.178 821.277 167.625 815.249 149.585C809.221 131.545 793.084 113.064 790.456 109.717ZM760.756 150.707C753.624 142.818 758.127 128.53 758.127 128.53C755.885 148.758 779.171 160.104 779.171 160.104C779.171 160.104 767.905 158.596 760.756 150.707Z" fill="#1A2E35" stroke="#1A2E35" stroke-linecap="round" stroke-linejoin="round"/>
<path d="M862.667 307.991L873.381 309.535" stroke="#1A2E35" stroke-linecap="round" stroke-linejoin="round"/>
<path d="M801.685 250.156C801.685 250.156 794.113 295.541 797.329 297.362C799.48 298.594 833.058 303.669 854.874 306.85" stroke="#1A2E35" stroke-linecap="round" stroke-linejoin="round"/>
<path d="M800.527 299.66L796.833 315.034" stroke="#1A2E35" stroke-linecap="round" stroke-linejoin="round"/>
<path d="M881.634 328.311C881.634 328.311 904.313 336.108 915.543 339.344C926.772 342.581 928.408 341.404 928.408 341.404" stroke="#1A2E35" stroke-linecap="round" stroke-linejoin="round"/>
<path d="M843.608 168.085L860.553 177.703L861.013 163.506" stroke="#1A2E35" stroke-linecap="round" stroke-linejoin="round"/>
<path d="M820.469 166.246L817.252 168.765" stroke="#1A2E35" stroke-linecap="round" stroke-linejoin="round"/>
<path d="M799.149 196.975L798.929 188.258" stroke="#1A2E35" stroke-linecap="round" stroke-linejoin="round"/>
<path d="M791.136 48.0582C791.136 48.0582 771.525 65.1786 771.525 69.8311C771.525 74.4836 777.94 94.8037 780.439 102.932C783.499 111.693 788.357 119.717 794.701 126.488C800.417 132.557 811.463 139.692 813.962 139.692C815.967 139.476 817.907 138.85 819.66 137.853C819.66 137.853 821.093 167.11 826.092 177.445C831.092 187.78 833.573 187.449 834.639 184.948C835.705 182.447 848.919 139.269 848.919 139.269L855.333 108.596L841.77 73.6561C841.77 73.6561 822.876 56.885 810.048 52.6003C797.219 48.3156 791.136 48.0582 791.136 48.0582Z" fill="white" stroke="#1A2E35" stroke-linecap="round" stroke-linejoin="round"/>
<path d="M802.2 109.791C802.2 109.791 802.2 116.209 803.266 116.577C804.332 116.944 808.963 118.416 810.397 114.738" stroke="#1A2E35" stroke-linecap="round" stroke-linejoin="round"/>
<path d="M806.115 123.712C806.115 123.712 816.811 125.128 820.377 117.643" stroke="#1A2E35" stroke-linecap="round" stroke-linejoin="round"/>
<path d="M819.66 137.982C819.66 137.982 831.441 128.695 837.855 120.144C837.855 120.144 830.724 136.897 828.666 141.182C827.43 143.609 826.356 146.116 825.449 148.684L819.66 137.982Z" fill="#1A2E35" stroke="#1A2E35" stroke-linecap="round" stroke-linejoin="round"/>
<path d="M813.246 93.3694C813.246 93.3694 822.876 96.2381 826.809 90.1696" stroke="#1A2E35" stroke-linecap="round" stroke-linejoin="round"/>
<path d="M808.963 84.8184C808.963 84.8184 819.66 78.7499 827.159 81.2508" stroke="#1A2E35" stroke-linecap="round" stroke-linejoin="round"/>
<path d="M783.656 97.6541C785.308 98.6772 787.251 99.1272 789.184 98.9344C791.118 98.7416 792.934 97.9168 794.352 96.5875" stroke="#1A2E35" stroke-linecap="round" stroke-linejoin="round"/>
<path d="M793.635 88.7353C793.635 88.7353 788.287 85.1678 780.439 89.0847" stroke="#1A2E35" stroke-linecap="round" stroke-linejoin="round"/>
<path d="M893.727 179.67C893.727 179.67 889.592 193.959 891.099 203.723C892.606 213.488 890.345 245.099 890.345 246.589C890.345 248.078 882.075 251.867 882.461 254.496C882.928 257.037 883.542 259.548 884.299 262.017L872.279 257.126L856.216 278.568C866.722 288.08 878.335 296.292 890.805 303.025C912.584 315.052 927.563 311.282 927.563 311.282C927.563 311.282 936.219 258.266 937.34 234.581C938.461 210.895 943.736 179.689 935.502 157.493C929.033 140.17 900.582 137.945 894.168 167.644" fill="#D6F9DE"/>
<path d="M893.727 179.67C893.727 179.67 889.592 193.959 891.099 203.723C892.606 213.488 890.345 245.099 890.345 246.589C890.345 248.078 882.075 251.867 882.461 254.496C882.928 257.037 883.542 259.548 884.299 262.017L872.279 257.126L856.216 278.568C866.722 288.08 878.335 296.292 890.805 303.025C912.584 315.052 927.563 311.282 927.563 311.282C927.563 311.282 936.219 258.266 937.34 234.581C938.461 210.895 943.736 179.689 935.502 157.493C929.033 140.17 900.582 137.945 894.168 167.644" stroke="#1A2E35" stroke-linecap="round" stroke-linejoin="round"/>
<path d="M913.815 239.104L917.473 237.578" stroke="#1A2E35" stroke-linecap="round" stroke-linejoin="round"/>
<path d="M894.922 246.975L909.239 240.998" stroke="#1A2E35" stroke-linecap="round" stroke-linejoin="round"/>
<path d="M887.037 262.771C887.037 262.771 918.612 254.864 918.281 257.494C917.95 260.123 907.383 261.172 907.383 261.172" stroke="#1A2E35" stroke-linecap="round" stroke-linejoin="round"/>
<path d="M890.419 264.261C890.419 264.261 913.723 266.909 917.859 276.674" stroke="#1A2E35" stroke-linecap="round" stroke-linejoin="round"/>
<path d="M913.944 286.383C915.285 287.244 916.747 287.901 918.281 288.332" stroke="#1A2E35" stroke-linecap="round" stroke-linejoin="round"/>
<path d="M888.544 267.645C888.544 267.645 900.932 277.887 910.066 283.974" stroke="#1A2E35" stroke-linecap="round" stroke-linejoin="round"/>
<path d="M743.02 198.335C743.02 198.335 734.547 216.449 737.763 219.428C740.98 222.407 760.204 240.98 762.042 241.9C763.88 242.819 769.136 258.854 771.893 265.052C774.65 271.249 776.249 285.684 781.615 287.762C786.982 289.84 798.157 279.046 798.34 273.547C798.524 268.049 798.34 265.989 793.286 258.836C788.232 251.683 776.745 228.806 776.745 228.806L745.354 194.657L743.02 198.335Z" fill="white" stroke="#1A2E35" stroke-linecap="round" stroke-linejoin="round"/>
<path d="M728.372 175.882L763.88 233.643L791.136 237.302L764.56 184.819L728.372 175.882Z" fill="#1A2E35" stroke="#1A2E35" stroke-linecap="round" stroke-linejoin="round"/>
<path d="M872.389 257.126C872.389 257.126 831.79 228.549 821.277 221.396C816.026 217.97 811.004 214.204 806.243 210.123C806.243 210.123 805.104 202.969 802.568 199.972C800.031 196.975 797.311 196.202 792.422 196.588C787.534 196.975 783.398 197.71 780.403 196.588C777.407 195.467 771.746 186.051 771.011 190.189C770.276 194.327 770.625 197.342 774.393 200.34C778.16 203.337 783.398 204.477 784.906 205.231C786.413 205.985 782.516 206.592 782.516 206.592C776.47 208.735 770.01 209.453 763.641 208.689C757.318 207.897 751.134 206.238 745.262 203.76C742.634 203.006 743.002 206.776 746.016 209.038C749.03 211.3 750.904 212.422 750.904 212.422C750.904 212.422 741.513 210.914 742.634 213.911C743.755 216.909 747.89 219.557 750.518 221.432C753.147 223.308 755.793 226.71 758.036 227.832C760.278 228.954 760.664 234.231 764.431 236.475C768.199 238.718 767.078 238.498 776.69 239.362C786.75 240.17 796.861 240.083 806.905 239.104L856.216 278.568L872.389 257.126Z" fill="white" stroke="#1A2E35" stroke-linecap="round" stroke-linejoin="round"/>
<path d="M750.996 212.366C750.996 212.366 760.388 216.872 761.895 216.872H782.112" stroke="#1A2E35" stroke-linecap="round" stroke-linejoin="round"/>
<path d="M749.011 220.586C751.202 220.85 753.35 221.388 755.407 222.186C756.73 223.069 765.313 224.779 767.96 225.22C771.923 225.496 775.898 225.569 779.869 225.441" stroke="#1A2E35" stroke-linecap="round" stroke-linejoin="round"/>
<path d="M758.127 227.795C758.127 227.795 768.622 232.926 770.607 233.312C774.9 233.426 779.197 233.278 783.472 232.87" stroke="#1A2E35" stroke-linecap="round" stroke-linejoin="round"/>
<path d="M881.395 109.717C867.816 95.1582 855.379 79.5731 844.196 63.1006C844.196 63.1006 840.06 122.13 849.084 147.324C858.109 172.517 891.172 162.035 902.825 155.599C914.477 149.162 918.612 144.308 925.743 145.448C909.5 135.476 894.596 123.469 881.395 109.717Z" fill="#1A2E35" stroke="#1A2E35" stroke-linecap="round" stroke-linejoin="round"/>
<path d="M796.76 45.024C783.637 29.4299 791.136 48.0215 791.136 48.0215C791.136 48.0215 816.278 72.0378 841.77 73.7664C841.77 73.748 809.882 60.6549 796.76 45.024Z" fill="#1A2E35" stroke="#1A2E35" stroke-linecap="round" stroke-linejoin="round"/>
<path d="M80.5532 133.537C80.5634 133.505 80.562 133.47 80.5492 133.44C80.5364 133.409 80.5129 133.384 80.4831 133.368C80.4496 133.354 80.4119 133.353 80.3779 133.367C80.3439 133.38 80.3163 133.405 80.3011 133.439C76.3914 142.831 73.2939 152.541 71.0425 162.463C68.7888 172.39 67.0914 182.436 65.958 192.553L65.2296 200.163C65.1175 201.424 64.9775 202.7 64.8934 203.961L64.6833 207.773C64.5713 210.324 64.4172 212.874 64.3472 215.411V223.063L64.4312 226.889C64.4312 228.15 64.5713 229.426 64.6693 230.701C64.8514 233.238 65.0055 235.775 65.2436 238.311C65.7339 243.385 66.4902 248.43 67.2746 253.447C67.2833 253.478 67.3015 253.506 67.3267 253.526C67.3518 253.546 67.3826 253.558 67.4147 253.559C67.4494 253.556 67.4815 253.54 67.5048 253.514C67.5281 253.488 67.5409 253.454 67.5407 253.419C67.5407 250.869 67.4147 248.332 67.3587 245.795C67.3026 243.258 67.0645 240.736 67.1065 238.199C67.1486 235.662 67.1065 233.14 67.0225 230.617V226.833V223.035V215.467L67.2326 207.899L67.3587 204.087C67.3587 202.826 67.4987 201.564 67.5688 200.303L68.031 192.749C68.8908 182.669 70.3218 172.647 72.3171 162.729C74.2102 152.778 76.966 143.01 80.5532 133.537Z" fill="#1A2E35"/>
<path d="M81.6319 173.142C81.6412 173.109 81.6378 173.073 81.6223 173.042C81.6067 173.011 81.5802 172.987 81.5479 172.974C81.5314 172.968 81.5137 172.965 81.496 172.966C81.4783 172.966 81.4609 172.971 81.445 172.979C81.4292 172.987 81.4152 172.998 81.4039 173.012C81.3927 173.025 81.3845 173.041 81.3798 173.058C77.0499 185.696 74.1739 198.786 72.8076 212.076C72.1352 218.705 71.4069 225.334 71.3088 232.005C71.1363 238.674 71.3702 245.348 72.0092 251.99C72.0152 252.02 72.0307 252.047 72.0534 252.067C72.0762 252.087 72.1049 252.099 72.1352 252.102C72.1521 252.106 72.1697 252.107 72.1867 252.103C72.2038 252.099 72.2197 252.092 72.2333 252.081C72.2469 252.07 72.2578 252.056 72.2651 252.04C72.2723 252.024 72.2759 252.007 72.2753 251.99C73.0457 245.347 73.5219 238.732 73.9701 232.117C74.4184 225.502 74.5024 218.873 74.9366 212.244C75.3628 205.642 76.153 199.068 77.3038 192.553C78.3821 186.007 79.8271 179.526 81.6319 173.142Z" fill="#1A2E35"/>
<path d="M103.58 187.073C103.554 187.054 103.522 187.043 103.489 187.043C103.457 187.043 103.425 187.054 103.398 187.073C97.9073 190.604 92.9619 194.92 88.719 199.883C86.5899 202.379 84.6692 205.046 82.9762 207.857L81.7996 210.085L80.8751 212.398C80.5673 213.168 80.3008 213.954 80.0768 214.752C79.8386 215.537 79.5725 216.322 79.3624 217.121C77.6772 223.453 76.6585 229.945 76.3229 236.489C76.0016 242.982 76.2453 249.491 77.0513 255.942C77.0572 255.972 77.0728 255.999 77.0955 256.019C77.1183 256.039 77.147 256.051 77.1773 256.054C77.195 256.056 77.2129 256.054 77.2299 256.049C77.2468 256.043 77.2624 256.034 77.2757 256.022C77.2889 256.01 77.2995 255.996 77.3066 255.98C77.3138 255.963 77.3175 255.946 77.3174 255.928L78.9842 236.615C79.4475 230.231 80.2658 223.877 81.4354 217.583C81.6035 216.799 81.8276 216.042 82.0237 215.271C82.208 214.501 82.4371 213.743 82.7101 213L83.4944 210.758L84.5029 208.656C86.0316 205.853 87.7884 203.181 89.7555 200.667C93.6739 195.554 98.3171 191.041 103.538 187.269C103.554 187.259 103.568 187.246 103.579 187.231C103.589 187.216 103.597 187.198 103.601 187.18C103.605 187.162 103.605 187.143 103.601 187.125C103.598 187.106 103.591 187.089 103.58 187.073Z" fill="#1A2E35"/>
<path d="M92.9635 211.893C90.1069 213.97 87.8109 216.725 86.2822 219.91C84.679 223.032 83.4248 226.322 82.5424 229.72C82.2763 230.561 82.0802 231.416 81.8981 232.271L81.2818 234.92C80.9629 236.643 80.7477 238.384 80.6375 240.133C80.6375 241.885 80.6375 243.637 80.6375 245.389C80.7757 247.137 81.0048 248.877 81.3238 250.602C81.3306 250.629 81.3446 250.654 81.3643 250.674C81.384 250.694 81.4088 250.708 81.4358 250.714C81.4709 250.719 81.5063 250.709 81.5349 250.689C81.5634 250.668 81.5831 250.637 81.5899 250.602C81.9972 248.912 82.3059 247.199 82.5144 245.473C82.7945 243.763 83.0606 242.081 83.2567 240.385C83.4528 238.69 83.733 237.022 83.859 235.326C83.9851 233.63 84.2232 231.949 84.5874 230.295C85.1547 226.931 86.0943 223.64 87.3888 220.484C88.5625 217.276 90.4831 214.394 92.9916 212.076C93.0078 212.051 93.0165 212.021 93.0165 211.991C93.0165 211.962 93.0078 211.932 92.9916 211.907C92.9828 211.902 92.9734 211.897 92.9635 211.893Z" fill="#1A2E35"/>
<path d="M62.1761 231.234C61.4617 222.657 60.0471 214.178 58.7024 205.685C57.3577 197.192 55.901 188.741 54.3322 180.304C52.7635 171.867 51.0546 163.486 49.2337 155.077C49.2122 155.053 49.1821 155.038 49.1497 155.035C49.115 155.042 49.0842 155.062 49.0634 155.09C49.0426 155.119 49.0334 155.154 49.0376 155.189C50.5083 163.598 51.839 172.119 53.0856 180.598C54.3322 189.077 55.5788 197.556 56.6574 206.063C57.7359 214.57 58.5203 223.091 59.5848 231.584L62.7224 257.105C62.7222 257.121 62.7255 257.137 62.732 257.151C62.7385 257.166 62.748 257.179 62.76 257.19C62.7719 257.2 62.786 257.208 62.8012 257.213C62.8165 257.218 62.8326 257.219 62.8484 257.217C62.8661 257.219 62.884 257.217 62.901 257.212C62.9179 257.206 62.9335 257.197 62.9468 257.186C62.96 257.174 62.9706 257.159 62.9778 257.143C62.985 257.126 62.9886 257.109 62.9885 257.091C63.0866 254.947 63.0866 252.788 63.1426 250.644C63.1986 248.5 63.0585 246.342 63.0165 244.183C62.8624 239.811 62.4983 235.522 62.1761 231.234Z" fill="#1A2E35"/>
<path d="M57.0356 231.108C56.5874 227.716 55.9571 224.338 55.3128 220.975L54.1082 215.972C53.716 214.304 53.3378 212.622 52.8476 210.982C51.1547 204.331 48.9826 197.811 46.3484 191.474L45.3119 189.105L44.1773 186.807C43.4489 185.251 42.5665 183.766 41.7401 182.266C40.0534 179.268 37.971 176.51 35.549 174.067C35.5237 174.046 35.4914 174.034 35.458 174.034C35.4246 174.034 35.3923 174.046 35.3669 174.067C35.3413 174.094 35.3269 174.129 35.3269 174.165C35.3269 174.202 35.3413 174.237 35.3669 174.264C37.5967 176.807 39.4807 179.635 40.9697 182.672C41.7121 184.2 42.4965 185.7 43.1408 187.269L44.1493 189.61L45.0317 191.992C47.4123 198.341 49.3224 204.857 50.7465 211.487C51.5309 214.78 52.0492 218.144 52.6795 221.479L53.4779 226.497C53.772 228.164 54.1362 229.832 54.3603 231.514C54.9066 234.864 55.5229 238.199 56.0972 241.563C56.6715 244.926 57.2317 248.276 57.9461 251.639C57.9539 251.668 57.97 251.694 57.9924 251.714C58.0148 251.734 58.0425 251.747 58.0722 251.751C58.0905 251.751 58.1088 251.748 58.1258 251.741C58.1428 251.734 58.1582 251.723 58.1712 251.71C58.1842 251.697 58.1945 251.682 58.2016 251.665C58.2086 251.648 58.2122 251.63 58.2122 251.611C58.2122 248.192 58.1422 244.758 57.9741 241.338C57.806 237.919 57.3998 234.513 57.0356 231.108Z" fill="#1A2E35"/>
<path d="M49.9481 231.542C48.3653 227.043 46.5304 222.643 44.5274 218.326C42.5042 214.02 40.2215 209.84 37.6921 205.811C37.6815 205.799 37.6686 205.789 37.6541 205.783C37.6396 205.776 37.6239 205.773 37.608 205.773C37.5921 205.773 37.5764 205.776 37.5619 205.783C37.5474 205.789 37.5345 205.799 37.524 205.811C37.5117 205.823 37.5019 205.837 37.4952 205.853C37.4886 205.868 37.4851 205.885 37.4851 205.902C37.4851 205.919 37.4886 205.936 37.4952 205.952C37.5019 205.967 37.5117 205.981 37.524 205.993C39.7244 210.174 41.6702 214.485 43.3509 218.901C45.0877 223.287 46.6565 227.73 47.9731 232.257C49.2898 236.784 50.2703 241.38 51.4749 245.907C52.6795 250.434 53.758 255.017 55.1447 259.614C55.1532 259.641 55.1698 259.665 55.1924 259.683C55.2149 259.7 55.2422 259.71 55.2707 259.712C55.2897 259.714 55.3089 259.712 55.3269 259.706C55.3449 259.7 55.3613 259.689 55.3748 259.676C55.3883 259.662 55.3985 259.646 55.4047 259.628C55.411 259.61 55.4131 259.591 55.4108 259.572C55.4429 254.785 54.9735 250.008 54.0101 245.319C53.0323 240.624 51.6738 236.016 49.9481 231.542Z" fill="#1A2E35"/>
<path d="M49.6539 246.524C48.7777 243.724 47.5091 241.063 45.886 238.62C44.3654 236.112 42.5191 233.816 40.3953 231.794C39.3122 230.809 38.1399 229.927 36.8936 229.16C35.6767 228.362 34.3445 227.757 32.9436 227.366C32.9138 227.356 32.8816 227.358 32.8531 227.371C32.8246 227.384 32.802 227.407 32.7895 227.436C32.7702 227.462 32.7598 227.494 32.7598 227.527C32.7598 227.56 32.7702 227.592 32.7895 227.618C35.3161 228.839 37.555 230.583 39.3588 232.733C41.182 234.836 42.7219 237.168 43.939 239.671C45.2277 242.123 45.9 244.842 47.0346 247.379C47.5388 248.682 48.0291 250 48.6034 251.289C49.092 252.647 49.6675 253.971 50.3262 255.255C50.3413 255.275 50.3603 255.291 50.382 255.303C50.4037 255.315 50.4276 255.323 50.4523 255.325C50.4894 255.325 50.525 255.31 50.5513 255.284C50.5776 255.258 50.5923 255.222 50.5923 255.185C50.6343 253.725 50.5781 252.265 50.4243 250.812C50.2982 249.383 50.004 247.953 49.6539 246.524Z" fill="#1A2E35"/>
<path d="M50.1861 167.34C45.9059 166.143 42.0337 163.799 38.9876 160.561C35.9415 157.323 33.8371 153.314 32.9016 148.967C29.666 133.845 40.1011 140.32 30.7445 116.551C21.3879 92.7816 23.5449 87.3719 26.7805 80.5327C30.0161 73.6934 31.823 75.8517 34.7085 84.8492C37.5939 93.8467 48.029 107.904 51.951 134.195C55.8729 160.487 50.1861 167.34 50.1861 167.34Z" fill="#D6F9DE"/>
<path d="M77.906 141.763C77.906 141.763 68.5494 138.526 68.1852 120.867C67.821 103.209 75.0206 106.852 76.0991 84.8492C77.1777 62.846 78.6204 47.3877 82.5843 47.0093C86.5483 46.6309 96.9834 57.8287 100.583 82.3125C104.183 106.796 95.9049 122.955 88.7054 130.229C81.5058 137.503 77.906 141.763 77.906 141.763Z" fill="#D6F9DE"/>
<path d="M45.1438 188.587C45.1438 188.587 42.9867 175.623 38.6586 169.499C34.3305 163.374 24.9878 157.978 18.8668 146.08C12.7458 134.181 5.91042 128.435 6.2606 145.365C6.61077 162.295 14.1325 170.942 23.5451 176.702C32.9578 182.462 45.1438 188.587 45.1438 188.587Z" fill="#D6F9DE"/>
<path d="M41.1797 210.926C41.1797 210.926 32.5375 194.361 19.9452 182.112C7.35303 169.863 -2.67592 163.738 0.867831 169.863C4.41158 175.987 8.78174 175.623 14.8747 186.428C20.9678 197.234 19.2029 205.166 27.8311 211.291C36.4594 217.415 41.1797 210.926 41.1797 210.926Z" fill="#D6F9DE"/>
<path d="M40.1012 232.117C39.751 231.038 39.3868 223.119 27.1448 216.63C14.9027 210.141 3.33301 212.664 4.81774 215.916C6.30248 219.167 13.8242 224.563 21.3879 227.8C28.9517 231.038 40.1012 232.117 40.1012 232.117Z" fill="#D6F9DE"/>
<path d="M77.1636 189.315C77.1636 189.315 71.7569 182.462 74.6423 168.055C77.5277 153.648 83.9989 157.25 91.1985 149.696C98.398 142.142 96.9553 141.049 104.155 133.116C111.354 125.184 117.84 120.867 120.711 124.119C123.582 127.37 119.31 137.447 114.954 143.207C110.598 148.967 103.749 151.854 100.555 159.058C97.3615 166.261 98.7622 177.781 90.4701 183.191C82.178 188.601 77.1636 189.315 77.1636 189.315Z" fill="#D6F9DE"/>
<path d="M95.1907 193.268C95.1907 193.268 108.147 178.51 117.504 167.649C126.86 156.787 130.46 148.546 130.824 155.75C131.188 162.954 134.06 168.728 126.51 178.09C118.96 187.452 95.1907 193.268 95.1907 193.268Z" fill="#D6F9DE"/>
<path d="M88.369 217.051C88.369 217.051 88.0189 211.291 108.539 197.963C129.059 184.635 137.687 182.112 135.53 187.508C133.373 192.903 124.325 198.313 114.66 208.039C104.995 217.766 88.369 217.051 88.369 217.051Z" fill="#D6F9DE"/>
<path d="M51.0406 165.799C51.0406 165.799 46.2222 139.969 41.2357 121.596C36.2493 103.223 32.9576 92.0528 32.9576 92.0528" stroke="#1A2E35" stroke-linecap="round" stroke-linejoin="round"/>
<path d="M77.0796 142.03C77.0796 142.03 85.8199 114 88.7053 97.0981C91.5908 80.1963 88.3692 67.5549 86.9685 60.001" stroke="#1A2E35" stroke-linecap="round" stroke-linejoin="round"/>
<path d="M44.0091 188.054C40.1284 181.385 35.6911 175.056 30.7446 169.134C22.8307 159.772 16.7377 154.727 13.1099 145.729" stroke="#1A2E35" stroke-linecap="round" stroke-linejoin="round"/>
<path d="M77.1636 189.315C77.1636 189.315 79.965 172.021 86.8704 163.01C93.7758 153.998 107.391 139.969 112.797 130.958" stroke="#1A2E35" stroke-linecap="round" stroke-linejoin="round"/>
<path d="M39.2608 231.78C39.2608 231.78 27.1448 223.89 18.5026 219.573" stroke="#1A2E35" stroke-linecap="round" stroke-linejoin="round"/>
<path d="M108.623 304.391C107.811 282.528 83.5366 267.953 83.5366 267.953H46.3482C46.3482 267.953 22.0742 282.528 21.2759 304.391C20.4775 326.254 48.7854 406.391 48.7854 406.391H81.1134C81.1134 406.391 109.379 326.24 108.623 304.391Z" fill="#1A2E35" stroke="#1A2E35" stroke-linecap="round" stroke-linejoin="round"/>
<path d="M88.3269 246.468H40.8574L46.3341 267.953H82.8502L88.3269 246.468Z" fill="#1A2E35" stroke="#1A2E35" stroke-linecap="round" stroke-linejoin="round"/>
</svg>
