<svg width="139" height="51" viewBox="0 0 139 51" fill="none" xmlns="http://www.w3.org/2000/svg">
<path d="M2.75558 41.3488C2.76126 41.9067 2.93725 42.4497 3.2601 42.9054C3.58295 43.3611 4.03734 43.7079 4.56276 43.8996C5.08165 44.0822 5.6439 44.1034 6.17515 43.9605C6.7064 43.8175 7.18161 43.5171 7.53793 43.0989C7.91169 42.6515 8.13555 42.0986 8.1781 41.5178C8.21423 40.9707 8.0814 40.4256 7.79748 39.9561C7.5027 39.4768 7.06746 39.0994 6.5506 38.8748C6.03374 38.6502 5.46021 38.5894 4.90754 38.7005C3.6611 38.9458 2.76429 40.098 2.75558 41.3488C2.75558 41.4769 2.80659 41.5997 2.89741 41.6903C2.98822 41.7808 3.11139 41.8317 3.23982 41.8317C3.36824 41.8317 3.49141 41.7808 3.58223 41.6903C3.67304 41.5997 3.72406 41.4769 3.72406 41.3488C3.72406 41.2928 3.72406 41.2358 3.72987 41.1798C3.72987 41.1518 3.73568 41.1238 3.73761 41.0967C3.74439 41.0233 3.71631 41.2194 3.73761 41.1102C3.75657 41.0028 3.78245 40.8966 3.81509 40.7925C3.82381 40.7664 3.84705 40.6563 3.8703 40.6408C3.84802 40.6563 3.83059 40.7268 3.85964 40.6679C3.87417 40.6389 3.88676 40.6099 3.90129 40.5819C3.95005 40.4872 4.00573 40.3962 4.06787 40.3096C4.07368 40.3018 4.1376 40.2188 4.08627 40.2825C4.03494 40.3463 4.10273 40.2642 4.10854 40.2574C4.14244 40.2168 4.17827 40.1782 4.21508 40.1396C4.25188 40.1009 4.27512 40.0806 4.30611 40.0517C4.3371 40.0227 4.3526 40.0092 4.37681 39.9889L4.40199 39.9686C4.4417 39.9367 4.43492 39.9425 4.37875 39.986C4.38553 39.959 4.48819 39.9087 4.50949 39.8952C4.5492 39.8691 4.58988 39.845 4.63249 39.8218C4.6751 39.7986 4.71675 39.7764 4.76033 39.7561L4.78938 39.7426C4.83684 39.7214 4.82812 39.7243 4.76227 39.7523C4.77195 39.7368 4.83684 39.7243 4.85234 39.7185C4.94473 39.6856 5.0392 39.6588 5.13513 39.6383L5.23198 39.6199C5.29784 39.6074 5.2252 39.6045 5.20196 39.6199C5.23101 39.5958 5.36854 39.6055 5.4034 39.6045C5.50522 39.603 5.60706 39.6069 5.70847 39.6161C5.59807 39.5939 5.82469 39.6248 5.70847 39.6161L5.77336 39.6286C5.83244 39.6402 5.89055 39.6537 5.94866 39.6702C6.00676 39.6866 6.0455 39.6982 6.08812 39.7146C6.10264 39.7146 6.17044 39.7358 6.17819 39.7484C6.18593 39.761 6.06875 39.6982 6.15107 39.7387C6.25154 39.7857 6.34862 39.8396 6.44161 39.9C6.46486 39.9145 6.55202 39.9551 6.5588 39.9821L6.51134 39.9454L6.56073 39.985L6.60819 40.0266C6.68735 40.0966 6.76116 40.1725 6.829 40.2535L6.84934 40.2777C6.88227 40.3182 6.87646 40.3105 6.83288 40.2545C6.84681 40.2703 6.85914 40.2875 6.86968 40.3057C6.90067 40.3495 6.92973 40.3939 6.95684 40.439C6.98396 40.484 7.01011 40.5304 7.03529 40.5781C7.04498 40.5964 7.05466 40.6157 7.06338 40.635C7.07209 40.6544 7.08178 40.6737 7.09049 40.693L7.06628 40.637C7.09146 40.6515 7.1118 40.7577 7.12149 40.7886C7.13795 40.8398 7.15344 40.8929 7.16604 40.9451C7.17863 40.9972 7.18734 41.0417 7.19606 41.09C7.20477 41.1382 7.19606 41.1933 7.19606 41.0764C7.19606 41.1083 7.20284 41.144 7.20574 41.173C7.21446 41.2855 7.21446 41.3985 7.20574 41.5111L7.19993 41.5777C7.18928 41.6897 7.21543 41.4927 7.19993 41.5642C7.18444 41.6357 7.17863 41.683 7.1641 41.7419C7.13989 41.8385 7.10018 41.9351 7.06725 42.0316C7.04788 42.0983 7.11955 41.9235 7.06725 42.0201C7.05757 42.0394 7.04885 42.0587 7.04013 42.078C7.01108 42.135 6.98106 42.191 6.94328 42.2451C6.90551 42.2992 6.88711 42.3349 6.85612 42.3784C6.84582 42.3968 6.83348 42.4139 6.81932 42.4296L6.85612 42.3813L6.8261 42.419C6.75369 42.5029 6.6764 42.5826 6.59463 42.6575C6.57526 42.6749 6.46486 42.7657 6.522 42.7203C6.57914 42.6749 6.46389 42.7609 6.44161 42.7753C6.34318 42.8388 6.24062 42.8955 6.1346 42.9453C6.07553 42.9743 6.14719 42.9579 6.16172 42.9347C6.153 42.9482 6.10264 42.9579 6.08715 42.9637C6.04066 42.9811 5.9903 42.9956 5.94769 43.0091C5.90507 43.0226 5.84309 43.0381 5.78886 43.0487L5.72494 43.0622L5.65908 43.0728C5.72784 43.0641 5.74334 43.0622 5.70557 43.0661C5.59871 43.0764 5.49138 43.0809 5.38403 43.0796C5.32786 43.0796 5.27266 43.0728 5.21648 43.068C5.11964 43.0603 5.24457 43.0728 5.24554 43.0728C5.24651 43.0728 5.14869 43.0554 5.13126 43.0525C5.01438 43.029 4.89945 42.9968 4.78745 42.956C4.70706 42.926 4.76614 42.9733 4.79907 42.9618C4.76862 42.9514 4.73939 42.9378 4.71191 42.9212C4.65477 42.8932 4.59859 42.8623 4.54339 42.8294C4.48819 42.7966 4.45429 42.7725 4.41071 42.7425L4.38456 42.7242C4.34292 42.6933 4.35066 42.699 4.40683 42.7415C4.39037 42.7415 4.34485 42.6904 4.3342 42.6807C4.24584 42.6051 4.16389 42.5224 4.08917 42.4334C4.08917 42.4334 4.0485 42.3919 4.0485 42.3842C4.09208 42.4412 4.09789 42.4479 4.0669 42.4064L4.03881 42.3678C4.00588 42.3204 3.97392 42.2712 3.94196 42.221C3.91 42.1707 3.87998 42.1089 3.8519 42.0519C3.8409 42.0334 3.83213 42.0136 3.82575 41.993C3.85286 42.0597 3.85674 42.0684 3.83737 42.0201L3.82575 41.9901C3.78424 41.878 3.75186 41.7627 3.7289 41.6453C3.7289 41.6337 3.70469 41.5574 3.71243 41.5487L3.72018 41.6115C3.72018 41.5893 3.72018 41.568 3.7134 41.5458C3.70759 41.4814 3.70469 41.4138 3.70469 41.343C3.70469 41.2149 3.65367 41.0921 3.56286 41.0015C3.47204 40.911 3.34887 40.8601 3.22045 40.8601C3.09202 40.8601 2.96885 40.911 2.87804 41.0015C2.78722 41.0921 2.73621 41.2149 2.73621 41.343L2.75558 41.3488Z" fill="#121711"/>
<path d="M0.0612793 41.371C0.0612793 42.0953 0.320832 42.7956 0.604597 43.4514C0.937343 44.1973 1.32583 44.9173 1.76677 45.6052C2.59893 46.9096 3.50766 48.1639 4.4882 49.3614C4.68965 49.6106 4.89206 49.8588 5.10125 50.1012C5.19206 50.1917 5.31521 50.2426 5.44361 50.2426C5.57201 50.2426 5.69516 50.1917 5.78597 50.1012C6.41451 49.372 7.00625 48.609 7.58056 47.8363C8.58681 46.4841 9.57273 45.0663 10.2555 43.52C10.546 42.8545 10.8172 42.1427 10.8298 41.4057C10.8401 40.326 10.5202 39.2687 9.91266 38.3749C9.3029 37.4823 8.44242 36.7892 7.43916 36.3824C6.41836 35.9761 5.29734 35.8912 4.22671 36.139C2.13964 36.6113 0.44964 38.3933 0.132947 40.5085C0.0878108 40.7938 0.0638566 41.0821 0.0612793 41.371C0.0612793 41.499 0.112297 41.6219 0.20311 41.7124C0.293923 41.803 0.417091 41.8539 0.54552 41.8539C0.673248 41.8516 0.79512 41.8 0.885452 41.71C0.975784 41.6199 1.02752 41.4983 1.02976 41.371C1.02976 41.2473 1.02976 41.1237 1.04332 41.0001C1.04816 40.9334 1.05494 40.8678 1.06269 40.8011C1.06239 40.779 1.06499 40.7569 1.07044 40.7354C1.06075 40.8088 1.05881 40.8185 1.07044 40.7654C1.07044 40.7432 1.07722 40.7219 1.08109 40.6997C1.12203 40.4531 1.1816 40.21 1.25929 39.9724C1.29512 39.8662 1.33967 39.7619 1.37648 39.6556C1.39972 39.589 1.32708 39.7667 1.37163 39.6682C1.38422 39.6392 1.39681 39.6093 1.41037 39.5803C1.43749 39.5223 1.46461 39.4654 1.49366 39.4084C1.60408 39.1912 1.73066 38.9827 1.87234 38.7844C1.89364 38.7545 1.93238 38.6753 1.96919 38.6569L1.93238 38.7043L1.97112 38.655L2.03117 38.5816C2.10865 38.485 2.19 38.3991 2.27426 38.3121C2.35851 38.2252 2.43115 38.1557 2.51347 38.0823C2.56093 38.0398 2.61032 37.9982 2.65681 37.9577L2.7062 37.9181C2.7217 37.9046 2.73816 37.891 2.75559 37.8785C2.79627 37.8463 2.78852 37.8521 2.73235 37.8959C2.75462 37.8572 2.83598 37.8186 2.87278 37.7925L3.01708 37.6959C3.12361 37.6264 3.23305 37.5607 3.34443 37.5028C3.4558 37.4448 3.53812 37.3994 3.64369 37.3521L3.71632 37.3193L3.74635 37.3067C3.79477 37.2854 3.78509 37.2893 3.71923 37.3173C3.74828 37.2835 3.85385 37.2642 3.89937 37.2478C4.13371 37.1625 4.37428 37.0954 4.61895 37.0469C4.67318 37.0363 4.72645 37.0256 4.78068 37.0169C4.80102 37.0169 4.86107 36.9947 4.87753 37.0025L4.81458 37.0102L4.88044 37.0025C5.00828 36.987 5.13708 36.9773 5.26783 36.9725C5.52132 36.9636 5.77512 36.9736 6.02712 37.0025H6.06005H6.03002C6.04649 36.9957 6.09298 37.0111 6.11138 37.014C6.17142 37.0237 6.2305 37.0343 6.28958 37.0469C6.41839 37.072 6.54526 37.1029 6.67116 37.1435C6.79706 37.184 6.89875 37.212 7.01013 37.2526C7.06049 37.271 7.10697 37.2912 7.16024 37.3106C7.06339 37.2652 7.26581 37.3511 7.16024 37.3106L7.2474 37.3492C7.46973 37.4508 7.68405 37.5689 7.88854 37.7027C7.93309 37.7317 7.97667 37.7616 8.02025 37.7915C8.06383 37.8215 8.14906 37.8611 8.17424 37.9036C8.1355 37.8369 8.1171 37.8582 8.16359 37.8959L8.2246 37.9451C8.28174 37.9924 8.33791 38.0417 8.39215 38.09C8.56546 38.2445 8.7273 38.4114 8.87639 38.5893L8.93643 38.6627L8.95677 38.6878C8.98905 38.7284 8.98324 38.7207 8.93934 38.6647C8.97421 38.684 9.01004 38.7613 9.03619 38.7922C9.10979 38.8955 9.17952 39.0008 9.24441 39.1099C9.3093 39.2191 9.3616 39.3118 9.41389 39.4161C9.43811 39.4634 9.46135 39.5127 9.48363 39.559C9.49718 39.588 9.51074 39.617 9.52333 39.646L9.54948 39.7049L9.52527 39.6489C9.5582 39.673 9.58047 39.7889 9.595 39.8285C9.60953 39.8681 9.6318 39.9251 9.64827 39.9801C9.68894 40.1038 9.72478 40.2284 9.7548 40.3549C9.78482 40.4814 9.8071 40.5896 9.82647 40.7074C9.82647 40.7258 9.84971 40.7895 9.84196 40.804C9.84196 40.7992 9.82744 40.6813 9.84196 40.7741C9.85036 40.8513 9.8581 40.9286 9.86521 41.0059C9.88118 41.1945 9.88312 41.384 9.87102 41.5728C9.87102 41.6105 9.86327 41.6472 9.8594 41.6839C9.84777 41.7959 9.8807 41.5545 9.8594 41.6694C9.84584 41.7476 9.83228 41.8259 9.81485 41.9041C9.73581 42.2288 9.62988 42.5463 9.49815 42.8535C9.48169 42.8951 9.46426 42.9356 9.44779 42.9772C9.42358 43.0361 9.49912 42.8574 9.46329 42.9414L9.43326 43.009C9.39259 43.1056 9.35094 43.1935 9.30736 43.2853C9.22601 43.4591 9.13885 43.631 9.04975 43.802C8.85605 44.1719 8.64589 44.5341 8.42798 44.8905C7.9912 45.6042 7.51761 46.2968 7.02465 46.9738C6.80449 47.2771 6.57851 47.5771 6.34672 47.874L6.26246 47.9841C6.18982 48.0807 6.32928 47.8972 6.25568 47.9928L6.10169 48.1975C6.0113 48.3115 5.92091 48.4251 5.83052 48.5385C5.60292 48.8224 5.37339 49.1045 5.13708 49.3817C5.1274 49.3942 5.11675 49.4058 5.10609 49.4184H5.79081C5.62423 49.2252 5.46346 49.032 5.30657 48.8321C5.13095 48.617 4.95727 48.4 4.78553 48.1811L4.63929 47.9879C4.56665 47.8914 4.70611 48.0758 4.63154 47.9793L4.54244 47.8759C4.43009 47.7291 4.31775 47.5804 4.20638 47.4316C3.23015 46.1268 2.28394 44.764 1.59148 43.2872C1.54499 43.1906 1.49947 43.0892 1.45589 42.9887L1.42684 42.9202C1.48882 43.0593 1.45105 42.9781 1.43749 42.9453C1.41618 42.8931 1.39488 42.841 1.37454 42.7888C1.30481 42.6111 1.24089 42.4315 1.18665 42.2479C1.13631 42.082 1.09556 41.9134 1.06463 41.7428C1.06463 41.7148 1.03751 41.5651 1.05203 41.6723C1.06656 41.7795 1.05203 41.6337 1.04526 41.6057C1.03848 41.5284 1.0346 41.4511 1.0346 41.3729C1.03285 41.2454 0.981267 41.1235 0.890832 41.0333C0.800397 40.9432 0.678245 40.8917 0.550362 40.89C0.422043 40.8907 0.299088 40.9414 0.20772 41.0313C0.116353 41.1211 0.0638032 41.243 0.0612793 41.371Z" fill="#121711"/>
<path d="M22.203 41.9097H18.892V47.0027H18.111V41.2167H22.203V41.9097ZM22.8926 47.0577C22.7312 47.0577 22.5919 46.999 22.4746 46.8817C22.3646 46.7644 22.3096 46.6214 22.3096 46.4527C22.3096 46.284 22.3646 46.1447 22.4746 46.0347C22.5919 45.9174 22.7312 45.8587 22.8926 45.8587C23.0539 45.8587 23.1932 45.9174 23.3106 46.0347C23.4279 46.1447 23.4866 46.284 23.4866 46.4527C23.4866 46.6214 23.4279 46.7644 23.3106 46.8817C23.1932 46.999 23.0539 47.0577 22.8926 47.0577ZM36.2315 39.3027V47.0027H35.4505V40.8427L32.4255 46.0237H32.0405L29.0155 40.8757V47.0027H28.2345V39.3027H28.9055L32.2495 45.0117L35.5605 39.3027H36.2315ZM41.0263 47.0577C40.469 47.0577 39.9667 46.933 39.5193 46.6837C39.072 46.427 38.72 46.075 38.4633 45.6277C38.2067 45.1804 38.0783 44.6744 38.0783 44.1097C38.0783 43.545 38.2067 43.039 38.4633 42.5917C38.72 42.1444 39.072 41.796 39.5193 41.5467C39.9667 41.2974 40.469 41.1727 41.0263 41.1727C41.5837 41.1727 42.086 41.2974 42.5333 41.5467C42.9807 41.796 43.329 42.1444 43.5783 42.5917C43.835 43.039 43.9633 43.545 43.9633 44.1097C43.9633 44.6744 43.835 45.1804 43.5783 45.6277C43.329 46.075 42.9807 46.427 42.5333 46.6837C42.086 46.933 41.5837 47.0577 41.0263 47.0577ZM41.0263 46.3647C41.437 46.3647 41.8037 46.273 42.1263 46.0897C42.4563 45.899 42.713 45.6314 42.8963 45.2867C43.0797 44.942 43.1713 44.5497 43.1713 44.1097C43.1713 43.6697 43.0797 43.2774 42.8963 42.9327C42.713 42.588 42.4563 42.324 42.1263 42.1407C41.8037 41.95 41.437 41.8547 41.0263 41.8547C40.6157 41.8547 40.2453 41.95 39.9153 42.1407C39.5927 42.324 39.336 42.588 39.1453 42.9327C38.962 43.2774 38.8703 43.6697 38.8703 44.1097C38.8703 44.5497 38.962 44.942 39.1453 45.2867C39.336 45.6314 39.5927 45.899 39.9153 46.0897C40.2453 46.273 40.6157 46.3647 41.0263 46.3647ZM48.0525 47.0577C47.4805 47.0577 46.9672 46.933 46.5125 46.6837C46.0652 46.4344 45.7132 46.086 45.4565 45.6387C45.1998 45.184 45.0715 44.6744 45.0715 44.1097C45.0715 43.545 45.1998 43.039 45.4565 42.5917C45.7132 42.1444 46.0652 41.796 46.5125 41.5467C46.9672 41.2974 47.4805 41.1727 48.0525 41.1727C48.5512 41.1727 48.9948 41.2717 49.3835 41.4697C49.7795 41.6604 50.0912 41.9427 50.3185 42.3167L49.7355 42.7127C49.5448 42.4267 49.3028 42.214 49.0095 42.0747C48.7162 41.928 48.3972 41.8547 48.0525 41.8547C47.6345 41.8547 47.2568 41.95 46.9195 42.1407C46.5895 42.324 46.3292 42.588 46.1385 42.9327C45.9552 43.2774 45.8635 43.6697 45.8635 44.1097C45.8635 44.557 45.9552 44.953 46.1385 45.2977C46.3292 45.635 46.5895 45.899 46.9195 46.0897C47.2568 46.273 47.6345 46.3647 48.0525 46.3647C48.3972 46.3647 48.7162 46.295 49.0095 46.1557C49.3028 46.0164 49.5448 45.8037 49.7355 45.5177L50.3185 45.9137C50.0912 46.2877 49.7795 46.5737 49.3835 46.7717C48.9875 46.9624 48.5438 47.0577 48.0525 47.0577ZM53.9317 44.4287H52.6117V47.0027H51.8307V41.2167H52.6117V43.7577H53.9427L55.9777 41.2167H56.8247L54.5477 44.0217L56.9897 47.0027H56.0657L53.9317 44.4287ZM61.9073 44.0107C62.692 44.194 63.0843 44.667 63.0843 45.4297C63.0843 45.9357 62.8973 46.3244 62.5233 46.5957C62.1493 46.867 61.592 47.0027 60.8513 47.0027H58.2223V41.2167H60.7743C61.4343 41.2167 61.9513 41.345 62.3253 41.6017C62.6993 41.8584 62.8863 42.225 62.8863 42.7017C62.8863 43.017 62.7983 43.2884 62.6223 43.5157C62.4537 43.7357 62.2153 43.9007 61.9073 44.0107ZM58.9813 43.7907H60.7193C61.1667 43.7907 61.5077 43.7064 61.7423 43.5377C61.9843 43.369 62.1053 43.1234 62.1053 42.8007C62.1053 42.478 61.9843 42.236 61.7423 42.0747C61.5077 41.9134 61.1667 41.8327 60.7193 41.8327H58.9813V43.7907ZM60.8183 46.3867C61.317 46.3867 61.691 46.306 61.9403 46.1447C62.1897 45.9834 62.3143 45.7304 62.3143 45.3857C62.3143 45.041 62.2007 44.788 61.9733 44.6267C61.746 44.458 61.3867 44.3737 60.8953 44.3737H58.9813V46.3867H60.8183ZM66.9057 41.1727C67.661 41.1727 68.2404 41.3634 68.6437 41.7447C69.047 42.1187 69.2487 42.676 69.2487 43.4167V47.0027H68.5007V46.1007C68.3247 46.4014 68.0644 46.636 67.7197 46.8047C67.3824 46.9734 66.979 47.0577 66.5097 47.0577C65.8644 47.0577 65.351 46.9037 64.9697 46.5957C64.5884 46.2877 64.3977 45.8807 64.3977 45.3747C64.3977 44.8834 64.5737 44.4874 64.9257 44.1867C65.285 43.886 65.8534 43.7357 66.6307 43.7357H68.4677V43.3837C68.4677 42.885 68.3284 42.5074 68.0497 42.2507C67.771 41.9867 67.364 41.8547 66.8287 41.8547C66.462 41.8547 66.11 41.917 65.7727 42.0417C65.4354 42.159 65.1457 42.324 64.9037 42.5367L64.5517 41.9537C64.845 41.7044 65.197 41.5137 65.6077 41.3817C66.0184 41.2424 66.451 41.1727 66.9057 41.1727ZM66.6307 46.4417C67.0707 46.4417 67.4484 46.3427 67.7637 46.1447C68.079 45.9394 68.3137 45.646 68.4677 45.2647V44.3187H66.6527C65.6627 44.3187 65.1677 44.6634 65.1677 45.3527C65.1677 45.69 65.296 45.9577 65.5527 46.1557C65.8094 46.3464 66.1687 46.4417 66.6307 46.4417Z" fill="#121711"/>
<path d="M7.4314 27.8402C7.16229 27.938 6.8848 28.011 6.60238 28.0585C6.53781 28.0701 6.47325 28.0807 6.40868 28.0904L6.32055 28.1039L6.37091 28.0971L6.30408 28.1049C6.14235 28.1242 5.98061 28.1367 5.81985 28.1435C5.65908 28.1503 5.47313 28.1503 5.2988 28.1435C5.21067 28.1435 5.12157 28.1338 5.03247 28.1251C4.98695 28.1251 4.9424 28.1164 4.89688 28.1107C4.87848 28.1107 4.80004 28.1 4.87558 28.1107C4.95112 28.1213 4.85233 28.1107 4.83587 28.1049C4.63316 28.0732 4.43238 28.0303 4.23444 27.9764C4.13759 27.9503 4.04075 27.9204 3.9439 27.8875C3.89451 27.8711 3.84705 27.8537 3.79863 27.8364L3.72599 27.8083C3.7134 27.8035 3.61268 27.761 3.67466 27.7881C3.73664 27.8151 3.65529 27.7794 3.64173 27.7726L3.5691 27.7398C3.5197 27.7166 3.47225 27.6934 3.42382 27.6693C3.31826 27.6161 3.2156 27.5601 3.11585 27.4993C3.01609 27.4384 2.92215 27.3785 2.8253 27.3138C2.78463 27.2849 2.74395 27.2559 2.70424 27.2259C2.63161 27.1738 2.70424 27.2259 2.71296 27.2337C2.6822 27.2127 2.65306 27.1895 2.6258 27.1641C2.46858 27.036 2.31978 26.8979 2.1803 26.7507C2.1125 26.6802 2.04761 26.6078 1.9866 26.5334L1.90525 26.4368C1.84811 26.3673 1.90525 26.4368 1.91396 26.4484C1.88882 26.4217 1.86674 26.3922 1.84811 26.3605C1.73009 26.1989 1.62206 26.0302 1.52463 25.8554C1.47815 25.7711 1.4336 25.6851 1.39098 25.5975C1.36968 25.5541 1.34934 25.5096 1.32997 25.4662L1.31835 25.4401C1.3474 25.5067 1.30673 25.4102 1.30092 25.3976C1.22432 25.2057 1.15964 25.0092 1.10722 24.8094C1.08301 24.7128 1.06073 24.6162 1.04233 24.5245C1.03265 24.4772 1.02393 24.4279 1.01521 24.3806C1.01521 24.3564 1.00843 24.3323 1.00359 24.3081C0.989065 24.2115 1.01037 24.3719 1.00359 24.3081C0.957274 23.9152 0.955 23.5184 0.996813 23.125C0.996813 23.1028 0.996813 23.0815 1.00456 23.0603C1.01231 22.9965 0.985191 23.0603 0.999718 23.0912C0.989065 23.0651 1.01521 22.9946 1.02006 22.9608C1.03652 22.8642 1.05492 22.7676 1.07526 22.6778C1.11851 22.4873 1.17218 22.2993 1.23603 22.1147C1.26896 22.0181 1.30092 21.9215 1.34256 21.8365C1.29414 21.9418 1.35709 21.8066 1.37065 21.7776C1.39486 21.7245 1.42004 21.6723 1.44619 21.6202C1.54651 21.4201 1.6594 21.2266 1.78419 21.0407C1.84811 20.9441 1.91493 20.8523 1.98563 20.7606C1.9343 20.8272 1.98563 20.7664 1.99144 20.7548L2.04761 20.6853C2.09604 20.6263 2.14446 20.5684 2.19676 20.5124C2.33488 20.3571 2.48237 20.2103 2.63839 20.0729L2.75073 19.9763L2.80787 19.93C2.82046 19.9203 2.88244 19.8701 2.83111 19.9107C2.77979 19.9512 2.84274 19.902 2.85533 19.8933C2.86792 19.8846 2.89407 19.8633 2.9144 19.8498C2.95895 19.817 3.0035 19.7861 3.04902 19.7532C3.22012 19.6381 3.398 19.5332 3.58169 19.4393C3.66788 19.3949 3.75504 19.3553 3.84318 19.3157C3.86545 19.3051 3.92453 19.2732 3.82768 19.3215C3.84899 19.3109 3.87223 19.3031 3.89451 19.2944C3.94487 19.2742 3.99135 19.2548 4.04656 19.2375C4.23264 19.1698 4.42285 19.114 4.61602 19.0704C4.71287 19.0482 4.80391 19.0298 4.89882 19.0144C4.92206 19.0095 4.94628 19.0066 4.96952 19.0028C5.05862 18.9873 4.96274 19.0028 4.94821 19.0028C5.00729 19.0028 5.0683 18.9883 5.12738 18.9825C5.32053 18.9646 5.51458 18.9585 5.70847 18.9641C5.80532 18.9641 5.90217 18.9719 5.99901 18.9805L6.14429 18.996C6.24113 19.0066 6.13073 18.996 6.12395 18.996C6.15947 19.0051 6.1958 19.0106 6.23242 19.0124C6.43314 19.0454 6.63146 19.0915 6.8261 19.1505C6.92294 19.1785 7.01011 19.2095 7.10114 19.2471L7.22802 19.2964L7.25029 19.3051C7.18056 19.2771 7.27547 19.3157 7.28903 19.3215C7.47958 19.403 7.6652 19.4956 7.84494 19.5987C8.03317 19.7091 8.21519 19.8297 8.39019 19.9599C8.40085 19.9676 8.47058 20.0208 8.42409 19.985C8.3776 19.9493 8.44733 20.0034 8.45799 20.0121C8.50254 20.0478 8.54709 20.0835 8.59067 20.1202C8.68752 20.2014 8.78436 20.2844 8.87346 20.3694C9.00324 20.4911 9.13205 20.6157 9.2502 20.75C9.28216 20.7857 9.31219 20.8234 9.34705 20.8601C9.41194 20.9393 9.29185 20.7857 9.32671 20.833L9.37417 20.8987C9.48863 21.0578 9.58908 21.2265 9.6744 21.4029C9.69474 21.4454 9.7141 21.4888 9.73444 21.5323C9.77415 21.6183 9.68505 21.4106 9.71992 21.4985C9.7296 21.5236 9.74025 21.5478 9.74994 21.5729C9.78577 21.6695 9.8187 21.766 9.84679 21.8626C9.90374 22.0512 9.9487 22.2431 9.98141 22.4373C9.98915 22.4846 9.99496 22.5339 10.0027 22.5793C9.96978 22.3784 10.0027 22.5793 10.0076 22.6285C10.0182 22.7251 10.025 22.8217 10.0308 22.9241C10.0405 23.123 10.0405 23.323 10.0308 23.5219C10.0263 23.6159 10.0195 23.7096 10.0105 23.803C10.0066 23.8494 10.0017 23.8957 9.99593 23.9421L9.98722 24.0107C9.97463 24.1179 10.0066 23.8783 9.98722 23.9846C9.936 24.345 9.85403 24.7005 9.74219 25.047C9.71604 25.1262 9.68892 25.2035 9.65987 25.2807C9.64534 25.3165 9.63082 25.3522 9.61726 25.3889C9.58045 25.4797 9.64437 25.3464 9.63856 25.3387C9.63114 25.3607 9.62174 25.3821 9.61048 25.4024C9.55365 25.533 9.48897 25.6601 9.41678 25.783C9.38385 25.838 9.34899 25.8911 9.31219 25.9433C9.29475 25.9674 9.22696 26.0573 9.29475 25.9694C9.36255 25.8815 9.29475 25.9694 9.27345 25.9926C9.23766 26.0331 9.19984 26.0718 9.16013 26.1085C9.16013 26.1085 9.1059 26.1529 9.10687 26.1539C9.10784 26.1548 9.23471 26.0573 9.17079 26.1036L9.14076 26.1249C9.12333 26.1355 9.10493 26.1471 9.08653 26.1568C8.97578 26.2075 8.88921 26.2993 8.84518 26.4127C8.80115 26.526 8.80312 26.652 8.85068 26.7639C8.89824 26.8758 8.98764 26.9649 9.09993 27.0122C9.21222 27.0595 9.33856 27.0613 9.45216 27.0172C9.56576 26.9731 9.65769 26.8867 9.70844 26.7762C9.7592 26.6657 9.76479 26.5398 9.72403 26.4252C9.68327 26.3106 9.59937 26.2164 9.49013 26.1625C9.38088 26.1086 9.25487 26.0993 9.13883 26.1365C9.12043 26.1413 9.10299 26.1481 9.08556 26.1539C8.98096 26.1867 9.19403 26.1539 9.14754 26.1481C9.13012 26.1471 9.11267 26.1471 9.09525 26.1481C9.00808 26.1529 9.23664 26.1848 9.16207 26.1568C9.14543 26.1502 9.12826 26.145 9.11074 26.1413C9.2318 26.1654 9.23277 26.2002 9.16691 26.1616C9.10106 26.1229 9.08943 26.0776 9.20953 26.1993C9.19403 26.1838 9.17466 26.1703 9.1582 26.1548C9.14173 26.1394 9.12721 26.1201 9.11171 26.1027C9.05748 26.0447 9.17757 26.1993 9.15917 26.1645C9.15142 26.1519 9.14173 26.1403 9.13398 26.1287C9.09794 26.0777 9.06558 26.0241 9.03714 25.9684L9.0168 25.924C8.97903 25.8458 9.05941 26.0322 9.04101 25.9819C9.02261 25.9317 9.01293 25.9105 9.00033 25.8738C8.94028 25.7002 8.89365 25.5223 8.86087 25.3416C8.83957 25.2324 8.8231 25.1223 8.80664 25.0122C8.80846 25.0336 8.81137 25.0549 8.81535 25.076L8.81342 25.0258C8.81342 24.9958 8.80567 24.9649 8.80276 24.935C8.79502 24.8683 8.78824 24.8017 8.78243 24.7341C8.72715 24.0595 8.71292 23.3821 8.73981 22.7058C8.7524 22.2683 8.77662 21.8365 8.80664 21.3952C8.80664 21.2671 8.75562 21.1442 8.66481 21.0537C8.57399 20.9631 8.45083 20.9122 8.3224 20.9122C8.19497 20.9154 8.07365 20.9673 7.98352 21.0572C7.89339 21.1471 7.84135 21.2681 7.83816 21.3952C7.77908 22.2461 7.74131 23.1008 7.76746 23.9537C7.7741 24.5346 7.83244 25.1138 7.94179 25.6845C8.01345 26.0186 8.11611 26.3808 8.32337 26.658C8.53062 26.9352 8.8018 27.1361 9.14948 27.1071C9.79352 27.054 10.1983 26.4253 10.4385 25.8902C10.7728 25.1324 10.9605 24.3184 10.9915 23.491C11.0312 22.5909 10.8831 21.6685 10.4724 20.8601C10.2059 20.3661 9.84807 19.927 9.41775 19.5658C8.70689 18.9371 7.8769 18.4319 6.95394 18.1808C5.18355 17.6979 3.27371 18.2059 1.91784 19.4219C0.561965 20.6379 -0.19345 22.5339 0.0447965 24.3574C0.290791 26.2108 1.47234 27.876 3.20785 28.6274C4.55584 29.1905 6.0583 29.2684 7.45755 28.8476C7.53502 28.8244 7.61153 28.8012 7.68708 28.7723C7.92242 28.6815 8.11127 28.4429 8.02507 28.1783C7.9505 27.9494 7.68223 27.7436 7.42946 27.8402H7.4314Z" fill="#121711"/>
<path d="M2.38561 23.5983C2.38576 24.2471 2.58583 24.8802 2.95873 25.4118C3.33163 25.9434 3.85935 26.3479 4.47042 26.5705C5.0815 26.7931 5.7464 26.8231 6.3751 26.6563C7.00381 26.4895 7.56593 26.1341 7.98536 25.6381C8.41483 25.1217 8.67362 24.4854 8.72625 23.8166C8.77334 23.1679 8.61734 22.5206 8.27978 21.9641C7.9349 21.4044 7.42592 20.9639 6.82172 20.7021C6.21753 20.4404 5.54729 20.3702 4.90172 20.5008C3.66304 20.7481 2.62967 21.8067 2.435 23.0536C2.40498 23.2337 2.38847 23.4157 2.38561 23.5983C2.38561 23.7264 2.43663 23.8492 2.52744 23.9398C2.61825 24.0303 2.74142 24.0812 2.86985 24.0812C2.99828 24.0812 3.12145 24.0303 3.21226 23.9398C3.30307 23.8492 3.35409 23.7264 3.35409 23.5983C3.35409 23.5307 3.35409 23.4631 3.36087 23.3964C3.36087 23.3626 3.36765 23.3298 3.37055 23.2998C3.34925 23.4109 3.38121 23.1839 3.37055 23.2998C3.39357 23.1613 3.42593 23.0245 3.4674 22.8903C3.48193 22.8478 3.5013 22.7387 3.5352 22.7097L3.51098 22.7667L3.53713 22.7087C3.55069 22.6798 3.56522 22.6508 3.57975 22.6228C3.63646 22.5101 3.70119 22.4017 3.77344 22.2983C3.787 22.2799 3.80928 22.2336 3.82961 22.222L3.79281 22.2703C3.8054 22.2538 3.81896 22.2374 3.83252 22.222C3.8732 22.1737 3.91581 22.1254 3.95939 22.0819C4.00297 22.0385 4.04849 21.9921 4.09498 21.9506L4.16665 21.8888L4.21604 21.8482C4.1589 21.8916 4.15115 21.8974 4.19279 21.8665C4.28591 21.7967 4.38291 21.7322 4.48334 21.6734C4.53854 21.6425 4.59471 21.6135 4.65282 21.5864L4.68188 21.5729C4.72933 21.5517 4.72062 21.5555 4.65379 21.5835C4.67316 21.5613 4.75064 21.5478 4.77388 21.5381C4.89623 21.4947 5.02147 21.4599 5.14868 21.4338L5.24553 21.4165C5.33754 21.4 5.21648 21.4165 5.21454 21.4165C5.24747 21.3855 5.40243 21.3991 5.44795 21.3971C5.58276 21.3936 5.71766 21.3987 5.8518 21.4126C5.74043 21.3913 5.96802 21.4222 5.8518 21.4126L5.94865 21.43C6.02322 21.4454 6.0978 21.4638 6.17043 21.4841C6.24307 21.5043 6.29343 21.5227 6.35444 21.5449L6.41449 21.5681C6.31764 21.5198 6.52005 21.6077 6.41449 21.5681C6.53888 21.627 6.65952 21.6934 6.77573 21.7671C6.81641 21.7941 6.90648 21.8347 6.93069 21.8762L6.88226 21.8395L6.93166 21.8801L7.00332 21.9419C7.09687 22.0263 7.18455 22.117 7.26578 22.2133L7.28612 22.2374C7.31808 22.278 7.31227 22.2693 7.26869 22.2133C7.28903 22.2249 7.3113 22.2712 7.32486 22.2896C7.36166 22.3417 7.39653 22.3939 7.42946 22.448C7.46238 22.5021 7.49338 22.5581 7.5263 22.6141C7.54083 22.6421 7.55439 22.6711 7.56795 22.7001C7.58151 22.729 7.58635 22.7387 7.59507 22.758C7.56698 22.6914 7.56311 22.6817 7.58344 22.731C7.62642 22.8407 7.66264 22.9529 7.69191 23.0671C7.70838 23.1308 7.72194 23.1946 7.73356 23.2602L7.7384 23.2921C7.74712 23.3462 7.74518 23.3356 7.7384 23.2622C7.75487 23.2834 7.74905 23.3665 7.75099 23.3945C7.76165 23.5289 7.76165 23.6639 7.75099 23.7982C7.75099 23.8311 7.74518 23.8639 7.74228 23.8948C7.73162 24.0107 7.76261 23.7837 7.74228 23.8948C7.72969 23.9643 7.71709 24.0339 7.69966 24.1025C7.66941 24.2224 7.63189 24.3405 7.58732 24.456C7.54761 24.5603 7.63477 24.3594 7.58732 24.456L7.54664 24.5419C7.51275 24.6076 7.47691 24.6733 7.43914 24.7351C7.40137 24.7969 7.37135 24.8423 7.33455 24.8935C7.32099 24.9118 7.29871 24.9582 7.27837 24.9698L7.31518 24.9215C7.30259 24.9379 7.28903 24.9543 7.27547 24.9698C7.19424 25.0661 7.10655 25.1567 7.01301 25.2412L6.94134 25.304L6.91713 25.3233C6.87645 25.3561 6.8842 25.3503 6.94037 25.3069C6.91616 25.3484 6.82609 25.3899 6.78542 25.416C6.66921 25.4897 6.54857 25.5561 6.42417 25.615C6.32733 25.6642 6.5278 25.5773 6.42417 25.615L6.36413 25.6381C6.30311 25.6604 6.2421 25.6806 6.18012 25.699C6.11813 25.7173 6.05421 25.7328 5.98642 25.7463L5.88957 25.7647L5.82468 25.7753C5.89829 25.7656 5.90894 25.7647 5.85471 25.7705C5.72056 25.7843 5.58566 25.7895 5.45085 25.7859C5.38403 25.7859 5.3172 25.7772 5.25038 25.7705C5.18355 25.7637 5.27071 25.783 5.2804 25.7753C5.26781 25.7859 5.16902 25.756 5.15062 25.7531C5.0024 25.723 4.85695 25.6807 4.71577 25.6266L4.68575 25.615C4.63733 25.5957 4.64604 25.5995 4.71287 25.6266C4.69834 25.6333 4.61602 25.5812 4.59762 25.5725C4.53305 25.5396 4.46849 25.5039 4.40392 25.4653C4.34969 25.4324 4.29642 25.3986 4.24509 25.3619C4.21698 25.3471 4.1912 25.3282 4.16858 25.3059C4.22475 25.3494 4.2325 25.3552 4.19183 25.3223C4.17536 25.3098 4.15987 25.2962 4.1434 25.2818C4.03175 25.186 3.9281 25.0814 3.83349 24.9688L3.81315 24.9447C3.78119 24.9051 3.787 24.9128 3.83058 24.9688C3.8025 24.9524 3.77441 24.8925 3.75601 24.8664C3.71437 24.8056 3.67466 24.7438 3.63786 24.68C3.60105 24.6163 3.57587 24.568 3.54876 24.511C3.54294 24.5004 3.50324 24.4347 3.50808 24.4251L3.5197 24.4521L3.49646 24.3922C3.44677 24.2526 3.40855 24.1092 3.38218 23.9634C3.37286 23.932 3.36733 23.8995 3.36571 23.8668C3.3754 23.9412 3.37733 23.9508 3.36571 23.8967C3.36571 23.8755 3.36571 23.8533 3.35893 23.8311C3.35215 23.7528 3.34925 23.6746 3.34925 23.5964C3.34925 23.4683 3.29823 23.3454 3.20742 23.2549C3.11661 23.1643 2.99344 23.1134 2.86501 23.1134C2.73658 23.1134 2.61341 23.1643 2.5226 23.2549C2.43179 23.3454 2.38077 23.4683 2.38077 23.5964L2.38561 23.5983Z" fill="#121711"/>
<path d="M23.303 22.214V28H22.555V26.944C22.3497 27.296 22.0673 27.571 21.708 27.769C21.3487 27.9597 20.938 28.055 20.476 28.055C19.7207 28.055 19.123 27.846 18.683 27.428C18.2503 27.0027 18.034 26.383 18.034 25.569V22.214H18.815V25.492C18.815 26.1007 18.9653 26.5627 19.266 26.878C19.5667 27.1933 19.9957 27.351 20.553 27.351C21.1617 27.351 21.642 27.1677 21.994 26.801C22.346 26.427 22.522 25.91 22.522 25.25V22.214H23.303ZM28.4384 22.17C29.1644 22.17 29.74 22.3827 30.1654 22.808C30.598 23.226 30.8144 23.8383 30.8144 24.645V28H30.0334V24.722C30.0334 24.1207 29.883 23.6623 29.5824 23.347C29.2817 23.0317 28.8527 22.874 28.2954 22.874C27.672 22.874 27.177 23.061 26.8104 23.435C26.451 23.8017 26.2714 24.3113 26.2714 24.964V28H25.4904V22.214H26.2384V23.281C26.451 22.929 26.7444 22.6577 27.1184 22.467C27.4997 22.269 27.9397 22.17 28.4384 22.17ZM32.9347 22.214H33.7157V28H32.9347V22.214ZM33.3307 20.949C33.1694 20.949 33.0337 20.894 32.9237 20.784C32.8137 20.674 32.7587 20.542 32.7587 20.388C32.7587 20.2413 32.8137 20.113 32.9237 20.003C33.0337 19.893 33.1694 19.838 33.3307 19.838C33.492 19.838 33.6277 19.893 33.7377 20.003C33.8477 20.1057 33.9027 20.2303 33.9027 20.377C33.9027 20.5383 33.8477 20.674 33.7377 20.784C33.6277 20.894 33.492 20.949 33.3307 20.949ZM40.7508 22.214L38.1768 28H37.3738L34.8108 22.214H35.6248L37.7918 27.142L39.9808 22.214H40.7508ZM46.7276 25.349H41.8876C41.9316 25.9503 42.1626 26.438 42.5806 26.812C42.9986 27.1787 43.5266 27.362 44.1646 27.362C44.5239 27.362 44.8539 27.2997 45.1546 27.175C45.4553 27.043 45.7156 26.8523 45.9356 26.603L46.3756 27.109C46.1189 27.417 45.7963 27.6517 45.4076 27.813C45.0263 27.9743 44.6046 28.055 44.1426 28.055C43.5486 28.055 43.0206 27.9303 42.5586 27.681C42.1039 27.4243 41.7483 27.0723 41.4916 26.625C41.2349 26.1777 41.1066 25.6717 41.1066 25.107C41.1066 24.5423 41.2276 24.0363 41.4696 23.589C41.7189 23.1417 42.0563 22.7933 42.4816 22.544C42.9143 22.2947 43.3983 22.17 43.9336 22.17C44.4689 22.17 44.9493 22.2947 45.3746 22.544C45.7999 22.7933 46.1336 23.1417 46.3756 23.589C46.6176 24.029 46.7386 24.535 46.7386 25.107L46.7276 25.349ZM43.9336 22.841C43.3763 22.841 42.9069 23.0207 42.5256 23.38C42.1516 23.732 41.9389 24.194 41.8876 24.766H45.9906C45.9393 24.194 45.7229 23.732 45.3416 23.38C44.9676 23.0207 44.4983 22.841 43.9336 22.841ZM49.0763 23.347C49.2596 22.9583 49.5309 22.665 49.8903 22.467C50.2569 22.269 50.7079 22.17 51.2433 22.17V22.929L51.0563 22.918C50.4476 22.918 49.9709 23.105 49.6263 23.479C49.2816 23.853 49.1093 24.3773 49.1093 25.052V28H48.3283V22.214H49.0763V23.347ZM58.1922 27.296V28H52.7472V20.3H58.0272V21.004H53.5612V23.743H57.5432V24.436H53.5612V27.296H58.1922ZM65.4856 24.15H66.2666V27.087C65.9073 27.4023 65.4819 27.6443 64.9906 27.813C64.4993 27.9817 63.9823 28.066 63.4396 28.066C62.6696 28.066 61.9766 27.8973 61.3606 27.56C60.7446 27.2227 60.2606 26.757 59.9086 26.163C59.5566 25.5617 59.3806 24.8907 59.3806 24.15C59.3806 23.4093 59.5566 22.742 59.9086 22.148C60.2606 21.5467 60.7446 21.0773 61.3606 20.74C61.9766 20.4027 62.6733 20.234 63.4506 20.234C64.0373 20.234 64.5763 20.3293 65.0676 20.52C65.5589 20.7033 65.9733 20.9783 66.3106 21.345L65.8046 21.862C65.1959 21.2607 64.4223 20.96 63.4836 20.96C62.8603 20.96 62.2956 21.0993 61.7896 21.378C61.2909 21.6493 60.8986 22.0307 60.6126 22.522C60.3266 23.006 60.1836 23.5487 60.1836 24.15C60.1836 24.7513 60.3266 25.294 60.6126 25.778C60.8986 26.262 61.2909 26.6433 61.7896 26.922C62.2883 27.2007 62.8493 27.34 63.4726 27.34C64.2646 27.34 64.9356 27.142 65.4856 26.746V24.15ZM75.0054 20.3V28H74.3344L69.3844 21.752V28H68.5704V20.3H69.2414L74.2024 26.548V20.3H75.0054ZM81.9736 20.234C82.9563 20.234 83.8326 20.4393 84.6026 20.85C85.38 21.2533 85.985 21.8253 86.4176 22.566C86.8503 23.2993 87.0666 24.139 87.0666 25.085C87.0666 26.0163 86.9053 26.746 86.5826 27.274C86.26 27.7947 85.8126 28.055 85.2406 28.055C84.8813 28.055 84.588 27.9487 84.3606 27.736C84.1406 27.5233 84.0196 27.23 83.9976 26.856C83.7776 27.2373 83.477 27.5343 83.0956 27.747C82.7143 27.9523 82.2816 28.055 81.7976 28.055C81.2843 28.055 80.8186 27.934 80.4006 27.692C79.99 27.4427 79.6636 27.1017 79.4216 26.669C79.187 26.2363 79.0696 25.7487 79.0696 25.206C79.0696 24.6633 79.187 24.1793 79.4216 23.754C79.6636 23.3213 79.99 22.984 80.4006 22.742C80.8186 22.5 81.2843 22.379 81.7976 22.379C82.267 22.379 82.6886 22.4817 83.0626 22.687C83.444 22.885 83.7483 23.1673 83.9756 23.534V22.423H84.6906V26.592C84.6906 26.8853 84.753 27.098 84.8776 27.23C85.0023 27.362 85.1673 27.428 85.3726 27.428C85.7173 27.428 85.9886 27.2227 86.1866 26.812C86.392 26.4013 86.4946 25.8293 86.4946 25.096C86.4946 24.2453 86.304 23.4973 85.9226 22.852C85.5413 22.1993 85.006 21.6933 84.3166 21.334C83.6346 20.9747 82.8536 20.795 81.9736 20.795C81.0863 20.795 80.298 20.982 79.6086 21.356C78.9266 21.7227 78.395 22.2433 78.0136 22.918C77.6323 23.5853 77.4416 24.348 77.4416 25.206C77.4416 26.064 77.6286 26.8303 78.0026 27.505C78.384 28.1797 78.912 28.704 79.5866 29.078C80.2686 29.452 81.0496 29.639 81.9296 29.639C82.2743 29.639 82.6336 29.5987 83.0076 29.518C83.389 29.4373 83.7336 29.3163 84.0416 29.155L84.2286 29.694C83.9133 29.8553 83.5466 29.98 83.1286 30.068C82.718 30.156 82.3183 30.2 81.9296 30.2C80.9323 30.2 80.0486 29.9873 79.2786 29.562C78.5086 29.1367 77.9073 28.5463 77.4746 27.791C77.0493 27.0283 76.8366 26.1667 76.8366 25.206C76.8366 24.238 77.053 23.38 77.4856 22.632C77.9183 21.8767 78.5233 21.29 79.3006 20.872C80.0853 20.4467 80.9763 20.234 81.9736 20.234ZM81.8966 27.417C82.2926 27.417 82.6483 27.3253 82.9636 27.142C83.279 26.9587 83.5283 26.702 83.7116 26.372C83.895 26.0347 83.9866 25.646 83.9866 25.206C83.9866 24.7733 83.895 24.392 83.7116 24.062C83.5283 23.7247 83.279 23.468 82.9636 23.292C82.6483 23.1087 82.2926 23.017 81.8966 23.017C81.4933 23.017 81.1303 23.1087 80.8076 23.292C80.4923 23.4753 80.243 23.732 80.0596 24.062C79.8836 24.392 79.7956 24.7733 79.7956 25.206C79.7956 25.6387 79.8836 26.0237 80.0596 26.361C80.243 26.691 80.4923 26.9513 80.8076 27.142C81.1303 27.3253 81.4933 27.417 81.8966 27.417ZM95.9349 22.17C96.6609 22.17 97.2292 22.379 97.6399 22.797C98.0579 23.215 98.2669 23.831 98.2669 24.645V28H97.4859V24.722C97.4859 24.1207 97.3392 23.6623 97.0459 23.347C96.7599 23.0317 96.3529 22.874 95.8249 22.874C95.2236 22.874 94.7506 23.061 94.4059 23.435C94.0612 23.8017 93.8889 24.3113 93.8889 24.964V28H93.1079V24.722C93.1079 24.1207 92.9612 23.6623 92.6679 23.347C92.3819 23.0317 91.9712 22.874 91.4359 22.874C90.8419 22.874 90.3689 23.061 90.0169 23.435C89.6722 23.8017 89.4999 24.3113 89.4999 24.964V28H88.7189V22.214H89.4669V23.27C89.6722 22.918 89.9582 22.6467 90.3249 22.456C90.6915 22.2653 91.1132 22.17 91.5899 22.17C92.0739 22.17 92.4919 22.2727 92.8439 22.478C93.2032 22.6833 93.4709 22.9877 93.6469 23.391C93.8595 23.0097 94.1639 22.7127 94.5599 22.5C94.9632 22.28 95.4216 22.17 95.9349 22.17ZM102.409 22.17C103.164 22.17 103.744 22.3607 104.147 22.742C104.55 23.116 104.752 23.6733 104.752 24.414V28H104.004V27.098C103.828 27.3987 103.568 27.6333 103.223 27.802C102.886 27.9707 102.482 28.055 102.013 28.055C101.368 28.055 100.854 27.901 100.473 27.593C100.092 27.285 99.9009 26.878 99.9009 26.372C99.9009 25.8807 100.077 25.4847 100.429 25.184C100.788 24.8833 101.357 24.733 102.134 24.733H103.971V24.381C103.971 23.8823 103.832 23.5047 103.553 23.248C103.274 22.984 102.867 22.852 102.332 22.852C101.965 22.852 101.613 22.9143 101.276 23.039C100.939 23.1563 100.649 23.3213 100.407 23.534L100.055 22.951C100.348 22.7017 100.7 22.511 101.111 22.379C101.522 22.2397 101.954 22.17 102.409 22.17ZM102.134 27.439C102.574 27.439 102.952 27.34 103.267 27.142C103.582 26.9367 103.817 26.6433 103.971 26.262V25.316H102.156C101.166 25.316 100.671 25.6607 100.671 26.35C100.671 26.6873 100.799 26.955 101.056 27.153C101.313 27.3437 101.672 27.439 102.134 27.439ZM106.873 22.214H107.654V28H106.873V22.214ZM107.269 20.949C107.108 20.949 106.972 20.894 106.862 20.784C106.752 20.674 106.697 20.542 106.697 20.388C106.697 20.2413 106.752 20.113 106.862 20.003C106.972 19.893 107.108 19.838 107.269 19.838C107.431 19.838 107.566 19.893 107.676 20.003C107.786 20.1057 107.841 20.2303 107.841 20.377C107.841 20.5383 107.786 20.674 107.676 20.784C107.566 20.894 107.431 20.949 107.269 20.949ZM109.827 19.838H110.608V28H109.827V19.838ZM112.858 28.055C112.697 28.055 112.558 27.9963 112.44 27.879C112.33 27.7617 112.275 27.6187 112.275 27.45C112.275 27.2813 112.33 27.142 112.44 27.032C112.558 26.9147 112.697 26.856 112.858 26.856C113.02 26.856 113.159 26.9147 113.276 27.032C113.394 27.142 113.452 27.2813 113.452 27.45C113.452 27.6187 113.394 27.7617 113.276 27.879C113.159 27.9963 113.02 28.055 112.858 28.055ZM115.86 23.347C116.044 22.9583 116.315 22.665 116.674 22.467C117.041 22.269 117.492 22.17 118.027 22.17V22.929L117.84 22.918C117.232 22.918 116.755 23.105 116.41 23.479C116.066 23.853 115.893 24.3773 115.893 25.052V28H115.112V22.214H115.86V23.347ZM124.741 22.214V28H123.993V26.944C123.788 27.296 123.506 27.571 123.146 27.769C122.787 27.9597 122.376 28.055 121.914 28.055C121.159 28.055 120.561 27.846 120.121 27.428C119.689 27.0027 119.472 26.383 119.472 25.569V22.214H120.253V25.492C120.253 26.1007 120.404 26.5627 120.704 26.878C121.005 27.1933 121.434 27.351 121.991 27.351C122.6 27.351 123.08 27.1677 123.432 26.801C123.784 26.427 123.96 25.91 123.96 25.25V22.214H124.741Z" fill="#121711"/>
<path d="M22.555 6.48H20.509V8.482H19.816V6.48H17.77V5.831H19.816V3.818H20.509V5.831H22.555V6.48ZM29.2257 2.3V2.861L26.0027 10H25.1447L28.3127 3.004H24.3527V4.445H23.5717V2.3H29.2257ZM35.5462 2.234C36.5655 2.234 37.3465 2.57133 37.8892 3.246C38.4318 3.91333 38.7032 4.85933 38.7032 6.084C38.7032 6.942 38.5565 7.668 38.2632 8.262C37.9698 8.856 37.5592 9.307 37.0312 9.615C36.5032 9.91567 35.8872 10.066 35.1832 10.066C34.4205 10.066 33.8118 9.92667 33.3572 9.648L33.6762 9.01C34.0428 9.252 34.5415 9.373 35.1722 9.373C36.0228 9.373 36.6902 9.10533 37.1742 8.57C37.6582 8.02733 37.9002 7.24267 37.9002 6.216C37.9002 6.02533 37.8892 5.81633 37.8672 5.589C37.6765 6.007 37.3722 6.33333 36.9542 6.568C36.5362 6.79533 36.0558 6.909 35.5132 6.909C35.0072 6.909 34.5562 6.81367 34.1602 6.623C33.7715 6.43233 33.4672 6.16467 33.2472 5.82C33.0272 5.468 32.9172 5.061 32.9172 4.599C32.9172 4.12967 33.0308 3.71533 33.2582 3.356C33.4855 2.99667 33.7972 2.72167 34.1932 2.531C34.5965 2.333 35.0475 2.234 35.5462 2.234ZM35.6342 6.238C36.0228 6.238 36.3638 6.16467 36.6572 6.018C36.9578 5.87133 37.1925 5.66967 37.3612 5.413C37.5298 5.15633 37.6142 4.87033 37.6142 4.555C37.6142 4.26167 37.5335 3.99033 37.3722 3.741C37.2182 3.49167 36.9872 3.29 36.6792 3.136C36.3712 2.982 36.0045 2.905 35.5792 2.905C35.0218 2.905 34.5672 3.059 34.2152 3.367C33.8705 3.66767 33.6982 4.071 33.6982 4.577C33.6982 5.083 33.8705 5.48633 34.2152 5.787C34.5672 6.08767 35.0402 6.238 35.6342 6.238ZM42.2493 2.234C43.2686 2.234 44.0496 2.57133 44.5923 3.246C45.135 3.91333 45.4063 4.85933 45.4063 6.084C45.4063 6.942 45.2596 7.668 44.9663 8.262C44.673 8.856 44.2623 9.307 43.7343 9.615C43.2063 9.91567 42.5903 10.066 41.8863 10.066C41.1236 10.066 40.515 9.92667 40.0603 9.648L40.3793 9.01C40.746 9.252 41.2446 9.373 41.8753 9.373C42.726 9.373 43.3933 9.10533 43.8773 8.57C44.3613 8.02733 44.6033 7.24267 44.6033 6.216C44.6033 6.02533 44.5923 5.81633 44.5703 5.589C44.3796 6.007 44.0753 6.33333 43.6573 6.568C43.2393 6.79533 42.759 6.909 42.2163 6.909C41.7103 6.909 41.2593 6.81367 40.8633 6.623C40.4746 6.43233 40.1703 6.16467 39.9503 5.82C39.7303 5.468 39.6203 5.061 39.6203 4.599C39.6203 4.12967 39.734 3.71533 39.9613 3.356C40.1886 2.99667 40.5003 2.72167 40.8963 2.531C41.2996 2.333 41.7506 2.234 42.2493 2.234ZM42.3373 6.238C42.726 6.238 43.067 6.16467 43.3603 6.018C43.661 5.87133 43.8956 5.66967 44.0643 5.413C44.233 5.15633 44.3173 4.87033 44.3173 4.555C44.3173 4.26167 44.2366 3.99033 44.0753 3.741C43.9213 3.49167 43.6903 3.29 43.3823 3.136C43.0743 2.982 42.7076 2.905 42.2823 2.905C41.725 2.905 41.2703 3.059 40.9183 3.367C40.5736 3.66767 40.4013 4.071 40.4013 4.577C40.4013 5.083 40.5736 5.48633 40.9183 5.787C41.2703 6.08767 41.7433 6.238 42.3373 6.238ZM48.9524 2.234C49.9718 2.234 50.7528 2.57133 51.2954 3.246C51.8381 3.91333 52.1094 4.85933 52.1094 6.084C52.1094 6.942 51.9628 7.668 51.6694 8.262C51.3761 8.856 50.9654 9.307 50.4374 9.615C49.9094 9.91567 49.2934 10.066 48.5894 10.066C47.8268 10.066 47.2181 9.92667 46.7634 9.648L47.0824 9.01C47.4491 9.252 47.9478 9.373 48.5784 9.373C49.4291 9.373 50.0964 9.10533 50.5804 8.57C51.0644 8.02733 51.3064 7.24267 51.3064 6.216C51.3064 6.02533 51.2954 5.81633 51.2734 5.589C51.0828 6.007 50.7784 6.33333 50.3604 6.568C49.9424 6.79533 49.4621 6.909 48.9194 6.909C48.4134 6.909 47.9624 6.81367 47.5664 6.623C47.1778 6.43233 46.8734 6.16467 46.6534 5.82C46.4334 5.468 46.3234 5.061 46.3234 4.599C46.3234 4.12967 46.4371 3.71533 46.6644 3.356C46.8918 2.99667 47.2034 2.72167 47.5994 2.531C48.0028 2.333 48.4538 2.234 48.9524 2.234ZM49.0404 6.238C49.4291 6.238 49.7701 6.16467 50.0634 6.018C50.3641 5.87133 50.5988 5.66967 50.7674 5.413C50.9361 5.15633 51.0204 4.87033 51.0204 4.555C51.0204 4.26167 50.9398 3.99033 50.7784 3.741C50.6244 3.49167 50.3934 3.29 50.0854 3.136C49.7774 2.982 49.4108 2.905 48.9854 2.905C48.4281 2.905 47.9734 3.059 47.6214 3.367C47.2768 3.66767 47.1044 4.071 47.1044 4.577C47.1044 5.083 47.2768 5.48633 47.6214 5.787C47.9734 6.08767 48.4464 6.238 49.0404 6.238ZM59.3265 5.391C59.8325 5.391 60.2798 5.48633 60.6685 5.677C61.0645 5.86767 61.3725 6.139 61.5925 6.491C61.8125 6.83567 61.9225 7.239 61.9225 7.701C61.9225 8.17033 61.8088 8.58467 61.5815 8.944C61.3541 9.30333 61.0388 9.582 60.6355 9.78C60.2395 9.97067 59.7921 10.066 59.2935 10.066C58.2741 10.066 57.4931 9.73233 56.9505 9.065C56.4078 8.39033 56.1365 7.44067 56.1365 6.216C56.1365 5.358 56.2831 4.632 56.5765 4.038C56.8698 3.444 57.2805 2.99667 57.8085 2.696C58.3365 2.388 58.9525 2.234 59.6565 2.234C60.4191 2.234 61.0278 2.37333 61.4825 2.652L61.1635 3.29C60.7968 3.048 60.2981 2.927 59.6675 2.927C58.8168 2.927 58.1495 3.19833 57.6655 3.741C57.1815 4.27633 56.9395 5.05733 56.9395 6.084C56.9395 6.26733 56.9505 6.47633 56.9725 6.711C57.1631 6.293 57.4675 5.97033 57.8855 5.743C58.3035 5.50833 58.7838 5.391 59.3265 5.391ZM59.2605 9.395C59.8178 9.395 60.2688 9.24467 60.6135 8.944C60.9655 8.636 61.1415 8.229 61.1415 7.723C61.1415 7.217 60.9655 6.81367 60.6135 6.513C60.2688 6.21233 59.7995 6.062 59.2055 6.062C58.8168 6.062 58.4721 6.13533 58.1715 6.282C57.8781 6.42867 57.6471 6.63033 57.4785 6.887C57.3098 7.14367 57.2255 7.42967 57.2255 7.745C57.2255 8.03833 57.3025 8.30967 57.4565 8.559C57.6178 8.80833 57.8525 9.01 58.1605 9.164C58.4685 9.318 58.8351 9.395 59.2605 9.395ZM66.0296 5.391C66.5356 5.391 66.9829 5.48633 67.3716 5.677C67.7676 5.86767 68.0756 6.139 68.2956 6.491C68.5156 6.83567 68.6256 7.239 68.6256 7.701C68.6256 8.17033 68.5119 8.58467 68.2846 8.944C68.0572 9.30333 67.7419 9.582 67.3386 9.78C66.9426 9.97067 66.4952 10.066 65.9966 10.066C64.9772 10.066 64.1962 9.73233 63.6536 9.065C63.1109 8.39033 62.8396 7.44067 62.8396 6.216C62.8396 5.358 62.9862 4.632 63.2796 4.038C63.5729 3.444 63.9836 2.99667 64.5116 2.696C65.0396 2.388 65.6556 2.234 66.3596 2.234C67.1222 2.234 67.7309 2.37333 68.1856 2.652L67.8666 3.29C67.4999 3.048 67.0012 2.927 66.3706 2.927C65.5199 2.927 64.8526 3.19833 64.3686 3.741C63.8846 4.27633 63.6426 5.05733 63.6426 6.084C63.6426 6.26733 63.6536 6.47633 63.6756 6.711C63.8662 6.293 64.1706 5.97033 64.5886 5.743C65.0066 5.50833 65.4869 5.391 66.0296 5.391ZM65.9636 9.395C66.5209 9.395 66.9719 9.24467 67.3166 8.944C67.6686 8.636 67.8446 8.229 67.8446 7.723C67.8446 7.217 67.6686 6.81367 67.3166 6.513C66.9719 6.21233 66.5026 6.062 65.9086 6.062C65.5199 6.062 65.1752 6.13533 64.8746 6.282C64.5812 6.42867 64.3502 6.63033 64.1816 6.887C64.0129 7.14367 63.9286 7.42967 63.9286 7.745C63.9286 8.03833 64.0056 8.30967 64.1596 8.559C64.3209 8.80833 64.5556 9.01 64.8636 9.164C65.1716 9.318 65.5382 9.395 65.9636 9.395ZM74.4456 5.457C75.5603 5.457 76.3706 5.65867 76.8766 6.062C77.3899 6.458 77.6466 7.01533 77.6466 7.734C77.6466 8.18133 77.5403 8.581 77.3276 8.933C77.1223 9.285 76.8106 9.56367 76.3926 9.769C75.9746 9.967 75.4613 10.066 74.8526 10.066C74.3026 10.066 73.7783 9.978 73.2796 9.802C72.7883 9.61867 72.3923 9.37667 72.0916 9.076L72.4766 8.449C72.7333 8.713 73.0706 8.92933 73.4886 9.098C73.9066 9.25933 74.3576 9.34 74.8416 9.34C75.4796 9.34 75.9709 9.197 76.3156 8.911C76.6676 8.625 76.8436 8.24367 76.8436 7.767C76.8436 7.239 76.6456 6.83933 76.2496 6.568C75.8609 6.29667 75.2009 6.161 74.2696 6.161H72.6306L73.0266 2.3H77.2396V3.004H73.7196L73.4556 5.457H74.4456ZM80.6224 5.457C81.737 5.457 82.5474 5.65867 83.0534 6.062C83.5667 6.458 83.8234 7.01533 83.8234 7.734C83.8234 8.18133 83.717 8.581 83.5044 8.933C83.299 9.285 82.9874 9.56367 82.5694 9.769C82.1514 9.967 81.638 10.066 81.0294 10.066C80.4794 10.066 79.955 9.978 79.4564 9.802C78.965 9.61867 78.569 9.37667 78.2684 9.076L78.6534 8.449C78.91 8.713 79.2474 8.92933 79.6654 9.098C80.0834 9.25933 80.5344 9.34 81.0184 9.34C81.6564 9.34 82.1477 9.197 82.4924 8.911C82.8444 8.625 83.0204 8.24367 83.0204 7.767C83.0204 7.239 82.8224 6.83933 82.4264 6.568C82.0377 6.29667 81.3777 6.161 80.4464 6.161H78.8074L79.2034 2.3H83.4164V3.004H79.8964L79.6324 5.457H80.6224Z" fill="#121711"/>
<path d="M3.09938 1.29382C2.9636 1.16364 2.79536 1.07206 2.61212 1.02859C2.42889 0.985111 2.23732 0.991318 2.0573 1.04657C1.86689 1.11889 1.68502 1.21185 1.51495 1.32376C1.13189 1.5425 0.788451 1.82395 0.499015 2.15632C0.182322 2.54266 -0.0491451 3.01109 0.00896369 3.52299C0.0552498 3.85771 0.144096 4.18519 0.273359 4.49752C0.590522 5.29863 0.997617 6.06135 1.48686 6.77111C2.06084 7.6291 2.73692 8.41457 3.50034 9.11038C3.93852 9.49353 4.40078 9.8484 4.88429 10.1728C5.32592 10.477 5.7782 10.7678 6.24501 11.0324C6.62055 11.2449 7.00865 11.4346 7.40719 11.6003C7.65601 11.7094 7.91572 11.792 8.18197 11.8466C8.41303 11.9022 8.65402 11.9022 8.88509 11.8466C9.20953 11.7452 9.49135 11.4893 9.73541 11.2671C10.0439 10.9903 10.3151 10.6747 10.5422 10.3283C10.7436 10.0144 10.9199 9.5991 10.7911 9.22435C10.6942 8.94039 10.4647 8.71825 10.241 8.52798C9.94953 8.28343 9.64039 8.06068 9.31606 7.86155C9.00622 7.66838 8.68251 7.49825 8.34758 7.35255C8.02895 7.21733 7.69579 7.08598 7.34423 7.07825C7.18106 7.07423 7.0197 7.11321 6.87646 7.19125L7.12052 7.12461C6.77864 7.11495 6.50262 7.41436 6.37382 7.70412C6.31149 7.83866 6.26283 7.97908 6.22854 8.12329C6.21762 8.15767 6.20953 8.19288 6.20433 8.22857C6.19852 8.30487 6.276 8.10204 6.22661 8.17448C6.14622 8.29425 6.31571 8.08562 6.23339 8.16772C6.16753 8.2334 6.33024 8.10977 6.28375 8.13102C6.26601 8.13952 6.24886 8.1492 6.23242 8.15999C6.17625 8.19766 6.38157 8.1146 6.28181 8.13875L6.22467 8.1542C6.12782 8.18221 6.33411 8.14647 6.27891 8.1542C6.25179 8.1542 6.22467 8.1542 6.19852 8.1542C6.17466 8.15567 6.15072 8.15567 6.12685 8.1542C6.07165 8.1542 5.99611 8.11846 6.16463 8.16193C6.10555 8.14647 6.04453 8.14068 5.98546 8.12426C5.92638 8.10784 5.8673 8.08659 5.80919 8.06534C5.70266 8.02671 5.92154 8.11846 5.81404 8.06534L5.69975 8.00932C5.55215 7.93247 5.41095 7.84398 5.2775 7.74468C5.17387 7.66838 5.35304 7.8065 5.24941 7.72247L5.14385 7.63458C5.06249 7.56407 4.98308 7.49066 4.90754 7.41533C4.832 7.33999 4.7613 7.2608 4.69157 7.1787C4.65476 7.13813 4.61796 7.09564 4.5831 7.05314C4.5647 7.03189 4.54629 7.00968 4.52886 6.98746L4.49593 6.94786C4.4643 6.90665 4.46817 6.91148 4.50756 6.96235C4.44138 6.85998 4.3696 6.76131 4.29255 6.6668C4.21249 6.5509 4.13534 6.43178 4.06109 6.30944C3.98942 6.18968 3.92162 6.06895 3.85577 5.94628C3.81492 5.88653 3.78234 5.82156 3.75892 5.75312C3.77345 5.86805 3.77732 5.78789 3.75892 5.75312C3.7289 5.66522 3.75892 5.85743 3.75892 5.76084C3.75892 5.66426 3.72696 5.84197 3.75214 5.78595C3.76068 5.76307 3.76716 5.73947 3.77151 5.71545C3.79379 5.75601 3.71437 5.81203 3.7657 5.73863C3.80444 5.68744 3.67757 5.82072 3.75117 5.75505C3.82478 5.68937 3.74633 5.75505 3.74342 5.75505C3.74052 5.75505 3.79475 5.71641 3.79669 5.72607L3.73858 5.75118C3.75882 5.74425 3.77954 5.73876 3.80056 5.73476L3.87611 5.71835C4.09764 5.67386 4.30927 5.58977 4.50078 5.47012C4.63209 5.39062 4.74256 5.2811 4.82305 5.15061C4.90355 5.02012 4.95176 4.8724 4.96371 4.71966C4.97824 4.46468 4.85137 4.23674 4.74774 4.0117C4.53564 3.55293 4.31483 3.09705 4.0698 2.65952C3.79863 2.1766 3.49452 1.69368 3.10132 1.30734C3.00978 1.2182 2.88691 1.1683 2.75896 1.1683C2.63102 1.1683 2.50815 1.2182 2.41661 1.30734C2.3279 1.39899 2.27833 1.52139 2.27833 1.64877C2.27833 1.77614 2.3279 1.89855 2.41661 1.99019C2.5307 2.08163 2.63029 2.18974 2.71199 2.31085C2.71199 2.3012 2.64517 2.22103 2.69553 2.28961L2.72458 2.3292C2.74783 2.36011 2.7701 2.39198 2.79238 2.42579C2.84467 2.50016 2.896 2.57646 2.9454 2.65373C3.13909 2.95121 3.30955 3.26221 3.47322 3.57611C3.61558 3.85137 3.7502 4.1305 3.88095 4.41156L3.96036 4.58541L3.99426 4.65785C3.99426 4.66751 4.00298 4.67717 4.00782 4.68779C4.03687 4.75057 3.99232 4.61342 3.99717 4.66751C3.99913 4.68743 4.00402 4.70696 4.01169 4.72546C4.03009 4.76892 3.9991 4.67041 4.00298 4.66461C4.00685 4.65882 4.00298 4.71097 4.00298 4.7158C4.00298 4.72063 4.02428 4.58638 4.00298 4.65978C3.98167 4.73319 4.05431 4.5632 4.0146 4.63081C3.97489 4.69842 4.04462 4.59507 4.04946 4.59121C4.0338 4.6049 4.01952 4.62011 4.00685 4.6366C3.94003 4.70807 4.08433 4.59121 4.01557 4.6366C3.98942 4.65302 3.96327 4.67041 3.93615 4.68489C3.90636 4.6975 3.87726 4.71169 3.84899 4.72739C3.92453 4.6733 3.9284 4.69648 3.88676 4.71001L3.8209 4.73319C3.65239 4.7722 3.48697 4.82353 3.32601 4.88675C3.12324 4.99318 2.96354 5.16616 2.8739 5.37646C2.78426 5.58676 2.77017 5.82148 2.83402 6.04094C2.91273 6.25845 3.01571 6.46644 3.14103 6.66101C3.23917 6.83293 3.34409 7.00066 3.45579 7.16421C3.66447 7.4732 3.89904 7.76399 4.15697 8.03347C4.5441 8.4485 5.0165 8.77532 5.54189 8.99158C5.91282 9.13743 6.3622 9.18475 6.72538 8.99158C6.91706 8.8879 7.06185 8.71518 7.1302 8.50866C7.14376 8.46617 7.23673 8.12233 7.24061 8.12233C7.24448 8.12233 7.18734 8.23147 7.22608 8.1571L7.24351 8.12136C7.25707 8.09625 7.2716 8.07307 7.28613 8.04892C7.30065 8.02478 7.30453 8.02671 7.30937 8.01512C7.30937 8.01512 7.22414 8.1117 7.26869 8.0692C7.28594 8.05667 7.30127 8.0417 7.31421 8.02478C7.30646 8.03926 7.19509 8.10784 7.26288 8.06727C7.27303 8.0606 7.28372 8.05479 7.29484 8.04989C7.29484 8.04989 7.15151 8.10687 7.21252 8.08659C7.24835 8.075 7.38297 8.04602 7.11567 8.09915C7.20278 8.08791 7.28806 8.06551 7.36941 8.0325C7.43333 8.00256 7.28225 8.05665 7.29968 8.06051C7.31796 8.05783 7.33584 8.05296 7.35295 8.04602C7.40041 8.02767 7.20768 8.05472 7.28322 8.05568C7.29968 8.05568 7.31712 8.05568 7.33358 8.05568C7.35005 8.05568 7.505 8.07114 7.3975 8.05568C7.29 8.04023 7.3791 8.05568 7.3975 8.05568L7.47111 8.07114C7.5205 8.08273 7.56795 8.09721 7.61831 8.1117C7.72775 8.14551 7.83429 8.18704 7.94082 8.22953C7.99505 8.25078 7.83816 8.18414 7.89239 8.20925L7.92726 8.22374L8.00764 8.26044C8.07059 8.28942 8.13355 8.31936 8.19553 8.35123C8.43542 8.47148 8.66912 8.60364 8.89574 8.74723C9.00905 8.8187 9.12043 8.8921 9.22987 8.96937L9.38482 9.08141L9.45358 9.13356C9.45358 9.13356 9.35674 9.05533 9.41194 9.10266L9.44971 9.13163C9.60564 9.25719 9.73444 9.4011 9.87778 9.53825C9.85744 9.51797 9.80127 9.42718 9.84195 9.49286L9.86809 9.53149C9.87488 9.54616 9.88265 9.56035 9.89134 9.57399C9.89909 9.58364 9.92814 9.66091 9.87584 9.53632C9.83613 9.43973 9.85938 9.49575 9.86616 9.51893C9.89037 9.60586 9.86616 9.43008 9.86616 9.46291C9.86616 9.49575 9.86616 9.50445 9.86616 9.52376C9.86616 9.61455 9.87972 9.46388 9.87487 9.4774C9.86519 9.50541 9.86228 9.53632 9.85357 9.56433C9.84485 9.59234 9.83807 9.61165 9.83032 9.63483C9.79933 9.72562 9.87681 9.53825 9.84001 9.61262C9.80999 9.6696 9.7819 9.72756 9.74897 9.78357C9.71604 9.83959 9.68408 9.88692 9.65212 9.93714L9.59692 10.0144C9.53494 10.1004 9.65503 9.9439 9.58723 10.027C9.41075 10.2458 9.21639 10.4496 9.00615 10.6364C8.9616 10.676 8.91608 10.7156 8.87056 10.7533C8.8541 10.7658 8.81536 10.7871 8.8047 10.8064C8.83182 10.7571 8.89187 10.7407 8.84828 10.7726L8.80373 10.8045C8.72886 10.8561 8.65092 10.9032 8.57033 10.9455C8.50641 10.9812 8.70979 10.9059 8.6081 10.9281C8.58583 10.9281 8.56161 10.9358 8.54031 10.9416C8.71367 10.8943 8.64781 10.93 8.58002 10.932C8.54999 10.932 8.52094 10.932 8.49092 10.932C8.46089 10.932 8.33983 10.9146 8.4483 10.932C8.55677 10.9493 8.42409 10.932 8.39407 10.9204C8.30845 10.9035 8.22376 10.8822 8.14033 10.8566C8.04348 10.8267 7.94663 10.7929 7.84978 10.76C7.79845 10.7417 7.74809 10.7214 7.6987 10.7011C7.58732 10.6557 7.76552 10.7301 7.6987 10.7011L7.60185 10.6596C7.33068 10.5379 7.06531 10.4017 6.80576 10.2568C6.10448 9.85798 5.42996 9.41404 4.78648 8.92784L4.68091 8.84864C4.75742 8.90659 4.67413 8.84284 4.64508 8.81966C4.56663 8.75688 4.48915 8.69314 4.41168 8.6265C4.27318 8.50866 4.13663 8.38697 4.00395 8.26237C3.73148 8.00482 3.47322 7.73502 3.22916 7.453C3.10713 7.31488 2.98995 7.17387 2.8747 7.02996C2.84758 6.99712 2.82143 6.96332 2.79528 6.93337C2.7856 6.92082 2.73717 6.85804 2.77785 6.91019C2.81853 6.96235 2.77785 6.91019 2.77107 6.90247C2.71296 6.82617 2.65582 6.74986 2.59965 6.6726C2.39562 6.39443 2.20193 6.10822 2.01856 5.81396C1.85521 5.54932 1.70154 5.27856 1.55756 5.00169C1.493 4.87291 1.42843 4.74413 1.36387 4.61535C1.33481 4.55354 1.30673 4.49076 1.27961 4.42798C1.2738 4.41639 1.26896 4.40383 1.26411 4.39128C1.24184 4.34395 1.28929 4.45213 1.28639 4.44633C1.27283 4.41059 1.25733 4.37486 1.24281 4.33912C1.15547 4.12756 1.0814 3.9108 1.02103 3.69008C1.0094 3.64661 0.998751 3.60315 0.989066 3.55872C0.984223 3.53747 0.979381 3.51719 0.975507 3.49594C0.971633 3.47469 0.970665 3.47276 0.968728 3.46117C0.953232 3.38873 0.98035 3.48435 0.968728 3.49787C0.973279 3.45647 0.973279 3.41469 0.968728 3.37328C0.968728 3.33948 0.974539 3.30471 0.974539 3.2709C0.974539 3.22068 0.966791 3.32595 0.965822 3.32692C0.971588 3.30873 0.975164 3.28993 0.976476 3.2709C0.985192 3.23323 0.994877 3.19556 1.0065 3.15886C1.01231 3.14051 1.01909 3.12313 1.0249 3.10478C1.03943 3.05745 1.05783 3.08353 1.00844 3.13955C1.02655 3.11065 1.04149 3.07989 1.05299 3.04779C1.08762 2.98083 1.12677 2.91629 1.17017 2.85462C1.18323 2.83961 1.1949 2.82344 1.20504 2.80633C1.20504 2.80633 1.14209 2.88263 1.17598 2.84496C1.20988 2.8073 1.22053 2.78991 1.24474 2.76383C1.29898 2.70299 1.35612 2.64504 1.4152 2.58902C1.47427 2.533 1.52173 2.49243 1.57693 2.44704L1.62439 2.4084C1.66797 2.37363 1.64957 2.41613 1.59824 2.42869C1.62826 2.42096 1.66991 2.37557 1.69509 2.35721C1.81034 2.27512 1.92849 2.19882 2.05052 2.12638C2.14737 2.06939 2.251 2.024 2.34106 1.96412C2.39433 1.92935 2.31201 1.97474 2.31201 1.97377C2.31201 1.97281 2.38174 1.96122 2.38271 1.95446C2.38271 1.96218 2.28586 1.95446 2.343 1.96025C2.36334 1.96025 2.43985 1.94963 2.36721 1.96025C2.29458 1.97088 2.35365 1.96025 2.37302 1.96025C2.45244 1.96025 2.37302 1.94963 2.3585 1.9477C2.38045 1.9577 2.4018 1.96899 2.42242 1.9815C2.42242 1.9815 2.33332 1.9052 2.41079 1.97474C2.59868 2.14376 2.91247 2.1737 3.09551 1.97474C3.27855 1.77578 3.29889 1.47443 3.09938 1.29382Z" fill="#121711"/>
</svg>
