<svg width="18" height="19" viewBox="0 0 18 19" fill="none" xmlns="http://www.w3.org/2000/svg">
<path d="M8.1976 0.662292H9.51145C9.70375 0.687923 9.89605 0.711475 10.0876 0.73953C11.6984 0.974014 13.1484 1.58707 14.4096 2.61783C16.1126 4.00983 17.1794 5.78595 17.5699 7.95657C17.6257 8.26587 17.6613 8.58002 17.7064 8.88966V10.1341C17.6953 10.1837 17.6814 10.2325 17.6735 10.2827C17.6042 10.7132 17.5619 11.1503 17.4625 11.5736C16.4459 15.9079 12.1994 19.0293 7.38927 18.2448C5.62742 17.9573 4.07831 17.2005 2.79357 15.9588C0.541453 13.7844 -0.342069 11.123 0.125678 8.03624C0.389002 6.2906 1.16512 4.77009 2.37398 3.4806C3.7696 1.99196 5.47774 1.07792 7.50222 0.763775C7.73367 0.727754 7.96581 0.696928 8.1976 0.662292ZM14.1778 15.2044C16.4462 13.1346 17.4001 9.65199 16.0402 6.45581C15.36 4.85529 14.1644 3.52779 12.6433 2.6841C11.1222 1.84041 9.36273 1.5289 7.64428 1.79904C4.3399 2.30991 1.47383 4.99799 1.083 8.72618C0.909761 10.3825 1.25278 11.9418 2.07947 13.3892C2.46542 14.0716 2.95757 14.6882 3.53746 15.2159C4.07 13.5243 5.13507 12.3411 6.73165 11.6259C4.74459 10.2557 4.51418 7.68399 5.81383 6.03568C7.13253 4.36416 9.51145 4.04828 11.1811 5.32911C12.0345 5.98407 12.558 6.84962 12.6776 7.91744C12.8508 9.47604 12.2428 10.7049 10.9833 11.6297C12.6932 12.47 13.331 13.1848 14.1778 15.2044ZM8.84795 17.3311C9.02604 17.3193 9.20413 17.3078 9.38222 17.2964C10.7498 17.2105 12.0006 16.7769 13.1471 16.0333C13.2326 15.9779 13.2635 15.9214 13.2427 15.823C12.7334 13.4269 10.4629 11.8777 8.06421 12.3345C6.15234 12.6992 4.96218 13.8866 4.47746 15.7756C4.44281 15.9103 4.47919 15.9803 4.59387 16.0527C5.88936 16.8902 7.30923 17.3044 8.84795 17.3311ZM8.8528 5.5965C8.29773 5.5965 7.75512 5.76104 7.2936 6.06931C6.83208 6.37758 6.47236 6.81574 6.25995 7.32837C6.04753 7.84101 5.99195 8.4051 6.10024 8.94932C6.20853 9.49353 6.47582 9.99342 6.86831 10.3858C7.26081 10.7781 7.76088 11.0453 8.30528 11.1536C8.84968 11.2618 9.41397 11.2063 9.92679 10.9939C10.4396 10.7816 10.8779 10.422 11.1863 9.96064C11.4947 9.49928 11.6593 8.95686 11.6593 8.40199C11.6608 8.03314 11.5892 7.66765 11.4487 7.32659C11.3082 6.98553 11.1016 6.67565 10.8407 6.41484C10.5797 6.15402 10.2698 5.94743 9.92858 5.80697C9.5874 5.66652 9.22177 5.59499 8.8528 5.5965Z" fill="#121711"/>
</svg>
