<svg width="22" height="28" viewBox="0 0 22 28" fill="none" xmlns="http://www.w3.org/2000/svg">
<path d="M11.25 14C12.6345 14 13.9878 13.5895 15.139 12.8203C16.2901 12.0511 17.1873 10.9579 17.7172 9.67879C18.247 8.3997 18.3856 6.99224 18.1155 5.63437C17.8454 4.2765 17.1787 3.02922 16.1997 2.05026C15.2208 1.07129 13.9735 0.404603 12.6156 0.134506C11.2578 -0.13559 9.8503 0.003033 8.57122 0.532846C7.29213 1.06266 6.19888 1.95987 5.42971 3.11101C4.66054 4.26216 4.25 5.61553 4.25 7C4.25185 8.85595 4.98995 10.6354 6.3023 11.9477C7.61465 13.2601 9.39405 13.9981 11.25 14ZM11.25 2.33334C12.173 2.33334 13.0752 2.60703 13.8427 3.11981C14.6101 3.63259 15.2082 4.36143 15.5614 5.21415C15.9146 6.06687 16.0071 7.00518 15.827 7.91042C15.6469 8.81567 15.2025 9.64719 14.5498 10.2998C13.8972 10.9525 13.0657 11.3969 12.1604 11.577C11.2552 11.7571 10.3169 11.6646 9.46414 11.3114C8.61142 10.9582 7.88259 10.3601 7.36981 9.59266C6.85703 8.82523 6.58333 7.92298 6.58333 7C6.58333 5.76233 7.075 4.57534 7.95017 3.70017C8.82534 2.825 10.0123 2.33334 11.25 2.33334Z" fill="#526937"/>
<path d="M11.25 16.3334C8.46617 16.3365 5.79725 17.4437 3.82879 19.4122C1.86033 21.3806 0.753088 24.0495 0.75 26.8334C0.75 27.1428 0.872916 27.4395 1.09171 27.6583C1.3105 27.8771 1.60725 28 1.91667 28C2.22609 28 2.52283 27.8771 2.74162 27.6583C2.96042 27.4395 3.08333 27.1428 3.08333 26.8334C3.08333 24.6674 3.94375 22.5902 5.47529 21.0587C7.00684 19.5271 9.08407 18.6667 11.25 18.6667C13.4159 18.6667 15.4932 19.5271 17.0247 21.0587C18.5563 22.5902 19.4167 24.6674 19.4167 26.8334C19.4167 27.1428 19.5396 27.4395 19.7584 27.6583C19.9772 27.8771 20.2739 28 20.5833 28C20.8928 28 21.1895 27.8771 21.4083 27.6583C21.6271 27.4395 21.75 27.1428 21.75 26.8334C21.7469 24.0495 20.6397 21.3806 18.6712 19.4122C16.7027 17.4437 14.0338 16.3365 11.25 16.3334Z" fill="#526937"/>
</svg>
