<svg width="28" height="28" viewBox="0 0 28 28" fill="none" xmlns="http://www.w3.org/2000/svg">
<path d="M24.5 2.33333H21V0H18.6667V2.33333H9.33333V0H7V2.33333H3.5C2.57174 2.33333 1.6815 2.70208 1.02513 3.35846C0.368749 4.01484 0 4.90508 0 5.83333L0 28H28V5.83333C28 4.90508 27.6313 4.01484 26.9749 3.35846C26.3185 2.70208 25.4283 2.33333 24.5 2.33333ZM2.33333 5.83333C2.33333 5.52391 2.45625 5.22717 2.67504 5.00838C2.89383 4.78958 3.19058 4.66667 3.5 4.66667H24.5C24.8094 4.66667 25.1062 4.78958 25.325 5.00838C25.5438 5.22717 25.6667 5.52391 25.6667 5.83333V9.33333H2.33333V5.83333ZM2.33333 25.6667V11.6667H25.6667V25.6667H2.33333Z" fill="#526937"/>
<path d="M19.8333 15.1667H17.5V17.5H19.8333V15.1667Z" fill="#526937"/>
<path d="M15.1666 15.1667H12.8333V17.5H15.1666V15.1667Z" fill="#526937"/>
<path d="M10.5001 15.1667H8.16675V17.5H10.5001V15.1667Z" fill="#526937"/>
<path d="M19.8333 19.8333H17.5V22.1666H19.8333V19.8333Z" fill="#526937"/>
<path d="M15.1666 19.8333H12.8333V22.1666H15.1666V19.8333Z" fill="#526937"/>
<path d="M10.5001 19.8333H8.16675V22.1666H10.5001V19.8333Z" fill="#526937"/>
</svg>
