<svg width="13" height="13" viewBox="0 0 13 13" fill="none" xmlns="http://www.w3.org/2000/svg">
<path d="M7.03195 0.543424C7.03195 0.399529 7.08911 0.261527 7.19086 0.159778C7.29261 0.0580286 7.43061 0.000866447 7.5745 0.000866447C9.01295 0.00244616 10.392 0.574575 11.4092 1.59173C12.4263 2.60888 12.9984 3.98798 13 5.42645C13 5.57034 12.9428 5.70834 12.8411 5.81009C12.7393 5.91184 12.6013 5.969 12.4574 5.969C12.3136 5.969 12.1756 5.91184 12.0738 5.81009C11.9721 5.70834 11.9149 5.57034 11.9149 5.42645C11.9136 4.27568 11.4559 3.17242 10.6422 2.3587C9.8285 1.54499 8.72525 1.08727 7.5745 1.08598C7.43061 1.08598 7.29261 1.02882 7.19086 0.927071C7.08911 0.825321 7.03195 0.68732 7.03195 0.543424ZM7.5745 3.25621C8.15007 3.25621 8.70207 3.48486 9.10906 3.89186C9.51605 4.29886 9.7447 4.85086 9.7447 5.42645C9.7447 5.57034 9.80186 5.70834 9.90361 5.81009C10.0054 5.91184 10.1434 5.969 10.2872 5.969C10.4311 5.969 10.5691 5.91184 10.6709 5.81009C10.7726 5.70834 10.8298 5.57034 10.8298 5.42645C10.8289 4.56334 10.4857 3.73583 9.87539 3.12552C9.26509 2.51521 8.43759 2.17196 7.5745 2.1711C7.43061 2.1711 7.29261 2.22826 7.19086 2.33001C7.08911 2.43176 7.03195 2.56976 7.03195 2.71366C7.03195 2.85755 7.08911 2.99555 7.19086 3.0973C7.29261 3.19905 7.43061 3.25621 7.5745 3.25621ZM12.5079 9.08274C12.8223 9.39803 12.9989 9.82513 12.9989 10.2704C12.9989 10.7157 12.8223 11.1428 12.5079 11.4581L12.0142 12.0272C7.5707 16.2814 -3.24232 5.47093 0.946166 1.01328L1.5701 0.470722C1.88574 0.165086 2.30901 -0.00398995 2.74836 7.15143e-05C3.1877 0.00413297 3.60778 0.181006 3.91771 0.492424C3.93453 0.509243 4.93988 1.81518 4.93988 1.81518C5.23819 2.12858 5.40425 2.54488 5.40354 2.97756C5.40283 3.41023 5.23541 3.82599 4.93608 4.13841L4.30781 4.92838C4.6555 5.7732 5.1667 6.54099 5.81203 7.18764C6.45736 7.83429 7.22411 8.34704 8.06822 8.69644L8.86306 8.06436C9.17551 7.76526 9.59119 7.59803 10.0237 7.59742C10.4563 7.59682 10.8724 7.76288 11.1857 8.06111C11.1857 8.06111 12.4911 9.06592 12.5079 9.08274ZM11.7614 9.87162C11.7614 9.87162 10.463 8.87277 10.4462 8.85595C10.3344 8.74513 10.1834 8.68294 10.026 8.68294C9.86861 8.68294 9.71758 8.74513 9.60581 8.85595C9.59116 8.87114 8.49683 9.74303 8.49683 9.74303C8.42309 9.80173 8.33533 9.84021 8.24219 9.85467C8.14905 9.86913 8.05375 9.85908 7.96568 9.8255C6.87215 9.41835 5.87889 8.78094 5.05318 7.95644C4.22747 7.13193 3.5886 6.1396 3.17984 5.04666C3.1436 4.95738 3.13178 4.86006 3.14561 4.76471C3.15944 4.66935 3.19841 4.5794 3.25851 4.5041C3.25851 4.5041 4.13039 3.40922 4.14504 3.39511C4.25587 3.28333 4.31805 3.1323 4.31805 2.9749C4.31805 2.81749 4.25587 2.66646 4.14504 2.55469C4.12822 2.53841 3.12939 1.23898 3.12939 1.23898C3.01594 1.13726 2.86788 1.08278 2.71556 1.08671C2.56323 1.09065 2.41818 1.1527 2.31014 1.26014L1.6862 1.8027C-1.37486 5.48341 7.99552 14.3342 11.221 11.2861L11.7152 10.7164C11.8311 10.6091 11.9006 10.461 11.9092 10.3033C11.9178 10.1457 11.8648 9.99088 11.7614 9.87162Z" fill="#526937"/>
</svg>
