<svg width="98" height="13" viewBox="0 0 98 13" fill="none" xmlns="http://www.w3.org/2000/svg">
<path d="M3.85528 0.00330712H0.756688C0.629592 0.00330712 0.49826 -0.0121928 0.380908 0.0533497C0.216107 0.145906 0.11316 0.315077 0.0555431 0.496204C-0.0558776 0.845617 0.0199562 1.25659 0.111465 1.5998C0.3127 2.35265 0.67916 3.06609 1.05452 3.73834C1.76922 5.01775 2.60678 6.22232 3.46934 7.39632C4.39163 8.65492 5.38043 9.87587 6.52429 10.9219C7.21781 11.5578 7.97488 12.1526 8.81964 12.5525C9.31701 12.7881 9.84488 12.9674 10.3944 12.9922C10.624 13.0024 10.8752 12.9887 11.093 12.9059C11.1269 12.893 11.1599 12.8784 11.1925 12.8616L11.032 12.9059C11.553 12.8713 12.0619 12.5419 12.3821 12.1247C12.7516 11.6442 12.9257 11.064 12.9986 10.4587C13.0207 10.2725 13.0327 10.0852 13.0346 9.89757C13.0346 9.79571 13.0346 9.69341 13.0312 9.59155C13.0327 9.56789 13.0317 9.54412 13.0282 9.5207C13.0282 9.51671 13.0087 9.40556 13.0147 9.55435C13.0145 9.5517 13.0145 9.54904 13.0147 9.54638C13.0311 9.45298 13.0549 9.36115 13.0858 9.27181C13.0968 9.23683 13.1087 9.20184 13.1214 9.1673C13.1282 9.1487 13.1358 9.13054 13.1422 9.11239C13.1553 9.0743 13.1053 9.19786 13.1282 9.14781C13.1337 9.13541 13.1388 9.12257 13.1443 9.11017C13.1783 9.03166 13.2178 8.95587 13.2625 8.88343C13.2752 8.8635 13.2892 8.84402 13.3019 8.82364C13.3286 8.78246 13.2477 8.89007 13.2951 8.83383C13.3256 8.79707 13.3565 8.76253 13.39 8.72932C13.4485 8.67219 13.3794 8.73773 13.3786 8.73596C13.3964 8.7213 13.415 8.70784 13.4345 8.69566C13.4497 8.68547 13.4663 8.6775 13.4815 8.66776C13.4112 8.6899 13.5451 8.62879 13.4815 8.66776C13.504 8.66067 13.5239 8.65314 13.5485 8.64739C13.5573 8.64517 13.5671 8.64429 13.576 8.64163C13.6205 8.62923 13.5374 8.64827 13.5336 8.64739C13.5585 8.64882 13.5835 8.64764 13.6082 8.64384H13.6387C13.7031 8.64384 13.6264 8.6589 13.6179 8.63942C13.668 8.65635 13.7191 8.66981 13.7709 8.67972C13.7833 8.6828 13.7954 8.68741 13.8069 8.69345C13.7776 8.66466 13.7539 8.6682 13.7857 8.68459C13.8175 8.70097 13.856 8.72046 13.8903 8.74083C13.9537 8.77897 14.0148 8.82096 14.0734 8.8666C14.0357 8.83427 14.1115 8.89539 14.0734 8.8666C14.0916 8.8821 14.1102 8.8976 14.128 8.91354C14.1666 8.94764 14.2043 8.98307 14.2411 9.01939C14.4047 9.18014 14.5563 9.35507 14.7071 9.52778C15.0189 9.88207 15.3202 10.2461 15.6125 10.6176C15.7427 10.7827 15.8711 10.9491 15.9976 11.1167C16.0569 11.1951 16.1158 11.2735 16.1747 11.3528C16.17 11.3466 16.2323 11.4303 16.206 11.3971L16.2272 11.4259L16.3255 11.5587C16.7636 12.161 17.2109 12.979 18.0298 12.9927C18.7988 13.0055 19.569 12.9927 20.3379 12.9927C20.4841 12.9927 20.6311 12.9962 20.7722 12.9484C21.1297 12.8266 21.3856 12.5055 21.4924 12.1371C21.5877 11.8094 21.5555 11.4321 21.3763 11.1415C21.3445 11.0902 21.311 11.0397 21.2784 10.9888L19.8757 8.79663C19.5054 8.21782 19.1297 7.64255 18.7645 7.0602C18.7458 7.03008 18.7272 6.99997 18.7107 6.96853C18.6996 6.9486 18.6903 6.92823 18.6802 6.9083C18.6513 6.85117 18.6662 6.87996 18.6721 6.89501C18.6497 6.83751 18.6316 6.77829 18.6179 6.71787C18.6128 6.69617 18.6081 6.67358 18.6043 6.65277C18.6014 6.6386 18.5929 6.56774 18.5988 6.6262C18.5943 6.58207 18.5919 6.53773 18.5916 6.49334C18.5908 6.43798 18.5937 6.38263 18.6005 6.32772C18.5984 6.34366 18.5903 6.38219 18.6043 6.31753C18.6111 6.28476 18.6179 6.25243 18.6264 6.2201C18.6441 6.13781 18.6755 6.05941 18.7191 5.98849C18.7314 5.96679 18.7446 5.9442 18.7573 5.92427C18.77 5.90435 18.7823 5.88442 18.795 5.86449L19.2762 5.10632L20.8497 2.58205L21.3487 1.78181C21.4127 1.68364 21.466 1.57833 21.5076 1.46783C21.644 1.0883 21.5385 0.658732 21.2886 0.360691C21.0882 0.124206 20.7895 0.00507853 20.4921 0.00330712C20.3735 0.00330712 20.2549 0.00330712 20.1358 0.00330712H18.7191C18.3963 0.00330712 18.0735 0.00330712 17.7507 0.00330712C17.1792 0.0064071 16.6983 0.310205 16.3797 0.797346L15.1668 2.64139L13.6417 4.96284L13.448 5.25734C13.4319 5.28169 13.4154 5.30561 13.3997 5.33041C13.3997 5.33351 13.3917 5.33971 13.3913 5.34369C13.3824 5.33616 13.4158 5.31314 13.4192 5.30871C13.451 5.29808 13.4489 5.29852 13.4133 5.30871L13.4383 5.30339C13.487 5.30339 13.3786 5.30339 13.3959 5.30339C13.3498 5.30605 13.4608 5.32509 13.3845 5.30339C13.3625 5.29631 13.2735 5.26354 13.3328 5.29188C13.3167 5.28435 13.3006 5.27549 13.2849 5.26664C13.2849 5.26664 13.2129 5.21792 13.251 5.24671C13.2892 5.27549 13.2227 5.21969 13.2222 5.21925C13.2031 5.20022 13.1851 5.17996 13.1684 5.15858C13.2087 5.21084 13.1574 5.12979 13.146 5.10942C13.11 5.04609 13.143 5.13821 13.1413 5.09835C13.1377 5.07498 13.1316 5.05211 13.1231 5.03015C13.118 5.01244 13.1201 4.97081 13.1231 5.03281C13.1231 5.01288 13.1231 4.99339 13.1206 4.97391V4.96948C13.1206 4.87869 13.1206 4.78747 13.1206 4.69668V1.89828C13.1206 1.53071 13.1401 1.17864 12.9956 0.831445C12.9149 0.647192 12.7973 0.483183 12.6507 0.350483C12.5042 0.217783 12.3321 0.11948 12.1462 0.0622068C11.99 0.0178616 11.8284 -0.00198821 11.6666 0.00330712H9.10857C8.81202 0.00330712 8.51546 0.00330712 8.2189 0.00330712C8.07229 0.00151321 7.92687 0.0310727 7.79158 0.0901699C7.65629 0.149267 7.53398 0.236654 7.43218 0.346962C7.28534 0.507366 7.18896 0.710884 7.15596 0.930202C7.14255 1.04656 7.13717 1.16378 7.13986 1.28094C7.13986 1.59094 7.12419 1.90094 7.36016 2.14052C7.58342 2.36549 7.86558 2.35132 8.15027 2.35132L7.83253 2.01918V3.76447C7.83253 4.03019 7.83253 4.29324 7.83253 4.55763C7.83253 4.56604 7.83253 4.57401 7.83253 4.58198V4.5873C7.83253 4.64752 7.84397 4.57268 7.83253 4.60191C7.82703 4.61475 7.82491 4.6307 7.82067 4.6462C7.83211 4.61032 7.8427 4.62981 7.8177 4.6462C7.8177 4.6462 7.78678 4.69048 7.8105 4.65948C7.83423 4.62848 7.80161 4.66878 7.79906 4.66922C7.73679 4.70731 7.79652 4.66967 7.79906 4.66922L7.76178 4.69137C6.31247 5.52216 7.75373 4.6958 7.74907 4.69801C7.79991 4.67188 7.74229 4.69801 7.73001 4.70244C7.69781 4.71262 7.66561 4.71971 7.63299 4.7268C7.68764 4.71484 7.63003 4.7268 7.60588 4.7268C7.58173 4.7268 7.50505 4.72325 7.53725 4.7268C7.56944 4.73034 7.53047 4.7268 7.52454 4.7237C7.50208 4.71882 7.48217 4.71351 7.4576 4.70642C7.43303 4.69934 7.36228 4.66214 7.41778 4.69402C7.39278 4.6803 7.36821 4.66745 7.34448 4.65195C7.32881 4.64177 7.31356 4.63114 7.29831 4.61962C7.30297 4.62317 7.33432 4.65151 7.30805 4.62582C7.28006 4.5993 7.25361 4.57105 7.22883 4.54124C7.2051 4.5129 7.23137 4.54434 7.23433 4.54921C7.22332 4.53194 7.21315 4.51511 7.20256 4.4974L7.19578 4.48544C7.18519 4.46684 7.1746 4.44824 7.16443 4.42964L7.03734 4.20246L6.58657 3.40665L5.47364 1.43373L5.13005 0.82436C4.93899 0.487347 4.6831 0.227834 4.32511 0.0887781C4.17426 0.0326989 4.01539 0.00379793 3.85528 0.00330712C3.68921 0.00330712 3.52992 0.157863 3.53754 0.335448C3.53896 0.423075 3.57289 0.506699 3.63217 0.568669C3.69146 0.63064 3.77146 0.666108 3.85528 0.667589C3.89087 0.667589 3.92646 0.667589 3.96204 0.673346C3.99763 0.679103 3.95865 0.673346 3.95315 0.673346C3.97263 0.677332 3.99255 0.680875 4.01203 0.685746C4.04624 0.693667 4.08004 0.703422 4.11329 0.714975L4.15565 0.730032C4.20988 0.74996 4.14548 0.723389 4.17556 0.739775C4.23338 0.769414 4.28902 0.803458 4.34206 0.841631C4.29969 0.810188 4.37044 0.868202 4.38146 0.879274C4.41111 0.907616 4.4378 0.938616 4.46619 0.967845C4.50051 1.00726 4.44289 0.931974 4.47339 0.97493L4.49966 1.0139C4.5111 1.03206 4.52169 1.05022 4.53228 1.06882L4.53736 1.07812C4.54795 1.09583 4.5577 1.11399 4.56787 1.13214L4.89747 1.71627L6.02481 3.71487L6.48659 4.53371C6.56768 4.69069 6.65927 4.84149 6.76069 4.98498C7.17375 5.52172 8.20111 5.56423 8.43454 4.81935C8.50445 4.59792 8.46928 4.31361 8.46928 4.08421V2.01741C8.46808 1.92971 8.43422 1.84596 8.37489 1.78394C8.31556 1.72193 8.23544 1.68653 8.15154 1.68527H7.87151H7.83211C7.8427 1.68527 7.87447 1.69944 7.84736 1.68527C7.84185 1.68261 7.78763 1.66091 7.82109 1.67818C7.85456 1.69545 7.81135 1.66888 7.8105 1.66933L7.78805 1.65383L7.81093 1.67021C7.80838 1.6742 7.77831 1.62593 7.79991 1.66224C7.82152 1.69855 7.79356 1.6494 7.79271 1.65073C7.79186 1.65206 7.76644 1.60201 7.78424 1.63966C7.80203 1.6773 7.78424 1.63213 7.78085 1.62593C7.76094 1.56304 7.77576 1.66401 7.77661 1.5967C7.77746 1.52938 7.77661 1.4758 7.77661 1.41513V1.16447C7.77661 1.14543 7.77661 1.12683 7.77661 1.10779C7.77661 1.08874 7.77661 1.0666 7.77873 1.04623C7.77661 1.11222 7.78508 1.01346 7.79144 0.989987C7.79779 0.966516 7.8177 0.907616 7.79652 0.960759C7.80963 0.930327 7.82449 0.90075 7.84101 0.872188C7.84736 0.859788 7.85541 0.848274 7.86304 0.836317C7.86049 0.840303 7.83041 0.876174 7.85414 0.847388C7.87441 0.822198 7.89606 0.798245 7.91896 0.775646C7.93167 0.763246 7.94565 0.750403 7.96132 0.738889C7.95666 0.742432 7.9215 0.767674 7.95158 0.749517C7.9753 0.735346 7.99776 0.719846 8.02191 0.705232C8.03377 0.698152 8.04608 0.691937 8.05876 0.686632C8.04478 0.692389 8.00454 0.704789 8.05876 0.689289C8.09054 0.680432 8.12146 0.672461 8.15366 0.665375C8.18586 0.658289 8.14434 0.668032 8.13926 0.668032C8.15366 0.668032 8.16807 0.668032 8.18162 0.665818H11.4094C11.5492 0.665818 11.6916 0.658732 11.8331 0.668475C11.8428 0.668475 11.9021 0.676446 11.8606 0.668475C11.8191 0.660504 11.8682 0.668475 11.8733 0.671575C11.9004 0.677775 11.9271 0.683532 11.9538 0.691061C11.9805 0.698589 12.014 0.713646 12.0445 0.72206C12.075 0.730475 12.0364 0.718517 12.0309 0.715418C12.047 0.723832 12.0635 0.73136 12.0792 0.740217C12.1029 0.752913 12.1263 0.766641 12.1491 0.781403C12.1589 0.787603 12.2305 0.840303 12.2042 0.819488C12.1779 0.798674 12.2343 0.847388 12.2436 0.856245C12.2694 0.881488 12.2936 0.908502 12.3177 0.935959C12.3266 0.946145 12.3347 0.957216 12.3436 0.967402C12.3398 0.962973 12.3169 0.923116 12.3343 0.955888C12.3474 0.979802 12.3643 1.00017 12.3766 1.02586C12.3889 1.05154 12.4067 1.08299 12.4215 1.11177C12.4241 1.11664 12.4423 1.1596 12.4275 1.12373C12.4126 1.08786 12.4342 1.14322 12.4359 1.14986C12.4534 1.20917 12.4676 1.2695 12.4783 1.33054C12.4673 1.27209 12.4783 1.33364 12.4783 1.35889C12.4783 1.38413 12.4783 1.39874 12.4783 1.41911C12.4838 1.90005 12.4783 2.38144 12.4783 2.86238V4.80075C12.4783 4.85522 12.4783 4.91014 12.4783 4.96505C12.4809 5.2174 12.5712 5.46013 12.7325 5.64793C12.9299 5.88176 13.2832 6.0279 13.5798 5.95173C13.7433 5.90966 13.8603 5.79629 13.9539 5.65635C14.1899 5.30206 14.4199 4.94778 14.6533 4.5935L15.8523 2.76982L16.8068 1.31814C16.8576 1.24064 16.9097 1.16359 16.9597 1.0852C16.9597 1.0852 16.9898 1.04092 16.972 1.06572C16.9542 1.09052 16.9919 1.04092 16.9966 1.0356C17.0169 1.0108 17.0381 0.986887 17.0601 0.963859C17.0821 0.940831 17.1046 0.919574 17.1283 0.897874C17.1398 0.887245 17.1516 0.876617 17.1639 0.866431C17.1245 0.898759 17.1787 0.857131 17.1864 0.851817C17.2418 0.812956 17.3 0.778607 17.3605 0.749074C17.4113 0.723389 17.3448 0.752174 17.3986 0.733575C17.4329 0.72206 17.4668 0.710103 17.502 0.70036C17.5371 0.690618 17.5723 0.683089 17.6079 0.676446C17.6664 0.665375 17.588 0.676446 17.6473 0.672461C17.6799 0.672461 17.7125 0.668918 17.7452 0.668475H20.3926C20.4451 0.668475 20.4976 0.668475 20.5497 0.668475C20.5633 0.668475 20.5764 0.670689 20.59 0.671575C20.5239 0.667146 20.5671 0.667589 20.5832 0.671575C20.6074 0.679103 20.6323 0.685746 20.6569 0.692389C20.7137 0.707889 20.6226 0.668918 20.6734 0.698146C20.7022 0.714532 20.7298 0.732246 20.7582 0.749074C20.8077 0.778746 20.7302 0.716746 20.7705 0.758817C20.7904 0.779631 20.8107 0.79956 20.8302 0.820817C20.8387 0.829674 20.8459 0.83986 20.8539 0.84916C20.8505 0.845174 20.8251 0.800446 20.8399 0.831888C20.8548 0.863331 20.8743 0.888574 20.8895 0.916916C20.8954 0.927988 20.8997 0.939945 20.9052 0.950573C20.9031 0.946588 20.8887 0.894331 20.8963 0.928873C20.9014 0.953231 20.9115 0.976702 20.9179 1.00062C20.9268 1.0356 20.931 1.08919 20.9264 1.0232C20.9285 1.05287 20.931 1.0821 20.931 1.11177C20.931 1.14144 20.9179 1.21939 20.931 1.13834C20.9264 1.16403 20.9221 1.18971 20.9153 1.21496C20.9088 1.24078 20.9009 1.26621 20.8916 1.29113C20.9149 1.22559 20.8776 1.31504 20.8658 1.33541C20.8488 1.36509 20.8298 1.39343 20.812 1.42399L20.5154 1.90271L19.436 3.63162L18.4226 5.25645C18.3531 5.36805 18.2823 5.47788 18.2137 5.59081C18.0653 5.83592 17.9802 6.11701 17.9666 6.40672C17.9531 6.69643 18.0115 6.98488 18.1362 7.24398C18.2032 7.37229 18.2781 7.49596 18.3603 7.61421L18.7679 8.25502L19.9346 10.0791L20.7798 11.3997C20.7967 11.4263 20.8145 11.4524 20.831 11.4794C20.8476 11.5065 20.8654 11.5454 20.8836 11.5778C20.9018 11.6101 20.8755 11.5587 20.8747 11.5552C20.8785 11.5707 20.8853 11.5862 20.8895 11.6017C20.8976 11.6287 20.9001 11.6592 20.9094 11.6854C20.9209 11.719 20.9094 11.6623 20.9069 11.6579C20.9069 11.6743 20.9103 11.6907 20.9111 11.7071C20.9111 11.7319 20.9132 11.7567 20.9111 11.7815C20.909 11.8063 20.9077 11.8311 20.9069 11.8559C20.9103 11.781 20.9069 11.859 20.8992 11.8904C20.8942 11.9143 20.8878 11.9387 20.881 11.9626C20.8772 11.975 20.8488 12.0596 20.8645 12.0162C20.8802 11.9728 20.8514 12.0436 20.8459 12.0552C20.8332 12.0804 20.8196 12.1056 20.8035 12.1296C20.7955 12.1428 20.7849 12.1561 20.7777 12.1703C20.7777 12.1676 20.8158 12.126 20.7921 12.1513C20.776 12.1685 20.762 12.1876 20.7459 12.2053C20.7298 12.223 20.7056 12.242 20.6874 12.2624C20.7298 12.2181 20.6984 12.254 20.6696 12.273C20.6506 12.285 20.6273 12.2939 20.6103 12.3071C20.5764 12.3324 20.6645 12.2921 20.6239 12.3018C20.6133 12.3045 20.6023 12.3098 20.5917 12.3133C20.5701 12.32 20.5463 12.3226 20.5252 12.3306C20.5281 12.3306 20.5874 12.3275 20.5519 12.3271C20.5324 12.3271 20.512 12.3297 20.4925 12.3302H20.4625C19.8693 12.3302 19.2762 12.3302 18.681 12.3302C18.4692 12.3302 18.2574 12.3302 18.0455 12.3302H18.0345C18.0248 12.3302 17.9557 12.3262 17.9841 12.3302C18.0125 12.3342 17.9684 12.3266 17.9655 12.3262C17.9451 12.3213 17.9252 12.3164 17.9049 12.3107C17.8845 12.3049 17.865 12.2974 17.8451 12.2903C17.8451 12.2903 17.7973 12.2695 17.8244 12.2823C17.8379 12.2885 17.7761 12.2558 17.7617 12.2474C17.7283 12.2279 17.6957 12.2071 17.6638 12.1849L17.6214 12.1552C17.5791 12.122 17.6494 12.1796 17.6066 12.1433C17.4915 12.0443 17.3872 11.9323 17.2957 11.8094C17.3215 11.8439 17.2834 11.7912 17.2753 11.7797L17.2359 11.7235L17.1376 11.584C16.4174 10.5654 15.6515 9.5672 14.8012 8.66112C14.4877 8.32765 14.0712 7.97691 13.598 7.98178C13.2417 7.98532 12.9604 8.20099 12.7579 8.49106C12.6166 8.70594 12.512 8.94477 12.4486 9.19697C12.433 9.25366 12.4177 9.31167 12.4063 9.36968C12.3952 9.44989 12.3928 9.53115 12.3991 9.61193C12.4037 9.76161 12.4037 9.9113 12.3991 10.0605C12.394 10.1934 12.3821 10.3263 12.3673 10.4613C12.3741 10.402 12.3673 10.456 12.3639 10.4835C12.3605 10.5109 12.3559 10.5366 12.3516 10.5632C12.3415 10.623 12.33 10.6823 12.3173 10.7403C12.2942 10.8458 12.2659 10.95 12.2326 11.0525C12.2182 11.0968 12.2025 11.1411 12.1856 11.1885C12.179 11.2088 12.1714 11.2288 12.1627 11.2483C12.1949 11.1845 12.1699 11.2301 12.1546 11.2642C12.1203 11.3414 12.0821 11.4166 12.0402 11.4896C12.0208 11.5237 12.0004 11.5574 11.9792 11.5902L11.95 11.6344C11.9407 11.6482 11.9055 11.7142 11.9301 11.6637C11.9547 11.6132 11.9301 11.6637 11.9199 11.6765L11.8843 11.7208C11.8623 11.7468 11.8399 11.7725 11.817 11.7979C11.7719 11.8469 11.7242 11.8934 11.6742 11.9369L11.6424 11.9644C11.6064 11.9967 11.7094 11.9134 11.659 11.9511C11.6344 11.9692 11.6102 11.9883 11.5848 12.0056C11.5425 12.0361 11.4963 12.0649 11.4505 12.091C11.4048 12.1172 11.3624 12.138 11.3175 12.1597C11.2641 12.1858 11.4052 12.1247 11.3239 12.1566C11.3052 12.1637 11.2861 12.1716 11.2671 12.1783C11.2029 12.2018 11.1374 12.2211 11.0709 12.2358C11.0493 12.2407 11.0286 12.2438 11.0057 12.2482C10.9498 12.2598 11.1154 12.235 11.0455 12.2425C11.0082 12.2465 10.743 12.3151 10.9451 12.2571C10.9337 12.2606 10.9227 12.2668 10.9112 12.2704C10.8577 12.2885 10.8033 12.3033 10.7481 12.3147C10.7278 12.3182 10.7057 12.3204 10.6863 12.3249C10.7735 12.3076 10.7617 12.3156 10.6981 12.3218C10.6443 12.3271 10.5901 12.3302 10.5359 12.3311C10.4702 12.3311 10.4041 12.3311 10.3384 12.3257C10.3029 12.3235 10.2673 12.32 10.2317 12.3164L10.1758 12.3094C10.1075 12.3018 10.2711 12.3249 10.1885 12.3094C10.0033 12.2789 9.82055 12.2345 9.64153 12.1765C9.53138 12.1406 9.4225 12.0999 9.31532 12.0556L9.23821 12.0233C9.17509 11.9967 9.30176 12.0521 9.25558 12.0308L9.2094 12.01C9.14755 11.9821 9.08654 11.9524 9.02596 11.9214C8.75107 11.7822 8.48478 11.6251 8.22865 11.4511C8.07444 11.3475 7.92334 11.239 7.77534 11.1256C7.69823 11.0667 7.62198 11.0065 7.54572 10.9458C7.59529 10.9852 7.55419 10.9524 7.5292 10.9321L7.47455 10.8878L7.34745 10.7797C6.53954 10.0911 5.81002 9.30547 5.12793 8.48353C4.27258 7.45212 3.48501 6.35783 2.73896 5.23652C2.22083 4.45975 1.72219 3.66306 1.29854 2.82562C1.22313 2.678 1.15083 2.52817 1.08163 2.37612C1.05 2.30704 1.01921 2.23751 0.989273 2.16754C0.976564 2.13831 0.964278 2.10908 0.951992 2.07897C0.94479 2.06214 0.938435 2.04531 0.931233 2.02848C0.926996 2.01918 0.961736 2.10598 0.937588 2.04442C0.852595 1.83353 0.780292 1.61729 0.721101 1.39697C0.699071 1.31283 0.678736 1.22824 0.665179 1.14277C0.66179 1.12417 0.658824 1.10557 0.655859 1.08653C0.652893 1.06749 0.642725 0.991759 0.652893 1.06882C0.663061 1.14587 0.652893 1.08122 0.652893 1.06217C0.652893 1.04313 0.649504 1.02719 0.648233 1.00947C0.643394 0.95057 0.64198 0.891414 0.643996 0.832331C0.643996 0.806646 0.647386 0.78096 0.649504 0.755274C0.65374 0.689732 0.628745 0.86466 0.649504 0.769889C0.657024 0.732179 0.666499 0.694924 0.677889 0.658289C0.701613 0.578575 0.643996 0.72516 0.665179 0.687518C0.672381 0.675118 0.677465 0.661389 0.684243 0.648989C0.691022 0.636589 0.698648 0.626404 0.705002 0.61489C0.733387 0.56219 0.639336 0.687518 0.677041 0.652532C0.69157 0.638921 0.705029 0.624111 0.717288 0.608247C0.743555 0.57459 0.632558 0.661832 0.671957 0.645004C0.67751 0.641779 0.682885 0.638231 0.688056 0.634375C0.705426 0.624632 0.743978 0.607361 0.672805 0.638804C0.647809 0.649875 0.588074 0.678661 0.561808 0.664489C0.596124 0.682203 0.67916 0.664489 0.716865 0.664489H3.85528C4.02135 0.664489 4.18065 0.511704 4.17302 0.332348C4.17085 0.245263 4.13658 0.16242 4.07738 0.10111C4.01818 0.0398007 3.93861 0.00476176 3.85528 0.00330712Z" fill="#526937"/>
<path d="M38.3143 12.33H32.1197C32.0409 12.33 31.9625 12.3269 31.8841 12.3202C31.8519 12.3171 31.8193 12.314 31.7867 12.31L31.7625 12.3069C31.7282 12.3029 31.8125 12.3149 31.8049 12.3131C31.7838 12.3084 31.7624 12.305 31.7409 12.3029C31.6723 12.291 31.6041 12.2768 31.5363 12.2587C31.4057 12.2248 31.2775 12.1818 31.1525 12.1298C31.086 12.1023 31.2109 12.1572 31.1635 12.1351L31.1211 12.1152C31.0906 12.1006 31.0597 12.0851 31.0296 12.0709C30.9689 12.0396 30.9096 12.0058 30.8517 11.9695C30.7941 11.934 30.7373 11.896 30.6822 11.8557C30.6547 11.8357 30.6272 11.8154 30.6005 11.7941C30.5941 11.7897 30.5882 11.7844 30.5818 11.7795C30.5547 11.7591 30.6208 11.8105 30.6157 11.8069C30.6009 11.7961 30.5867 11.7843 30.5733 11.7715C30.4695 11.6831 30.3718 11.5871 30.281 11.4841C30.2357 11.4323 30.1925 11.3792 30.1505 11.3247C30.1453 11.3188 30.1404 11.3124 30.1361 11.3056C30.1327 11.2999 30.1819 11.369 30.162 11.3406C30.1531 11.3278 30.1433 11.3149 30.134 11.3021C30.1128 11.2715 30.0917 11.2405 30.0717 11.2095C29.9975 11.095 29.9312 10.9751 29.8731 10.8508C29.8582 10.8189 29.8442 10.7871 29.8307 10.7547C29.8256 10.7419 29.8027 10.6861 29.8252 10.7414C29.8476 10.7968 29.8226 10.7344 29.8176 10.7206C29.7924 10.6539 29.7697 10.5864 29.7493 10.5182C29.7083 10.3799 29.6773 10.2385 29.6566 10.0953L29.6528 10.0701C29.654 10.0849 29.656 10.0997 29.6587 10.1144C29.6582 10.0974 29.6562 10.0805 29.6528 10.0639C29.6489 10.0245 29.6451 9.9846 29.6426 9.94474C29.6379 9.87566 29.6358 9.80657 29.6358 9.73749V3.48748C29.6358 3.32495 29.6328 3.16198 29.6464 3.00034C29.6494 2.96668 29.6532 2.93258 29.6566 2.89893C29.6629 2.84091 29.6455 2.97731 29.654 2.91974C29.6574 2.8976 29.6604 2.87545 29.6642 2.85331C29.6752 2.78423 29.6888 2.71603 29.7066 2.64827C29.7412 2.50966 29.7836 2.37332 29.8336 2.23996C29.8459 2.2063 29.8146 2.28779 29.8167 2.28114C29.8188 2.2745 29.8231 2.26609 29.826 2.25856C29.8336 2.24129 29.8409 2.22402 29.8485 2.2063C29.8629 2.17442 29.8773 2.14253 29.8908 2.11064C29.9213 2.04776 29.954 1.98605 29.9887 1.92553C30.023 1.8653 30.0599 1.8064 30.0984 1.74839C30.1162 1.72182 30.1349 1.69613 30.1531 1.67C30.1916 1.61553 30.1128 1.72226 30.1459 1.67975C30.1573 1.66513 30.1683 1.65008 30.1802 1.63546C30.2653 1.52741 30.3578 1.42589 30.4568 1.33166C30.5073 1.28428 30.5594 1.23999 30.6106 1.19571C30.6365 1.17356 30.5721 1.22759 30.5772 1.22316C30.5829 1.21791 30.589 1.21303 30.5954 1.20855L30.6327 1.17932C30.6602 1.15895 30.6873 1.13858 30.7153 1.11909C30.8272 1.04035 30.9444 0.970192 31.0661 0.90918C31.0966 0.89368 31.1275 0.879066 31.1584 0.864894C31.1654 0.861117 31.1726 0.857861 31.18 0.855151C31.1859 0.855151 31.1084 0.885265 31.1402 0.872865C31.1571 0.866223 31.1741 0.858251 31.1915 0.851609C31.255 0.825923 31.3186 0.802452 31.3851 0.781637C31.5181 0.740124 31.6537 0.708456 31.7909 0.686867C31.8456 0.67801 31.7155 0.696167 31.7706 0.689524L31.8193 0.683767C31.857 0.679338 31.8951 0.676238 31.9333 0.673581C31.9939 0.669595 32.0544 0.667824 32.1154 0.667381H38.3114C38.3961 0.667381 38.4842 0.671367 38.5698 0.679781C38.6047 0.68617 38.6399 0.690164 38.6753 0.691738C38.6812 0.691738 38.5969 0.679781 38.6329 0.685538L38.6571 0.689081L38.713 0.698824C38.7812 0.711224 38.8494 0.726281 38.9168 0.743109C38.9841 0.759938 39.0494 0.780752 39.1146 0.803337C39.1468 0.814409 39.1794 0.826366 39.2112 0.838766L39.2536 0.85648C39.2667 0.861794 39.3277 0.888366 39.2739 0.864451C39.2201 0.840537 39.2739 0.864451 39.2862 0.870651L39.3362 0.894123C39.3667 0.90918 39.3972 0.92468 39.4273 0.941065C39.4874 0.972951 39.5463 1.00749 39.6039 1.04381C39.6615 1.08012 39.7175 1.11909 39.7734 1.15984C39.7988 1.17844 39.8234 1.19836 39.8484 1.21741C39.8734 1.23645 39.8094 1.18641 39.8145 1.18995C39.8196 1.19349 39.8268 1.20014 39.8327 1.20501L39.8806 1.24575C39.9815 1.33381 40.0765 1.42911 40.1648 1.53095C40.2123 1.58032 40.2556 1.63396 40.2941 1.69126C40.2974 1.69702 40.2483 1.62793 40.2682 1.65628L40.2869 1.68196C40.2962 1.6948 40.3051 1.70809 40.3144 1.72138C40.3339 1.7509 40.3529 1.78042 40.3716 1.80995C40.4461 1.92743 40.5127 2.05026 40.5707 2.17752C40.5838 2.20719 40.5965 2.2373 40.6093 2.26609C40.63 2.3148 40.58 2.18947 40.6046 2.25502C40.6114 2.27273 40.6181 2.29044 40.6245 2.3086C40.6488 2.37562 40.6707 2.44338 40.6902 2.51187C40.7101 2.58096 40.7275 2.65093 40.7419 2.72134C40.7506 2.79369 40.7629 2.86553 40.7787 2.93657C40.7808 2.94233 40.769 2.85464 40.7728 2.89228C40.7728 2.9007 40.7749 2.90911 40.7757 2.91753C40.7757 2.93435 40.7796 2.95118 40.7813 2.96845C40.7846 3.00787 40.788 3.04773 40.7902 3.08758C40.7931 3.1456 40.7948 3.20317 40.7948 3.26118V9.70162C40.7948 9.80879 40.7918 9.91596 40.7817 10.0227C40.7817 10.0426 40.7779 10.0625 40.7757 10.082C40.7757 10.0904 40.7736 10.0989 40.7728 10.1073C40.769 10.1431 40.7808 10.0555 40.7787 10.063C40.7708 10.0987 40.7653 10.135 40.7622 10.1715C40.7499 10.2428 40.7351 10.3136 40.7198 10.3841C40.7046 10.4545 40.683 10.5222 40.6609 10.5904C40.6508 10.6214 40.6402 10.6524 40.6292 10.6834C40.6224 10.7016 40.616 10.7193 40.6093 10.737C40.6063 10.7445 40.6029 10.7521 40.6004 10.76C40.5868 10.7972 40.63 10.6892 40.6139 10.7259C40.5596 10.8553 40.4973 10.9809 40.4275 11.1019C40.3922 11.161 40.3551 11.22 40.3161 11.2791L40.2885 11.318C40.2805 11.3291 40.2462 11.3765 40.2805 11.3296C40.3148 11.2826 40.2805 11.3296 40.272 11.3402L40.2377 11.3845C40.1515 11.4917 40.0583 11.5925 39.9585 11.686C39.9335 11.7091 39.9081 11.7303 39.8823 11.7547L39.8467 11.7852L39.8285 11.8003C39.7954 11.8282 39.8518 11.7826 39.856 11.7782C39.8041 11.8229 39.7494 11.8637 39.692 11.9004C39.5836 11.9748 39.4704 12.0413 39.3531 12.0992C39.3247 12.1134 39.2964 12.1267 39.2684 12.14C39.2192 12.1626 39.3366 12.1112 39.2866 12.1316L39.2353 12.1528C39.1739 12.1776 39.1116 12.1998 39.0489 12.2197C38.9241 12.2595 38.7967 12.29 38.6677 12.3109C38.6427 12.3149 38.5736 12.322 38.6799 12.3109L38.6316 12.3171C38.599 12.3211 38.5664 12.3242 38.5338 12.3269C38.4626 12.3322 38.391 12.3348 38.319 12.3353C38.1529 12.3353 37.9936 12.4876 38.0012 12.6674C38.0028 12.755 38.0367 12.8386 38.096 12.9005C38.1553 12.9625 38.2352 12.998 38.319 12.9996C38.9162 12.9999 39.5008 12.8205 40.0031 12.4828C40.5054 12.1451 40.9041 11.6634 41.1515 11.0953C41.3372 10.6614 41.4332 10.1915 41.4333 9.71623V3.27712C41.4332 2.77736 41.3257 2.28399 41.1189 1.83342C40.863 1.28372 40.4642 0.820473 39.9681 0.496762C39.472 0.17305 38.8987 0.00196254 38.3139 0.00309887H32.1883C31.8489 -0.00149991 31.5109 0.0483855 31.1859 0.151012C30.7636 0.289732 30.3744 0.520816 30.0441 0.82891C29.7138 1.137 29.45 1.51505 29.2702 1.93793C29.1412 2.24904 29.0569 2.5784 29.0202 2.91531C29.0035 3.09825 28.9971 3.28206 29.0012 3.46578V9.57009C28.998 9.81596 29.0142 10.0617 29.0495 10.3048C29.1525 10.9166 29.4208 11.4847 29.8227 11.9423C30.2246 12.3998 30.7434 12.7277 31.3177 12.8871C31.6121 12.9636 31.9147 13.0001 32.218 12.9956H38.3143C38.4808 12.9956 38.6401 12.8428 38.6321 12.6634C38.6311 12.5755 38.5973 12.4915 38.538 12.4292C38.4787 12.367 38.3984 12.3313 38.3143 12.33Z" fill="#526937"/>
<path d="M32.1006 6.42142C32.1001 7.07616 32.2924 7.71521 32.6514 8.25174C33.0179 8.79236 33.5325 9.20416 34.1274 9.43283C34.7158 9.65431 35.3552 9.68154 35.9589 9.51086C36.5626 9.34018 37.1016 8.9798 37.5031 8.47848C37.9146 7.96078 38.1629 7.3227 38.214 6.6517C38.2599 6.0034 38.1154 5.35589 37.7997 4.79575C37.4841 4.23561 37.0124 3.78954 36.4477 3.51718C36.1429 3.37323 35.8184 3.2797 35.4861 3.23995C34.71 3.15254 33.9314 3.37884 33.31 3.87243C32.6885 4.36602 32.2713 5.08949 32.1439 5.89442C32.1173 6.06816 32.1031 6.24372 32.1015 6.41965C32.1015 6.59325 32.2481 6.75976 32.4192 6.75179C32.5031 6.75031 32.5831 6.71484 32.6423 6.65287C32.7016 6.5909 32.7356 6.50728 32.737 6.41965C32.7373 6.29125 32.7455 6.163 32.7615 6.03569L32.7501 6.12426C32.783 5.87258 32.8472 5.62648 32.9412 5.39223L32.9094 5.4715C32.9622 5.34129 33.0241 5.21533 33.0945 5.09463C33.1304 5.03263 33.1688 4.9721 33.2098 4.91306C33.228 4.88693 33.3009 4.79393 33.2271 4.88737C33.2492 4.85947 33.2695 4.83069 33.2928 4.80323C33.3794 4.6963 33.4732 4.5961 33.5737 4.50342C33.5978 4.48127 33.6224 4.45913 33.6474 4.43787C33.6601 4.4268 33.6728 4.41662 33.6855 4.40599C33.722 4.37454 33.6529 4.43212 33.6538 4.43123C33.6603 4.42412 33.6679 4.41815 33.6762 4.41352C33.7317 4.36923 33.7885 4.32849 33.8457 4.28907C33.9754 4.20276 34.1117 4.12781 34.2532 4.06499L34.1774 4.0982C34.4017 3.99946 34.6374 3.93186 34.8785 3.89715L34.7938 3.9091C35.0376 3.87545 35.2846 3.87545 35.5284 3.9091L35.4437 3.89715C35.6845 3.93151 35.9199 3.99866 36.144 4.09687L36.0682 4.06366C36.1927 4.11892 36.3132 4.18361 36.4287 4.25719C36.488 4.29468 36.5459 4.33484 36.6024 4.37764C36.6274 4.39669 36.7163 4.47286 36.627 4.39536C36.6536 4.41883 36.6808 4.43964 36.7074 4.46444C36.8097 4.55491 36.9056 4.65304 36.9943 4.75806C37.0154 4.7833 37.0366 4.80899 37.057 4.83511L37.0875 4.87497C37.1171 4.91306 37.0625 4.84087 37.0633 4.84176C37.0699 4.84864 37.0756 4.85638 37.0803 4.86478C37.1226 4.92324 37.1616 4.98258 37.1989 5.04193C37.2818 5.17741 37.3536 5.31992 37.4137 5.46795L37.3819 5.38868C37.4759 5.62294 37.5401 5.86904 37.573 6.12072L37.5615 6.03215C37.5937 6.28701 37.5937 6.5452 37.5615 6.80006L37.573 6.71149C37.54 6.96314 37.4757 7.20923 37.3819 7.44353L37.4137 7.36426C37.3608 7.49442 37.2989 7.62037 37.2285 7.74113C37.1921 7.80313 37.154 7.8638 37.1133 7.9227C37.0951 7.94882 37.0222 8.04182 37.0959 7.94794C37.0739 7.97628 37.0536 8.00462 37.0303 8.03253C36.9436 8.13935 36.8497 8.23954 36.7494 8.33234C36.7252 8.35448 36.7002 8.37662 36.6753 8.39788L36.6375 8.42977C36.6011 8.46077 36.6697 8.40364 36.6693 8.40452C36.6625 8.41126 36.6549 8.4172 36.6469 8.42224C36.5914 8.46652 36.5342 8.50726 36.4774 8.54624C36.3478 8.63286 36.2115 8.70797 36.0698 8.77076L36.1457 8.73711C35.9217 8.83567 35.6862 8.90297 35.4454 8.93728L35.5301 8.92532C35.2863 8.95853 35.0393 8.95853 34.7955 8.92532L34.8802 8.93728C34.6394 8.90297 34.404 8.83567 34.1799 8.73711L34.2558 8.77076C34.1312 8.71559 34.0107 8.65091 33.8952 8.57724C33.8359 8.53915 33.778 8.49885 33.7215 8.45634C33.6965 8.43774 33.6076 8.36157 33.697 8.43862C33.6703 8.41559 33.6432 8.39434 33.6165 8.36998C33.5142 8.27951 33.4183 8.18138 33.3297 8.07637C33.3085 8.05112 33.2873 8.025 33.267 7.99887L33.2365 7.95945C33.2068 7.92137 33.2615 7.99311 33.2606 7.99223C33.254 7.98534 33.2483 7.9776 33.2437 7.9692C33.2016 7.91015 33.162 7.8511 33.125 7.79205C33.0422 7.65657 32.9703 7.51407 32.9103 7.36603L32.942 7.4453C32.8482 7.211 32.7839 6.96492 32.751 6.71326L32.7624 6.80183C32.7464 6.67452 32.7382 6.54628 32.7378 6.41788C32.7378 6.24428 32.5921 6.07776 32.4201 6.08574C32.3354 6.08678 32.2545 6.12253 32.1947 6.18531C32.135 6.24809 32.1012 6.33287 32.1006 6.42142Z" fill="#526937"/>
<path d="M38.605 3.55265C39.0352 3.55265 39.3841 3.18802 39.3841 2.73824C39.3841 2.28845 39.0352 1.92383 38.605 1.92383C38.1747 1.92383 37.8259 2.28845 37.8259 2.73824C37.8259 3.18802 38.1747 3.55265 38.605 3.55265Z" fill="#526937"/>
<path d="M48.8282 5.36429L49.5103 5.69112L51.0053 6.40722L52.4839 7.11578L52.9592 7.34341L53.0838 7.4032L53.113 7.41693C53.2244 7.46963 53.3274 7.48158 53.4392 7.41958C53.5921 7.33588 53.74 7.24244 53.89 7.15387L55.0148 6.48472L56.4976 5.60432L58.0155 4.70134L59.2534 3.96532L59.8927 3.5849L59.9219 3.56763L59.5368 3.04595L59.0916 3.56232L58.0231 4.80231L56.7357 6.29606L55.6181 7.59274C55.4372 7.80265 55.2529 8.01035 55.0749 8.22292L55.0673 8.23178C54.9618 8.35401 54.9283 8.58606 55.0673 8.70165L55.5626 9.11882L56.7522 10.1206L58.1926 11.3331L59.4373 12.3813C59.6394 12.5514 59.8406 12.7223 60.0435 12.8919L60.052 12.899C60.1431 12.9756 60.2426 13.0186 60.3613 12.9845C60.4143 12.9692 60.4627 12.9398 60.5016 12.8991C60.5405 12.8584 60.5687 12.8079 60.5833 12.7524L60.6599 12.4212L60.868 11.5244L61.1755 10.1989L61.5509 8.58252L61.9614 6.8111L62.3779 5.01621L62.7646 3.34975L63.0917 1.94103L63.3277 0.922461C63.3645 0.763034 63.4035 0.603606 63.4387 0.443735C63.4387 0.43665 63.4421 0.430007 63.4433 0.423364C63.498 0.187765 63.2917 -0.0637761 63.0527 0.0146092L62.674 0.141708L61.6394 0.487135L60.1143 0.99819L58.2608 1.61819L56.2256 2.30284L54.1768 2.98926L52.2602 3.6314L50.6406 4.17479L49.4768 4.56494C49.2938 4.6265 49.1099 4.68628 48.926 4.74917L48.9027 4.75714C48.7447 4.80984 48.6261 4.99008 48.6807 5.16545C48.732 5.33108 48.9019 5.45464 49.0714 5.39751L49.4526 5.27085L50.4834 4.92498L52.0085 4.41393L53.862 3.79393L55.8981 3.11149L57.9469 2.42462L59.8639 1.78071L61.4814 1.23999L62.6452 0.849833C62.8282 0.788719 63.0129 0.731148 63.1959 0.665606L63.2192 0.658077L62.8295 0.247108L62.7524 0.578363L62.5443 1.47514L62.2364 2.80061L61.8614 4.41703L61.4505 6.18845L61.034 7.98334L60.6472 9.6498L60.3206 11.0585L60.0846 12.0771C60.0473 12.2365 60.0067 12.3955 59.9732 12.5558C59.9732 12.5629 59.9702 12.5695 59.9685 12.5762L60.4998 12.4296L60.0045 12.0129L58.8149 11.0107L57.3745 9.7986L56.1298 8.74992C55.9282 8.58031 55.7316 8.40051 55.524 8.23975L55.5151 8.23222V8.70209L55.9604 8.18572L57.0288 6.94573L58.3163 5.45198L59.4339 4.1553C59.6148 3.94539 59.7991 3.73769 59.977 3.52512L59.9846 3.51626C60.0385 3.45896 60.0707 3.3832 60.0753 3.30301C60.0799 3.22281 60.0566 3.14358 60.0096 3.07998C59.9626 3.01637 59.8952 2.97268 59.8199 2.95698C59.7445 2.94128 59.6662 2.95464 59.5995 2.99458L58.9543 3.37809L57.4067 4.29569L55.5393 5.40637L53.915 6.37223C53.6544 6.52723 53.3871 6.67426 53.1316 6.83812C53.1281 6.84059 53.1244 6.84281 53.1206 6.84476H53.4413L51.984 6.14859L49.6793 5.04411L49.1497 4.79035C48.9989 4.71817 48.8002 4.74031 48.7146 4.90993C48.6401 5.05562 48.6668 5.28679 48.8282 5.36429Z" fill="#526937"/>
<path d="M52.7169 7.09902L52.8266 7.61185L53.091 8.84874L53.41 10.3403L53.6854 11.6299C53.7303 11.8393 53.7701 12.0506 53.8197 12.2583C53.8197 12.2614 53.8197 12.264 53.8218 12.2671C53.8362 12.3226 53.8643 12.3732 53.9033 12.4139C53.9422 12.4545 53.9906 12.4838 54.0438 12.4987C54.0979 12.5131 54.1547 12.5129 54.2087 12.498C54.2627 12.4831 54.3123 12.4541 54.3526 12.4137L55.2758 11.606L56.7475 10.3186L57.0864 10.0227C57.1308 9.97627 57.1611 9.91708 57.1733 9.85264C57.1855 9.78821 57.1792 9.72144 57.1551 9.66077C57.131 9.60009 57.0903 9.54825 57.038 9.51178C56.9858 9.47531 56.9243 9.45587 56.8615 9.45589C56.7781 9.46 56.6986 9.49446 56.6369 9.55332L55.7121 10.3629L54.2416 11.6471L53.9027 11.943L54.4335 12.0896L54.3238 11.5767L54.0599 10.3403L53.7413 8.84874L53.4668 7.55915C53.4244 7.35012 53.382 7.13888 53.3325 6.93074C53.3323 6.92794 53.3323 6.92512 53.3325 6.92232C53.3094 6.83777 53.2555 6.76607 53.1824 6.72266C53.1092 6.67925 53.0227 6.66762 52.9414 6.69027C52.8612 6.71544 52.7934 6.77197 52.752 6.84811C52.7107 6.92425 52.699 7.01412 52.7194 7.09902H52.7169Z" fill="#526937"/>
<path d="M54.9839 8.37612L54.8682 8.7459L54.5903 9.63161L54.2543 10.7051L53.9654 11.6289C53.9184 11.7799 53.8667 11.9296 53.8239 12.0819C53.8237 12.0841 53.8237 12.0864 53.8239 12.0886C53.8021 12.1735 53.8132 12.2639 53.8548 12.3403C53.8963 12.4167 53.965 12.473 54.0459 12.4969C54.127 12.5184 54.2129 12.5063 54.2857 12.4631C54.3585 12.4199 54.4125 12.3491 54.4365 12.2653L54.5521 11.8955L54.8296 11.0098L55.1656 9.93629L55.455 9.01205C55.502 8.86148 55.5537 8.71136 55.5965 8.55946V8.55281C55.6181 8.46786 55.607 8.37741 55.5655 8.30096C55.5239 8.2245 55.4553 8.16815 55.3745 8.14406C55.2933 8.12271 55.2074 8.13492 55.1346 8.17815C55.0618 8.22138 55.0078 8.29229 54.9839 8.37612Z" fill="#526937"/>
<path d="M77.4389 0.00317383C76.5989 0.00576924 75.7678 0.184206 74.9948 0.527957C73.5328 1.18044 72.3664 2.39497 71.7365 3.92067C71.3627 4.82299 71.1899 5.80228 71.231 6.78464C71.2722 7.76699 71.5263 8.72673 71.9742 9.59142C72.0307 9.70214 72.0913 9.81108 72.1559 9.91825L72.1237 9.66272L71.7484 10.6485L71.1527 12.2131L71.0155 12.5736C70.9731 12.6803 71.0235 12.8203 71.0968 12.8969C71.1364 12.9386 71.186 12.9685 71.2403 12.9835C71.2947 12.9986 71.3519 12.9982 71.4061 12.9824L72.3868 12.6418L73.9378 12.1029L74.2975 11.978C74.3638 11.9573 74.422 11.9151 74.4639 11.8576C74.5058 11.8 74.5291 11.7301 74.5305 11.6578L74.0526 11.9448C74.8078 12.4602 75.6624 12.7953 76.5556 12.9261C77.3711 13.0466 78.2013 12.9995 78.9996 12.7875C79.6929 12.6006 80.3496 12.2884 80.94 11.865C81.5394 11.4328 82.0639 10.8966 82.4905 10.2796C83.3486 9.03422 83.7541 7.51003 83.6344 5.98038C83.5726 5.19776 83.3778 4.43292 83.0591 3.72183C82.4486 2.37294 81.4129 1.28463 80.1257 0.639556C79.4495 0.304479 78.7219 0.0975541 77.9765 0.0284165C77.7977 0.0115881 77.6185 0.00361668 77.4389 0.00317383C77.2728 0.00317383 77.1135 0.156402 77.1212 0.335315C77.1226 0.422942 77.1565 0.506566 77.2158 0.568536C77.2751 0.630507 77.3551 0.665975 77.4389 0.667456C77.6185 0.667456 77.7977 0.67587 77.9765 0.692699C78.0189 0.696684 78.0612 0.701113 78.1006 0.705984L78.1667 0.713956L78.1913 0.717499C78.2548 0.72547 78.1091 0.705099 78.1722 0.714399C78.257 0.727684 78.3459 0.741856 78.4324 0.758684C78.7699 0.823876 79.1014 0.919901 79.4229 1.04565C79.4601 1.06027 79.4978 1.07533 79.5347 1.08994L79.5944 1.11518L79.6165 1.12448C79.6525 1.13954 79.5436 1.09215 79.5919 1.11385C79.6703 1.14928 79.7478 1.1856 79.8245 1.22412C79.9773 1.30089 80.1267 1.38414 80.2727 1.47389C80.4187 1.56365 80.5599 1.65975 80.6964 1.76219C80.7286 1.78611 80.7603 1.81046 80.7921 1.83482C80.8069 1.84634 80.8218 1.85785 80.8345 1.86981L80.8599 1.88973C80.7824 1.83039 80.8218 1.85874 80.8391 1.87291C80.9052 1.92738 80.9705 1.98273 81.0344 2.03986C81.2884 2.26585 81.5235 2.51401 81.7373 2.78164C81.7644 2.8153 81.7911 2.84896 81.8173 2.8835L81.8517 2.92779L81.8711 2.95391C81.8944 2.98491 81.8237 2.88882 81.855 2.93221C81.9055 3.00263 81.9555 3.07349 82.0037 3.14567C82.0999 3.29004 82.1906 3.43928 82.2749 3.59207C82.3592 3.74485 82.4354 3.89808 82.5062 4.05618C82.5227 4.09382 82.5397 4.13191 82.5558 4.16999L82.5812 4.23111L82.5939 4.26166C82.5875 4.24484 82.5638 4.18594 82.5833 4.23642C82.6142 4.31658 82.6447 4.39718 82.6731 4.47866C82.7914 4.81904 82.8807 5.16967 82.94 5.52646C82.9468 5.57074 82.9536 5.61104 82.9595 5.65356C82.9629 5.67614 82.9663 5.69784 82.9693 5.72176C82.9693 5.73061 82.9692 5.73903 82.9726 5.74744C82.9574 5.63717 82.9671 5.70316 82.9697 5.72796C82.9804 5.81653 82.9892 5.90584 82.9959 5.99588C83.0103 6.18306 83.0167 6.37083 83.015 6.5592C83.0133 6.74756 83.0037 6.93149 82.9862 7.11099C82.982 7.15528 82.9773 7.20311 82.9718 7.24916C82.9688 7.27618 82.9574 7.35855 82.9718 7.24651C82.9688 7.26909 82.9659 7.29079 82.9625 7.3147C82.9498 7.40534 82.9356 7.49568 82.9201 7.58573C82.8549 7.93764 82.7604 8.28291 82.6375 8.61758C82.6231 8.65655 82.609 8.69553 82.5952 8.7345C82.5914 8.74468 82.5871 8.75487 82.5833 8.7655C82.5642 8.81377 82.596 8.73361 82.5969 8.73228C82.588 8.75531 82.5778 8.77657 82.5681 8.80137C82.5342 8.88285 82.4981 8.96345 82.4609 9.04317C82.3872 9.19964 82.3074 9.35257 82.2215 9.50196C82.1356 9.65135 82.0427 9.79897 81.9427 9.94482C81.9194 9.97848 81.8961 10.0112 81.872 10.0445L81.8529 10.0706C81.8301 10.1025 81.8953 10.0108 81.8741 10.0427C81.8593 10.0617 81.8449 10.0817 81.8317 10.1007C81.7792 10.1693 81.7258 10.2371 81.6703 10.3035C81.4516 10.5668 81.2121 10.8103 80.9544 11.0316C80.9239 11.0577 80.8934 11.0834 80.8624 11.1086C80.8438 11.1241 80.7777 11.1724 80.8645 11.1086L80.8078 11.1529C80.7425 11.2043 80.6762 11.254 80.6087 11.3022C80.4697 11.4018 80.3261 11.4953 80.1791 11.5821C80.0321 11.6689 79.8825 11.7499 79.7262 11.8234L79.6165 11.8743L79.5872 11.8872C79.5559 11.9018 79.6296 11.8673 79.6262 11.8699C79.6025 11.8823 79.5771 11.8916 79.5525 11.9018C79.4754 11.934 79.3977 11.9645 79.3195 11.9935C78.9951 12.1126 78.6612 12.2016 78.3218 12.2592C78.2794 12.2667 78.2349 12.2738 78.1913 12.28C78.1807 12.28 78.1693 12.2826 78.1587 12.2849C78.1481 12.2871 78.2371 12.2742 78.201 12.2787C78.1765 12.2818 78.1519 12.2853 78.1273 12.288C78.0388 12.299 77.9502 12.3074 77.8617 12.3141C77.6719 12.3277 77.4818 12.3321 77.2915 12.3274C77.1785 12.3247 77.0655 12.3185 76.9525 12.3088C76.9 12.3043 76.8479 12.299 76.7958 12.2933L76.7233 12.2844L76.681 12.2791C76.6212 12.2716 76.7339 12.2871 76.6933 12.2791C76.4757 12.2466 76.2599 12.2023 76.0468 12.1462C75.8402 12.0906 75.6367 12.0232 75.4371 11.9443C75.3867 11.9244 75.3367 11.9036 75.2867 11.8823C75.2745 11.877 75.2622 11.8712 75.2495 11.8664C75.2495 11.8664 75.3117 11.8938 75.2791 11.8792L75.1944 11.8411C75.0964 11.7957 74.9999 11.7472 74.905 11.6959C74.7216 11.5974 74.5433 11.4889 74.3708 11.3708C74.1658 11.2309 73.8925 11.4151 73.8925 11.6573L74.1302 11.3372L73.1494 11.6777L71.5984 12.2162L71.2387 12.3415L71.6298 12.7499L71.8526 12.1644L72.3072 10.9687L72.6813 9.98645C72.7236 9.87308 72.766 9.79159 72.738 9.66051C72.717 9.59708 72.6868 9.53735 72.6487 9.48336C72.6245 9.44129 72.6012 9.39878 72.5779 9.35627C72.5355 9.27345 72.4906 9.1902 72.4508 9.10561C72.411 9.02102 72.3707 8.93467 72.3335 8.84831C72.3237 8.82573 72.314 8.80403 72.3046 8.78055L72.2928 8.75133C72.2784 8.71723 72.3055 8.78321 72.3051 8.78188C72.2881 8.73538 72.2691 8.69021 72.2517 8.64415C72.1177 8.28364 72.0164 7.91073 71.9492 7.53038C71.941 7.48402 71.9334 7.43752 71.9263 7.39088C71.9229 7.36918 71.92 7.34659 71.9166 7.32622C71.9132 7.30585 71.9128 7.29699 71.9106 7.28193C71.9085 7.26688 71.9026 7.21949 71.9106 7.27175C71.9187 7.324 71.9107 7.25271 71.9068 7.23986C71.9039 7.21418 71.9013 7.18849 71.8988 7.16325C71.8931 7.11188 71.8885 7.06051 71.8848 7.00914C71.8696 6.81517 71.8629 6.6206 71.8649 6.42545C71.8666 6.2675 71.8741 6.1097 71.8874 5.95204C71.8937 5.8772 71.9009 5.80191 71.9098 5.72751C71.9098 5.716 71.9123 5.70449 71.914 5.69297C71.9157 5.68146 71.9034 5.7749 71.9085 5.73726C71.9085 5.71999 71.9128 5.70316 71.9153 5.68589C71.9208 5.64603 71.9267 5.60661 71.9331 5.56676C71.981 5.26457 72.0505 4.96658 72.1411 4.67529C72.186 4.53181 72.2357 4.39009 72.2902 4.25015C72.2996 4.22668 72.3275 4.16158 72.286 4.25989L72.3051 4.21561C72.3199 4.18018 72.3347 4.14431 72.3504 4.10888C72.3786 4.04068 72.4096 3.97322 72.4432 3.9065C72.5711 3.63979 72.7173 3.38314 72.8808 3.13859C72.9215 3.07806 72.9631 3.01798 73.0058 2.95834C73.0151 2.9455 73.0244 2.93177 73.0346 2.91893C73.0384 2.9145 72.988 2.98137 73.0088 2.95391L73.0282 2.92779C73.0511 2.89767 73.074 2.86756 73.0973 2.83922C73.1854 2.72614 73.2771 2.61675 73.3723 2.51106C73.5666 2.29503 73.7756 2.09389 73.9976 1.90922L74.0399 1.87335L74.0586 1.85829C74.0632 1.85475 73.9984 1.90568 74.0255 1.88531L74.1141 1.81578C74.1706 1.77208 74.2285 1.72927 74.2878 1.68735C74.4055 1.60321 74.526 1.52394 74.6491 1.44954C74.7723 1.37514 74.8985 1.30487 75.0279 1.23874C75.0923 1.20597 75.1574 1.17452 75.2232 1.14441L75.2656 1.12404L75.2876 1.1143L75.2558 1.12847C75.2893 1.11164 75.3253 1.09835 75.3596 1.08418C75.63 0.972652 75.908 0.88221 76.1912 0.813598C76.3325 0.779646 76.4745 0.751008 76.6174 0.727684C76.6526 0.72237 76.6894 0.719713 76.7238 0.711741C76.7238 0.711741 76.639 0.723256 76.6886 0.717056L76.7132 0.713513L76.7708 0.706427C76.8454 0.69757 76.9199 0.690484 76.9945 0.684727C77.1432 0.67277 77.291 0.667456 77.4406 0.667013C77.6071 0.667013 77.7664 0.514671 77.7583 0.334872C77.7568 0.24702 77.7226 0.163249 77.6629 0.101326C77.6033 0.0394017 77.5229 0.00419558 77.4389 0.00317383Z" fill="#526937"/>
<path d="M75.5706 3.4295C75.5207 3.37953 75.4572 3.34704 75.3889 3.33656C75.3205 3.32608 75.2508 3.33814 75.1893 3.37105C74.8343 3.56059 74.1132 4.02824 74.2255 4.64957C74.3738 5.46885 75.3071 7.24292 76.6827 8.28983C78.0583 9.33674 78.9009 9.63655 79.1632 9.52983C79.4254 9.4231 80.2248 8.6202 80.0897 8.26282C79.9545 7.90544 78.5112 6.96968 78.1773 7.16941C78.1773 7.16941 78.0023 7.161 77.9151 7.61005C77.8278 8.05911 76.7157 7.83148 75.9184 6.16015C75.8961 6.11704 75.8837 6.06909 75.8823 6.02011C75.8808 5.97113 75.8902 5.92247 75.9099 5.87798C75.9296 5.83349 75.9589 5.79441 75.9955 5.76382C76.0321 5.73324 76.0751 5.712 76.1209 5.70179C76.3603 5.6513 76.714 5.52155 76.5712 5.19959C76.3912 4.78862 75.9803 3.84401 75.5706 3.4295Z" fill="#526937"/>
<path d="M93.2899 12.2449V7.59938C93.2899 7.38459 93.2946 7.16981 93.2899 6.95502C93.2897 6.95208 93.2897 6.94912 93.2899 6.94617C93.2887 6.85847 93.2549 6.77472 93.1955 6.7127C93.1362 6.65068 93.0561 6.61528 92.9722 6.61403H91.7173H91.6928C91.6529 6.61403 91.7673 6.62908 91.7292 6.61978L91.6758 6.60561C91.6648 6.60251 91.636 6.58878 91.6847 6.61048C91.7334 6.63218 91.6978 6.61624 91.6877 6.61048C91.6775 6.60473 91.6487 6.59277 91.6419 6.58081C91.6419 6.5786 91.7046 6.64104 91.6707 6.60207C91.6658 6.59602 91.6604 6.5904 91.6546 6.58524C91.6497 6.57903 91.6445 6.57311 91.6389 6.56753C91.6864 6.60251 91.6762 6.62421 91.661 6.59631C91.6534 6.58347 91.6284 6.55468 91.6305 6.54051C91.6326 6.52634 91.6538 6.61801 91.6478 6.58214C91.6478 6.57151 91.6411 6.56133 91.6385 6.5507C91.636 6.54007 91.6347 6.53475 91.633 6.52678C91.6258 6.49755 91.6419 6.49047 91.6373 6.56531C91.6379 6.55277 91.6379 6.54021 91.6373 6.52767C91.6373 6.48737 91.6373 6.44663 91.6373 6.40588V4.93649C91.6373 4.92896 91.6415 4.90151 91.6373 4.89929C91.633 4.89708 91.6241 4.97591 91.6313 4.94624C91.6313 4.93826 91.6343 4.92985 91.6364 4.92188C91.6385 4.91391 91.6428 4.90062 91.6453 4.88999C91.6559 4.84571 91.6301 4.92321 91.6305 4.92409C91.6305 4.91302 91.6512 4.88512 91.6567 4.87494C91.6622 4.86475 91.6864 4.83065 91.6542 4.87494C91.622 4.91922 91.6411 4.89132 91.6491 4.88379C91.6572 4.87626 91.7072 4.83065 91.6622 4.86652C91.6173 4.90239 91.6737 4.86165 91.6877 4.85235C91.6906 4.85235 91.7046 4.84084 91.708 4.84172C91.7114 4.84261 91.6233 4.87006 91.6758 4.85678C91.6911 4.85324 91.7059 4.84836 91.7211 4.84394C91.769 4.83154 91.6411 4.84969 91.7088 4.84792H92.9722C93.0561 4.84666 93.1362 4.81126 93.1955 4.74925C93.2549 4.68723 93.2887 4.60348 93.2899 4.51578V2.77536C93.2899 2.72178 93.2899 2.66819 93.2899 2.6146C93.2899 2.58715 93.2899 2.55969 93.2899 2.53179C93.2899 2.48751 93.2937 2.44056 93.298 2.39495C93.298 2.37546 93.3014 2.35553 93.3035 2.33561C93.3056 2.31568 93.3103 2.28025 93.3035 2.33561C93.2967 2.39096 93.3035 2.34402 93.3035 2.32985C93.317 2.24185 93.3353 2.15476 93.3586 2.06901C93.3783 1.9833 93.4067 1.90003 93.4433 1.82057C93.4433 1.82057 93.409 1.90205 93.4297 1.85467C93.4327 1.84714 93.4357 1.83961 93.439 1.83252C93.4475 1.8126 93.4564 1.79267 93.4657 1.77318C93.4848 1.732 93.5056 1.69125 93.5272 1.65095C93.5666 1.57822 93.6099 1.50784 93.6568 1.44015C93.6636 1.43041 93.7115 1.36443 93.6737 1.4158C93.636 1.46717 93.6788 1.4096 93.6873 1.39897C93.7148 1.36354 93.7437 1.329 93.772 1.29534C93.8279 1.23298 93.8871 1.17384 93.9491 1.1182L93.9915 1.08188L94.0156 1.06196C94.0533 1.02918 93.9885 1.08321 93.9877 1.0841C94.0192 1.05624 94.0527 1.03107 94.0881 1.00881C94.1564 0.96059 94.2271 0.91624 94.2999 0.875957C94.3368 0.856029 94.374 0.836986 94.4122 0.819272L94.4334 0.809529C94.4681 0.792258 94.3647 0.838314 94.4007 0.8237C94.4228 0.814843 94.4431 0.805543 94.4664 0.797129C94.5455 0.76623 94.6263 0.74035 94.7083 0.719629C94.7469 0.709444 94.7858 0.701029 94.8252 0.693058L94.8807 0.683315L94.9125 0.678444C94.8104 0.698372 94.8701 0.684201 94.8926 0.681544C94.9742 0.672028 95.0562 0.66715 95.1383 0.66693H96.8228C96.9325 0.66693 97.0426 0.66693 97.1524 0.66693C97.1607 0.667371 97.169 0.667371 97.1774 0.66693C97.207 0.66693 97.135 0.66073 97.135 0.659844C97.1451 0.663001 97.1554 0.665223 97.1659 0.666487C97.1761 0.669144 97.1863 0.67313 97.1964 0.675787C97.2468 0.68863 97.1604 0.66073 97.1638 0.660287C97.1786 0.660287 97.2113 0.689072 97.2235 0.696601C97.2553 0.716087 97.1731 0.644344 97.1951 0.674458C97.2005 0.680265 97.2061 0.685736 97.2121 0.690844C97.2185 0.699193 97.2254 0.707038 97.2329 0.714315C97.1854 0.678444 97.1956 0.658073 97.2108 0.68553C97.2168 0.695715 97.243 0.729815 97.2413 0.741329C97.2413 0.744872 97.2142 0.652758 97.2269 0.707672C97.2299 0.720958 97.2345 0.733801 97.2371 0.747086C97.2519 0.815286 97.2371 0.677115 97.2371 0.733801C97.2371 0.738672 97.2371 0.746201 97.2371 0.752401V0.851157C97.2371 1.24973 97.243 1.64431 97.2371 2.04022V2.04288C97.2371 2.04775 97.2371 2.07609 97.2371 2.07698C97.2371 2.07786 97.2502 2.00081 97.243 2.03269C97.2379 2.05351 97.2316 2.07698 97.2265 2.09646C97.218 2.13411 97.2621 2.03048 97.2405 2.06192C97.2333 2.07211 97.2286 2.08628 97.2218 2.09691C97.2174 2.10657 97.2117 2.11552 97.2049 2.12348C97.2049 2.12348 97.2625 2.05838 97.2252 2.09336C97.2146 2.10311 97.1651 2.14784 97.2121 2.11064C97.2591 2.07344 97.1977 2.11772 97.1867 2.12481C97.1797 2.12806 97.1729 2.13175 97.1663 2.13588C97.2168 2.09602 97.2235 2.11329 97.1837 2.12525C97.1685 2.13012 97.1049 2.14119 97.1638 2.13234C97.2227 2.12348 97.171 2.12968 97.1566 2.12968H96.3813C96.1398 2.12968 95.9098 2.12082 95.6869 2.24482C95.4841 2.36173 95.3323 2.55612 95.2633 2.78732C95.2349 2.89182 95.2221 3.00025 95.2252 3.10883V4.51711C95.2263 4.60484 95.2601 4.68866 95.3194 4.7507C95.3788 4.81274 95.459 4.8481 95.5429 4.84925H96.7071C96.8558 4.84925 97.0037 4.84659 97.1532 4.84925C97.1579 4.84925 97.1854 4.85146 97.1863 4.84925C97.1871 4.84704 97.1015 4.83065 97.1494 4.84438C97.1621 4.84836 97.2011 4.85102 97.2096 4.86298C97.2096 4.86564 97.1325 4.81869 97.1761 4.84925L97.2096 4.86962C97.221 4.87626 97.2519 4.90062 97.2096 4.86696C97.1672 4.83331 97.2036 4.86431 97.2121 4.87272C97.2206 4.88114 97.2329 4.89265 97.2329 4.89619C97.2329 4.89973 97.1854 4.82091 97.2108 4.86741C97.2172 4.87848 97.2434 4.90948 97.2413 4.92321C97.2413 4.92675 97.2142 4.83464 97.2269 4.88911C97.2299 4.90239 97.2345 4.91568 97.2371 4.92896C97.2532 5.00203 97.2337 4.84748 97.2371 4.92409C97.2373 4.92748 97.2373 4.93089 97.2371 4.93428V6.41695C97.2333 6.46544 97.2333 6.51417 97.2371 6.56265C97.2273 6.50597 97.2494 6.49003 97.2413 6.52413C97.2392 6.53475 97.2371 6.54538 97.2341 6.55601C97.2312 6.56664 97.2257 6.57727 97.224 6.58701C97.2346 6.51837 97.2523 6.52634 97.2371 6.55247C97.2269 6.57018 97.2138 6.58834 97.2049 6.60694C97.2591 6.49623 97.2218 6.60694 97.1922 6.61004C97.1888 6.61004 97.2642 6.56044 97.2197 6.58701C97.2108 6.59277 97.2028 6.59897 97.1939 6.60428C97.185 6.6096 97.1706 6.61978 97.1663 6.6189C97.1621 6.61801 97.2511 6.59055 97.199 6.60384L97.1375 6.61934C97.2223 6.5972 97.1901 6.6127 97.1566 6.61314C97.0227 6.61535 96.8888 6.61314 96.755 6.61314H95.4332C95.3493 6.61429 95.2691 6.64965 95.2097 6.71169C95.1504 6.77373 95.1165 6.85755 95.1154 6.94528V11.8827C95.1154 12.0014 95.1154 12.12 95.1154 12.237V12.2432C95.1154 12.2489 95.1154 12.2817 95.1154 12.2604C95.1154 12.3162 95.1214 12.2206 95.1218 12.2228C95.1213 12.2394 95.1179 12.2558 95.1116 12.2711C95.0892 12.3525 95.1413 12.2215 95.1146 12.2671C95.1095 12.2764 95.1048 12.2861 95.0993 12.2954C95.0777 12.3317 95.0608 12.3202 95.1129 12.2799C95.1014 12.2904 95.0907 12.302 95.0811 12.3145C95.043 12.3587 95.137 12.2795 95.1036 12.2976C95.0926 12.3038 95.0824 12.3127 95.0714 12.3193C95.0375 12.3393 95.0205 12.3255 95.0909 12.3131C95.076 12.3158 95.0608 12.3242 95.046 12.3277L95.0307 12.3313C94.9977 12.3375 95.01 12.3362 95.0676 12.3269C95.0415 12.3249 95.0153 12.3249 94.9892 12.3269H93.3708C93.3336 12.3269 93.3149 12.3069 93.3907 12.3331C93.3785 12.3291 93.3645 12.3277 93.3518 12.3242C93.3391 12.3207 93.3268 12.314 93.3145 12.3118C93.3662 12.3357 93.3772 12.3401 93.348 12.3255C93.3388 12.3207 93.3299 12.3154 93.3213 12.3096L93.3081 12.3007C93.2819 12.2812 93.2912 12.2888 93.3361 12.3238C93.3291 12.3159 93.3216 12.3087 93.3136 12.3021C93.2891 12.2764 93.287 12.248 93.3234 12.3207C93.3162 12.3065 93.3056 12.2941 93.2984 12.2799C93.2912 12.2657 93.2895 12.2591 93.284 12.2516C93.3264 12.3105 93.3052 12.3096 93.2942 12.2697C93.2899 12.2542 93.2887 12.2365 93.2836 12.2215C93.3086 12.3007 93.2903 12.2812 93.2899 12.2418C93.2865 12.0682 93.1459 11.9017 92.9722 11.9097C92.7985 11.9177 92.6506 12.0558 92.6544 12.2418C92.6572 12.4396 92.7335 12.6285 92.8673 12.7684C93.001 12.9082 93.1817 12.9882 93.3708 12.9911C93.4403 12.9911 93.5098 12.9911 93.5793 12.9911H95.0303C95.2041 12.9881 95.3714 12.9218 95.5035 12.8038C95.5816 12.732 95.6439 12.6433 95.6861 12.544C95.7283 12.4446 95.7494 12.3368 95.748 12.2281V8.2424C95.748 7.81682 95.7547 7.39035 95.748 6.96432V6.94484L95.4302 7.27698H96.6253C96.7973 7.27698 96.9698 7.27698 97.1418 7.27698C97.2379 7.27698 97.3331 7.25711 97.4219 7.2185C97.5106 7.1799 97.5912 7.12332 97.659 7.05203C97.7267 6.98074 97.7804 6.89615 97.8167 6.80311C97.8531 6.71008 97.8715 6.61045 97.8709 6.50995C97.8709 6.05204 97.8709 5.59413 97.8709 5.13711C97.8709 5.07289 97.8709 5.00868 97.8709 4.94446C97.8718 4.83641 97.8504 4.72942 97.8082 4.63077C97.766 4.53212 97.704 4.44412 97.6264 4.37274C97.4879 4.2498 97.3116 4.18328 97.1299 4.18541H95.5421L95.8598 4.51755V3.09023C95.8598 3.07916 95.8598 3.06765 95.8598 3.05657C95.8638 3.0341 95.865 3.01116 95.8632 2.98837C95.8632 2.99325 95.8467 3.07695 95.8594 3.0269C95.8623 3.01627 95.864 3.0052 95.8666 2.99457C95.8712 2.97642 95.8793 2.95826 95.8831 2.93966C95.8911 2.90113 95.8509 3.00875 95.8691 2.97376C95.875 2.96225 95.8801 2.94985 95.8865 2.93789C95.8962 2.91885 95.9081 2.90113 95.9191 2.88297C95.9301 2.86482 95.9496 2.86437 95.8971 2.91176C95.9043 2.90421 95.9111 2.89623 95.9174 2.88785C95.9314 2.8719 95.9466 2.85773 95.9598 2.84356C95.9729 2.82939 95.9992 2.82496 95.9314 2.86526C95.9403 2.85995 95.9483 2.85242 95.9564 2.84666C95.9738 2.8347 95.9916 2.82408 96.0098 2.81389C96.0187 2.80946 96.0293 2.80548 96.0377 2.80016C95.9704 2.84445 95.981 2.82275 96.0055 2.81522C96.0301 2.80769 96.0454 2.80193 96.0661 2.79706C96.0767 2.79579 96.0872 2.79357 96.0975 2.79042C96.0903 2.79839 96.0089 2.79972 96.0691 2.79529C96.1292 2.79086 96.1869 2.79529 96.2453 2.79529H96.941C97.0096 2.79529 97.0778 2.79529 97.1464 2.79529C97.2492 2.79577 97.3509 2.77325 97.4446 2.72926C97.5384 2.68526 97.622 2.6208 97.69 2.54021C97.8072 2.39605 97.8708 2.21258 97.8692 2.02339V1.04291C97.8692 0.8113 97.8887 0.571716 97.7658 0.364903C97.701 0.255754 97.611 0.165406 97.504 0.102178C97.397 0.0389497 97.2765 0.00487471 97.1536 0.00309047C97.1197 0.00309047 97.0863 0.00309047 97.0524 0.00309047H95.7391C95.3201 0.00309047 94.8918 -0.0217094 94.4855 0.0938757C94.1294 0.196014 93.7996 0.379656 93.5198 0.631499C93.2401 0.883342 93.0174 1.19708 92.868 1.54998C92.7294 1.88365 92.6573 2.24333 92.6561 2.60708C92.6561 2.75189 92.6561 2.89715 92.6561 3.0424V4.51711L92.9739 4.18497H91.9262C91.7144 4.18497 91.5025 4.17567 91.3208 4.31074C91.2235 4.38028 91.1436 4.47321 91.0878 4.5817C91.032 4.6902 91.0019 4.81111 91.0001 4.93428C91.0001 4.97015 91.0001 5.00646 91.0001 5.04233V6.30934C91.0001 6.50863 90.9941 6.6964 91.0848 6.88151C91.1988 7.11489 91.4237 7.24908 91.6682 7.27565C91.716 7.27934 91.7639 7.28038 91.8118 7.27875H92.9718L92.654 6.94661V11.5922C92.654 11.8069 92.6489 12.0222 92.654 12.2365V12.2454C92.654 12.4194 92.8002 12.5859 92.9718 12.5775C93.0557 12.5761 93.1359 12.5407 93.1953 12.4786C93.2547 12.4165 93.2886 12.3327 93.2899 12.2449Z" fill="#526937"/>
</svg>
